{
	"patcher" : 	{
		"fileversion" : 1,
		"appversion" : 		{
			"major" : 8,
			"minor" : 1,
			"revision" : 0,
			"architecture" : "x64",
			"modernui" : 1
		}
,
		"classnamespace" : "box",
		"rect" : [ 1048.0, 478.0, 392.0, 422.0 ],
		"bglocked" : 0,
		"openinpresentation" : 1,
		"default_fontsize" : 12.0,
		"default_fontface" : 0,
		"default_fontname" : "Arial",
		"gridonopen" : 2,
		"gridsize" : [ 15.0, 15.0 ],
		"gridsnaponopen" : 2,
		"objectsnaponopen" : 1,
		"statusbarvisible" : 2,
		"toolbarvisible" : 0,
		"lefttoolbarpinned" : 0,
		"toptoolbarpinned" : 0,
		"righttoolbarpinned" : 0,
		"bottomtoolbarpinned" : 0,
		"toolbars_unpinned_last_save" : 0,
		"tallnewobj" : 0,
		"boxanimatetime" : 200,
		"enablehscroll" : 1,
		"enablevscroll" : 1,
		"devicewidth" : 0.0,
		"description" : "",
		"digest" : "",
		"tags" : "",
		"style" : "",
		"subpatcher_template" : "",
		"boxes" : [ 			{
				"box" : 				{
					"id" : "obj-191",
					"maxclass" : "message",
					"numinlets" : 2,
					"numoutlets" : 1,
					"outlettype" : [ "" ],
					"patching_rect" : [ 660.0, 465.0, 37.0, 22.0 ],
					"text" : "Done"
				}

			}
, 			{
				"box" : 				{
					"id" : "obj-185",
					"maxclass" : "newobj",
					"numinlets" : 2,
					"numoutlets" : 1,
					"outlettype" : [ "float" ],
					"patching_rect" : [ 1215.0, 555.0, 29.5, 22.0 ],
					"text" : "* 1."
				}

			}
, 			{
				"box" : 				{
					"id" : "obj-182",
					"maxclass" : "newobj",
					"numinlets" : 2,
					"numoutlets" : 1,
					"outlettype" : [ "float" ],
					"patching_rect" : [ 1290.0, 540.0, 29.5, 22.0 ],
					"text" : "* 1."
				}

			}
, 			{
				"box" : 				{
					"format" : 6,
					"id" : "obj-180",
					"maxclass" : "flonum",
					"numinlets" : 1,
					"numoutlets" : 2,
					"outlettype" : [ "", "bang" ],
					"parameter_enable" : 0,
					"patching_rect" : [ 1344.0, 562.0, 50.0, 22.0 ]
				}

			}
, 			{
				"box" : 				{
					"id" : "obj-176",
					"maxclass" : "newobj",
					"numinlets" : 2,
					"numoutlets" : 1,
					"outlettype" : [ "float" ],
					"patching_rect" : [ 1344.0, 472.0, 29.5, 22.0 ],
					"text" : "!/ 1."
				}

			}
, 			{
				"box" : 				{
					"id" : "obj-170",
					"maxclass" : "newobj",
					"numinlets" : 1,
					"numoutlets" : 1,
					"outlettype" : [ "" ],
					"patching_rect" : [ 500.0, 548.5, 98.0, 22.0 ],
					"text" : "loadmess Ready"
				}

			}
, 			{
				"box" : 				{
					"id" : "obj-169",
					"maxclass" : "newobj",
					"numinlets" : 1,
					"numoutlets" : 1,
					"outlettype" : [ "" ],
					"patching_rect" : [ 600.0, 600.0, 75.0, 22.0 ],
					"text" : "prepend text"
				}

			}
, 			{
				"box" : 				{
					"id" : "obj-168",
					"maxclass" : "newobj",
					"numinlets" : 1,
					"numoutlets" : 1,
					"outlettype" : [ "" ],
					"patching_rect" : [ 600.0, 548.5, 134.0, 22.0 ],
					"text" : "sprintf symout buffer %i"
				}

			}
, 			{
				"box" : 				{
					"activebgcolor" : [ 0.647058823529412, 0.647058823529412, 0.647058823529412, 0.0 ],
					"activetextcolor" : [ 0.996078431372549, 0.996078431372549, 0.996078431372549, 1.0 ],
					"bordercolor" : [ 0.313725490196078, 0.313725490196078, 0.313725490196078, 0.0 ],
					"fontname" : "IBM Plex Mono",
					"fontsize" : 12.0,
					"id" : "obj-167",
					"maxclass" : "live.text",
					"numinlets" : 1,
					"numoutlets" : 2,
					"outlettype" : [ "", "" ],
					"parameter_enable" : 1,
					"patching_rect" : [ 600.0, 638.5, 75.0, 28.0 ],
					"presentation" : 1,
					"presentation_rect" : [ 283.25, 289.0, 75.0, 28.0 ],
					"saved_attribute_attributes" : 					{
						"valueof" : 						{
							"parameter_shortname" : "live.text[2]",
							"parameter_enum" : [ "val1", "val2" ],
							"parameter_type" : 2,
							"parameter_longname" : "live.text[10]",
							"parameter_mmax" : 1
						}

					}
,
					"text" : "Done",
					"varname" : "live.text[10]"
				}

			}
, 			{
				"box" : 				{
					"ghostbar" : 100,
					"id" : "obj-166",
					"maxclass" : "multislider",
					"numinlets" : 1,
					"numoutlets" : 2,
					"orientation" : 0,
					"outlettype" : [ "", "" ],
					"parameter_enable" : 0,
					"patching_rect" : [ 1155.0, 795.0, 135.0, 30.0 ],
					"presentation" : 1,
					"presentation_rect" : [ 28.0, 390.0, 330.25, 8.0 ],
					"setminmax" : [ 0.0, 1.0 ],
					"slidercolor" : [ 0.705882352941177, 0.486274509803922, 0.901960784313726, 1.0 ]
				}

			}
, 			{
				"box" : 				{
					"id" : "obj-165",
					"maxclass" : "newobj",
					"numinlets" : 1,
					"numoutlets" : 1,
					"outlettype" : [ "writetofolder" ],
					"patching_rect" : [ 1065.0, 328.0, 81.0, 22.0 ],
					"text" : "t writetofolder"
				}

			}
, 			{
				"box" : 				{
					"activebgcolor" : [ 0.647058823529412, 0.647058823529412, 0.647058823529412, 1.0 ],
					"activebgoncolor" : [ 0.647058823529412, 0.647058823529412, 0.647058823529412, 1.0 ],
					"fontface" : 1,
					"fontname" : "IBM Plex Mono",
					"fontsize" : 12.0,
					"id" : "obj-164",
					"maxclass" : "live.text",
					"mode" : 0,
					"numinlets" : 1,
					"numoutlets" : 2,
					"outlettype" : [ "", "" ],
					"parameter_enable" : 1,
					"patching_rect" : [ 1065.0, 283.5, 81.0, 30.0 ],
					"presentation" : 1,
					"presentation_rect" : [ 28.0, 321.0, 81.0, 30.0 ],
					"saved_attribute_attributes" : 					{
						"valueof" : 						{
							"parameter_shortname" : "live.text",
							"parameter_enum" : [ "val1", "val2" ],
							"parameter_type" : 2,
							"parameter_longname" : "live.text[9]",
							"parameter_mmax" : 1
						}

					}
,
					"text" : "save",
					"texton" : "Mute",
					"varname" : "live.text[9]"
				}

			}
, 			{
				"box" : 				{
					"id" : "obj-163",
					"maxclass" : "newobj",
					"numinlets" : 2,
					"numoutlets" : 1,
					"outlettype" : [ "float" ],
					"patching_rect" : [ 1155.0, 705.0, 81.0, 22.0 ],
					"text" : "snapshot~ 50"
				}

			}
, 			{
				"box" : 				{
					"id" : "obj-161",
					"maxclass" : "newobj",
					"numinlets" : 1,
					"numoutlets" : 3,
					"outlettype" : [ "int", "int", "int" ],
					"patching_rect" : [ 780.0, 323.0, 40.0, 22.0 ],
					"text" : "t i 1 i"
				}

			}
, 			{
				"box" : 				{
					"id" : "obj-160",
					"maxclass" : "newobj",
					"numinlets" : 1,
					"numoutlets" : 3,
					"outlettype" : [ "int", "int", "bang" ],
					"patching_rect" : [ 675.0, 366.5, 42.0, 22.0 ],
					"text" : "t 0 0 b"
				}

			}
, 			{
				"box" : 				{
					"activebgcolor" : [ 0.647058823529412, 0.647058823529412, 0.647058823529412, 1.0 ],
					"activebgoncolor" : [ 0.647058823529412, 0.647058823529412, 0.647058823529412, 1.0 ],
					"fontface" : 1,
					"fontname" : "IBM Plex Mono",
					"fontsize" : 12.0,
					"id" : "obj-159",
					"maxclass" : "live.text",
					"mode" : 0,
					"numinlets" : 1,
					"numoutlets" : 2,
					"outlettype" : [ "", "" ],
					"parameter_enable" : 1,
					"patching_rect" : [ 705.0, 15.0, 81.0, 30.0 ],
					"presentation" : 1,
					"presentation_rect" : [ 28.0, 289.0, 81.0, 30.0 ],
					"saved_attribute_attributes" : 					{
						"valueof" : 						{
							"parameter_shortname" : "live.text",
							"parameter_enum" : [ "val1", "val2" ],
							"parameter_type" : 2,
							"parameter_longname" : "live.text[8]",
							"parameter_mmax" : 1
						}

					}
,
					"text" : "load dry",
					"texton" : "Mute",
					"varname" : "live.text[8]"
				}

			}
, 			{
				"box" : 				{
					"id" : "obj-158",
					"maxclass" : "newobj",
					"numinlets" : 2,
					"numoutlets" : 1,
					"outlettype" : [ "" ],
					"patching_rect" : [ 747.0, 478.5, 52.0, 22.0 ],
					"text" : "gate 1 1"
				}

			}
, 			{
				"box" : 				{
					"activebgcolor" : [ 0.925490196078431, 0.364705882352941, 0.341176470588235, 1.0 ],
					"activebgoncolor" : [ 0.647058823529412, 0.647058823529412, 0.647058823529412, 1.0 ],
					"fontface" : 1,
					"fontname" : "IBM Plex Mono",
					"fontsize" : 12.0,
					"id" : "obj-157",
					"maxclass" : "live.text",
					"mode" : 0,
					"numinlets" : 1,
					"numoutlets" : 2,
					"outlettype" : [ "", "" ],
					"parameter_enable" : 1,
					"patching_rect" : [ 675.0, 321.5, 81.0, 30.0 ],
					"presentation" : 1,
					"presentation_rect" : [ 28.0, 353.0, 81.0, 30.0 ],
					"saved_attribute_attributes" : 					{
						"valueof" : 						{
							"parameter_shortname" : "live.text",
							"parameter_enum" : [ "val1", "val2" ],
							"parameter_type" : 2,
							"parameter_longname" : "live.text[7]",
							"parameter_mmax" : 1
						}

					}
,
					"text" : "cancel",
					"texton" : "Mute",
					"varname" : "live.text[7]"
				}

			}
, 			{
				"box" : 				{
					"id" : "obj-137",
					"maxclass" : "newobj",
					"numinlets" : 2,
					"numoutlets" : 1,
					"outlettype" : [ "int" ],
					"patching_rect" : [ 1185.0, 405.0, 29.5, 22.0 ],
					"text" : "- 1"
				}

			}
, 			{
				"box" : 				{
					"id" : "obj-133",
					"maxclass" : "message",
					"numinlets" : 2,
					"numoutlets" : 1,
					"outlettype" : [ "" ],
					"patching_rect" : [ 1185.0, 440.0, 57.0, 22.0 ],
					"text" : "config $1"
				}

			}
, 			{
				"box" : 				{
					"id" : "obj-130",
					"maxclass" : "newobj",
					"numinlets" : 2,
					"numoutlets" : 2,
					"outlettype" : [ "", "" ],
					"patching_rect" : [ 188.5, 67.0, 71.0, 22.0 ],
					"text" : "route config"
				}

			}
, 			{
				"box" : 				{
					"color" : [ 0.756862745098039, 0.517647058823529, 0.517647058823529, 1.0 ],
					"id" : "obj-129",
					"maxclass" : "newobj",
					"numinlets" : 1,
					"numoutlets" : 0,
					"patching_rect" : [ 1185.0, 472.0, 92.0, 22.0 ],
					"text" : "s cverb.settings"
				}

			}
, 			{
				"box" : 				{
					"color" : [ 0.756862745098039, 0.517647058823529, 0.517647058823529, 1.0 ],
					"id" : "obj-128",
					"maxclass" : "newobj",
					"numinlets" : 0,
					"numoutlets" : 1,
					"outlettype" : [ "" ],
					"patching_rect" : [ 188.5, 30.0, 90.0, 22.0 ],
					"text" : "r cverb.settings"
				}

			}
, 			{
				"box" : 				{
					"id" : "obj-127",
					"maxclass" : "newobj",
					"numinlets" : 2,
					"numoutlets" : 2,
					"outlettype" : [ "", "" ],
					"patching_rect" : [ 1185.0, 375.0, 37.0, 22.0 ],
					"text" : "zl nth"
				}

			}
, 			{
				"box" : 				{
					"id" : "obj-126",
					"maxclass" : "newobj",
					"numinlets" : 1,
					"numoutlets" : 3,
					"outlettype" : [ "int", "bang", "int" ],
					"patching_rect" : [ 747.0, 508.5, 40.0, 22.0 ],
					"text" : "t i b i"
				}

			}
, 			{
				"box" : 				{
					"id" : "obj-122",
					"maxclass" : "newobj",
					"numinlets" : 2,
					"numoutlets" : 2,
					"outlettype" : [ "", "" ],
					"patching_rect" : [ 1185.0, 345.0, 88.0, 22.0 ],
					"text" : "zl reg 3 3 3 3 3"
				}

			}
, 			{
				"box" : 				{
					"id" : "obj-113",
					"maxclass" : "newobj",
					"numinlets" : 2,
					"numoutlets" : 1,
					"outlettype" : [ "int" ],
					"patching_rect" : [ 780.0, 436.5, 29.5, 22.0 ],
					"text" : "+ 1"
				}

			}
, 			{
				"box" : 				{
					"color" : [ 0.901960784313726, 0.890196078431372, 0.486274509803922, 1.0 ],
					"id" : "obj-83",
					"maxclass" : "newobj",
					"numinlets" : 1,
					"numoutlets" : 1,
					"outlettype" : [ "signal" ],
					"patching_rect" : [ 1277.0, 630.0, 117.0, 22.0 ],
					"text" : "receive~ cverb.out.2"
				}

			}
, 			{
				"box" : 				{
					"color" : [ 0.901960784313726, 0.890196078431372, 0.486274509803922, 1.0 ],
					"id" : "obj-85",
					"maxclass" : "newobj",
					"numinlets" : 1,
					"numoutlets" : 1,
					"outlettype" : [ "signal" ],
					"patching_rect" : [ 1155.0, 630.0, 117.0, 22.0 ],
					"text" : "receive~ cverb.out.1"
				}

			}
, 			{
				"box" : 				{
					"color" : [ 0.901960784313726, 0.890196078431372, 0.486274509803922, 1.0 ],
					"id" : "obj-78",
					"maxclass" : "newobj",
					"numinlets" : 2,
					"numoutlets" : 0,
					"patcher" : 					{
						"fileversion" : 1,
						"appversion" : 						{
							"major" : 8,
							"minor" : 1,
							"revision" : 0,
							"architecture" : "x64",
							"modernui" : 1
						}
,
						"classnamespace" : "box",
						"rect" : [ 59.0, 104.0, 640.0, 480.0 ],
						"bglocked" : 0,
						"openinpresentation" : 0,
						"default_fontsize" : 12.0,
						"default_fontface" : 0,
						"default_fontname" : "Arial",
						"gridonopen" : 1,
						"gridsize" : [ 15.0, 15.0 ],
						"gridsnaponopen" : 1,
						"objectsnaponopen" : 1,
						"statusbarvisible" : 2,
						"toolbarvisible" : 1,
						"lefttoolbarpinned" : 0,
						"toptoolbarpinned" : 0,
						"righttoolbarpinned" : 0,
						"bottomtoolbarpinned" : 0,
						"toolbars_unpinned_last_save" : 0,
						"tallnewobj" : 0,
						"boxanimatetime" : 200,
						"enablehscroll" : 1,
						"enablevscroll" : 1,
						"devicewidth" : 0.0,
						"description" : "",
						"digest" : "",
						"tags" : "",
						"style" : "",
						"subpatcher_template" : "",
						"boxes" : [ 							{
								"box" : 								{
									"comment" : "",
									"id" : "obj-2",
									"index" : 2,
									"maxclass" : "inlet",
									"numinlets" : 0,
									"numoutlets" : 1,
									"outlettype" : [ "signal" ],
									"patching_rect" : [ 170.0, 57.0, 30.0, 30.0 ]
								}

							}
, 							{
								"box" : 								{
									"comment" : "",
									"id" : "obj-1",
									"index" : 1,
									"maxclass" : "inlet",
									"numinlets" : 0,
									"numoutlets" : 1,
									"outlettype" : [ "signal" ],
									"patching_rect" : [ 50.0, 57.0, 30.0, 30.0 ]
								}

							}
, 							{
								"box" : 								{
									"id" : "obj-74",
									"maxclass" : "newobj",
									"numinlets" : 1,
									"numoutlets" : 0,
									"patching_rect" : [ 170.0, 100.0, 104.0, 22.0 ],
									"text" : "send~ cverb.out.2"
								}

							}
, 							{
								"box" : 								{
									"id" : "obj-73",
									"maxclass" : "newobj",
									"numinlets" : 1,
									"numoutlets" : 0,
									"patching_rect" : [ 50.0, 100.0, 104.0, 22.0 ],
									"text" : "send~ cverb.out.1"
								}

							}
 ],
						"lines" : [ 							{
								"patchline" : 								{
									"destination" : [ "obj-73", 0 ],
									"source" : [ "obj-1", 0 ]
								}

							}
, 							{
								"patchline" : 								{
									"destination" : [ "obj-74", 0 ],
									"source" : [ "obj-2", 0 ]
								}

							}
 ]
					}
,
					"patching_rect" : [ 139.5, 703.5, 98.0, 22.0 ],
					"saved_object_attributes" : 					{
						"description" : "",
						"digest" : "",
						"globalpatchername" : "",
						"tags" : ""
					}
,
					"text" : "p internal_output"
				}

			}
, 			{
				"box" : 				{
					"color" : [ 0.901960784313726, 0.890196078431372, 0.486274509803922, 1.0 ],
					"id" : "obj-77",
					"maxclass" : "newobj",
					"numinlets" : 0,
					"numoutlets" : 2,
					"outlettype" : [ "signal", "signal" ],
					"patcher" : 					{
						"fileversion" : 1,
						"appversion" : 						{
							"major" : 8,
							"minor" : 1,
							"revision" : 0,
							"architecture" : "x64",
							"modernui" : 1
						}
,
						"classnamespace" : "box",
						"rect" : [ 0.0, 0.0, 640.0, 480.0 ],
						"bglocked" : 0,
						"openinpresentation" : 0,
						"default_fontsize" : 12.0,
						"default_fontface" : 0,
						"default_fontname" : "Arial",
						"gridonopen" : 1,
						"gridsize" : [ 15.0, 15.0 ],
						"gridsnaponopen" : 1,
						"objectsnaponopen" : 1,
						"statusbarvisible" : 2,
						"toolbarvisible" : 1,
						"lefttoolbarpinned" : 0,
						"toptoolbarpinned" : 0,
						"righttoolbarpinned" : 0,
						"bottomtoolbarpinned" : 0,
						"toolbars_unpinned_last_save" : 0,
						"tallnewobj" : 0,
						"boxanimatetime" : 200,
						"enablehscroll" : 1,
						"enablevscroll" : 1,
						"devicewidth" : 0.0,
						"description" : "",
						"digest" : "",
						"tags" : "",
						"style" : "",
						"subpatcher_template" : "",
						"boxes" : [ 							{
								"box" : 								{
									"id" : "obj-74",
									"maxclass" : "newobj",
									"numinlets" : 1,
									"numoutlets" : 1,
									"outlettype" : [ "signal" ],
									"patching_rect" : [ 170.0, 100.0, 110.0, 22.0 ],
									"text" : "receive~ cverb.in.2"
								}

							}
, 							{
								"box" : 								{
									"id" : "obj-73",
									"maxclass" : "newobj",
									"numinlets" : 1,
									"numoutlets" : 1,
									"outlettype" : [ "signal" ],
									"patching_rect" : [ 50.0, 100.0, 110.0, 22.0 ],
									"text" : "receive~ cverb.in.1"
								}

							}
, 							{
								"box" : 								{
									"comment" : "",
									"id" : "obj-75",
									"index" : 1,
									"maxclass" : "outlet",
									"numinlets" : 1,
									"numoutlets" : 0,
									"patching_rect" : [ 50.0, 182.0, 30.0, 30.0 ]
								}

							}
, 							{
								"box" : 								{
									"comment" : "",
									"id" : "obj-76",
									"index" : 2,
									"maxclass" : "outlet",
									"numinlets" : 1,
									"numoutlets" : 0,
									"patching_rect" : [ 170.0, 182.0, 30.0, 30.0 ]
								}

							}
 ],
						"lines" : [ 							{
								"patchline" : 								{
									"destination" : [ "obj-75", 0 ],
									"source" : [ "obj-73", 0 ]
								}

							}
, 							{
								"patchline" : 								{
									"destination" : [ "obj-76", 0 ],
									"source" : [ "obj-74", 0 ]
								}

							}
 ]
					}
,
					"patching_rect" : [ 34.5, 328.5, 91.0, 22.0 ],
					"saved_object_attributes" : 					{
						"description" : "",
						"digest" : "",
						"globalpatchername" : "",
						"tags" : ""
					}
,
					"text" : "p internal_input"
				}

			}
, 			{
				"box" : 				{
					"id" : "obj-68",
					"maxclass" : "newobj",
					"numinlets" : 1,
					"numoutlets" : 3,
					"outlettype" : [ "", "readfolder", "clear" ],
					"patching_rect" : [ 705.0, 48.0, 148.0, 22.0 ],
					"text" : "t getcount readfolder clear"
				}

			}
, 			{
				"box" : 				{
					"id" : "obj-63",
					"maxclass" : "newobj",
					"numinlets" : 1,
					"numoutlets" : 1,
					"outlettype" : [ "" ],
					"patching_rect" : [ 1095.0, 600.0, 167.0, 22.0 ],
					"text" : "sprintf set cverb.offline.wet.%i"
				}

			}
, 			{
				"box" : 				{
					"id" : "obj-62",
					"maxclass" : "newobj",
					"numinlets" : 4,
					"numoutlets" : 1,
					"outlettype" : [ "signal" ],
					"patching_rect" : [ 1155.0, 675.0, 86.0, 22.0 ],
					"text" : "record~ dum 2"
				}

			}
, 			{
				"box" : 				{
					"id" : "obj-60",
					"maxclass" : "newobj",
					"numinlets" : 1,
					"numoutlets" : 4,
					"outlettype" : [ "int", "int", "int", "int" ],
					"patching_rect" : [ 746.5, 548.5, 109.0, 22.0 ],
					"text" : "t 1 1 i i"
				}

			}
, 			{
				"box" : 				{
					"id" : "obj-59",
					"maxclass" : "newobj",
					"numinlets" : 1,
					"numoutlets" : 1,
					"outlettype" : [ "" ],
					"patching_rect" : [ 806.5, 587.5, 145.0, 22.0 ],
					"text" : "sprintf set cverb.offline.%i"
				}

			}
, 			{
				"box" : 				{
					"id" : "obj-57",
					"maxclass" : "newobj",
					"numinlets" : 2,
					"numoutlets" : 1,
					"outlettype" : [ "int" ],
					"patching_rect" : [ 780.0, 285.0, 29.5, 22.0 ],
					"text" : "i"
				}

			}
, 			{
				"box" : 				{
					"id" : "obj-56",
					"maxclass" : "newobj",
					"numinlets" : 1,
					"numoutlets" : 3,
					"outlettype" : [ "bang", "int", "int" ],
					"patching_rect" : [ 855.0, 210.0, 139.0, 22.0 ],
					"text" : "t b i i"
				}

			}
, 			{
				"box" : 				{
					"id" : "obj-55",
					"maxclass" : "newobj",
					"numinlets" : 2,
					"numoutlets" : 3,
					"outlettype" : [ "bang", "bang", "int" ],
					"patching_rect" : [ 705.0, 158.0, 169.0, 22.0 ],
					"text" : "uzi"
				}

			}
, 			{
				"box" : 				{
					"id" : "obj-54",
					"maxclass" : "newobj",
					"numinlets" : 1,
					"numoutlets" : 1,
					"outlettype" : [ "" ],
					"patching_rect" : [ 915.0, 242.5, 145.0, 22.0 ],
					"text" : "sprintf set cverb.offline.%i"
				}

			}
, 			{
				"box" : 				{
					"id" : "obj-53",
					"maxclass" : "newobj",
					"numinlets" : 1,
					"numoutlets" : 9,
					"outlettype" : [ "float", "list", "float", "float", "float", "float", "float", "", "int" ],
					"patching_rect" : [ 855.0, 294.5, 103.0, 22.0 ],
					"text" : "info~"
				}

			}
, 			{
				"box" : 				{
					"id" : "obj-52",
					"maxclass" : "message",
					"numinlets" : 2,
					"numoutlets" : 1,
					"outlettype" : [ "" ],
					"patching_rect" : [ 918.0, 328.0, 108.0, 22.0 ],
					"text" : "appendempty $1 2"
				}

			}
, 			{
				"box" : 				{
					"id" : "obj-50",
					"maxclass" : "newobj",
					"numinlets" : 1,
					"numoutlets" : 2,
					"outlettype" : [ "", "bang" ],
					"patching_rect" : [ 918.0, 369.5, 158.0, 22.0 ],
					"saved_object_attributes" : 					{
						"embed" : 0
					}
,
					"text" : "polybuffer~ cverb.offline.wet"
				}

			}
, 			{
				"box" : 				{
					"id" : "obj-47",
					"maxclass" : "message",
					"numinlets" : 2,
					"numoutlets" : 1,
					"outlettype" : [ "" ],
					"patching_rect" : [ 780.0, 366.5, 115.0, 22.0 ],
					"text" : "reset, max $1, bang"
				}

			}
, 			{
				"box" : 				{
					"id" : "obj-42",
					"maxclass" : "newobj",
					"numinlets" : 1,
					"numoutlets" : 2,
					"outlettype" : [ "", "" ],
					"patching_rect" : [ 780.0, 405.0, 58.0, 22.0 ],
					"text" : "onecount"
				}

			}
, 			{
				"box" : 				{
					"id" : "obj-36",
					"maxclass" : "newobj",
					"numinlets" : 2,
					"numoutlets" : 2,
					"outlettype" : [ "", "" ],
					"patching_rect" : [ 705.0, 124.5, 69.0, 22.0 ],
					"text" : "route count"
				}

			}
, 			{
				"box" : 				{
					"id" : "obj-23",
					"maxclass" : "newobj",
					"numinlets" : 1,
					"numoutlets" : 2,
					"outlettype" : [ "", "bang" ],
					"patching_rect" : [ 705.0, 96.0, 136.0, 22.0 ],
					"saved_object_attributes" : 					{
						"embed" : 0
					}
,
					"text" : "polybuffer~ cverb.offline"
				}

			}
, 			{
				"box" : 				{
					"fontname" : "IBM Plex Mono",
					"fontsize" : 20.519733870252349,
					"id" : "obj-14",
					"linecount" : 2,
					"maxclass" : "comment",
					"numinlets" : 1,
					"numoutlets" : 0,
					"patching_rect" : [ 555.0, 48.0, 135.0, 60.0 ],
					"presentation" : 1,
					"presentation_linecount" : 2,
					"presentation_rect" : [ 107.25, 217.0, 175.5, 60.0 ],
					"text" : "Offline Processing",
					"textjustification" : 1
				}

			}
, 			{
				"box" : 				{
					"id" : "obj-15",
					"linecount" : 2,
					"maxclass" : "comment",
					"numinlets" : 1,
					"numoutlets" : 0,
					"patching_rect" : [ 257.0, 538.5, 150.0, 33.0 ],
					"text" : "loopback for non reverberated signals"
				}

			}
, 			{
				"box" : 				{
					"id" : "obj-43",
					"maxclass" : "newobj",
					"numinlets" : 1,
					"numoutlets" : 1,
					"outlettype" : [ "open" ],
					"patching_rect" : [ 221.0, 283.5, 42.0, 22.0 ],
					"text" : "t open"
				}

			}
, 			{
				"box" : 				{
					"id" : "obj-25",
					"maxclass" : "newobj",
					"numinlets" : 2,
					"numoutlets" : 0,
					"patching_rect" : [ 77.0, 703.5, 59.0, 22.0 ],
					"text" : "dac~ 3 4"
				}

			}
, 			{
				"box" : 				{
					"id" : "obj-27",
					"maxclass" : "message",
					"numinlets" : 2,
					"numoutlets" : 1,
					"outlettype" : [ "" ],
					"patching_rect" : [ 47.0, 508.5, 29.5, 22.0 ],
					"text" : "0"
				}

			}
, 			{
				"box" : 				{
					"display_range" : [ -70.0, 12.0 ],
					"fontname" : "IBM Plex Mono",
					"id" : "obj-13",
					"lastchannelcount" : 0,
					"maxclass" : "live.gain~",
					"numinlets" : 2,
					"numoutlets" : 5,
					"orientation" : 1,
					"outlettype" : [ "signal", "signal", "", "float", "list" ],
					"parameter_enable" : 1,
					"patching_rect" : [ 15.0, 538.5, 164.0, 49.0 ],
					"presentation" : 1,
					"presentation_rect" : [ 120.0, 100.0, 127.0, 49.0 ],
					"saved_attribute_attributes" : 					{
						"valueof" : 						{
							"parameter_shortname" : "Master",
							"parameter_type" : 0,
							"parameter_unitstyle" : 4,
							"parameter_mmin" : -70.0,
							"parameter_longname" : "live.gain~",
							"parameter_mmax" : 12.0
						}

					}
,
					"varname" : "live.gain~"
				}

			}
, 			{
				"box" : 				{
					"id" : "obj-39",
					"maxclass" : "newobj",
					"numinlets" : 2,
					"numoutlets" : 1,
					"outlettype" : [ "signal" ],
					"patching_rect" : [ 362.0, 482.0, 75.0, 22.0 ],
					"text" : "onepole~ 50"
				}

			}
, 			{
				"box" : 				{
					"id" : "obj-37",
					"maxclass" : "message",
					"numinlets" : 2,
					"numoutlets" : 1,
					"outlettype" : [ "" ],
					"patching_rect" : [ 362.0, 422.0, 39.0, 22.0 ],
					"text" : "$1 10"
				}

			}
, 			{
				"box" : 				{
					"id" : "obj-30",
					"maxclass" : "newobj",
					"numinlets" : 2,
					"numoutlets" : 2,
					"outlettype" : [ "signal", "bang" ],
					"patching_rect" : [ 362.0, 452.0, 34.0, 22.0 ],
					"text" : "line~"
				}

			}
, 			{
				"box" : 				{
					"activebgcolor" : [ 0.203921568627451, 0.752941176470588, 0.784313725490196, 1.0 ],
					"activebgoncolor" : [ 0.647058823529412, 0.647058823529412, 0.647058823529412, 1.0 ],
					"fontface" : 1,
					"fontname" : "IBM Plex Mono",
					"fontsize" : 12.0,
					"id" : "obj-20",
					"maxclass" : "live.text",
					"numinlets" : 1,
					"numoutlets" : 2,
					"outlettype" : [ "", "" ],
					"parameter_enable" : 1,
					"patching_rect" : [ 362.0, 377.0, 81.0, 30.0 ],
					"presentation" : 1,
					"presentation_rect" : [ 286.5, 158.0, 73.5, 32.0 ],
					"saved_attribute_attributes" : 					{
						"valueof" : 						{
							"parameter_shortname" : "live.text",
							"parameter_enum" : [ "val1", "val2" ],
							"parameter_type" : 2,
							"parameter_longname" : "live.text[6]",
							"parameter_mmax" : 1
						}

					}
,
					"text" : "Mute",
					"texton" : "Mute",
					"varname" : "live.text[6]"
				}

			}
, 			{
				"box" : 				{
					"id" : "obj-19",
					"maxclass" : "newobj",
					"numinlets" : 1,
					"numoutlets" : 1,
					"outlettype" : [ "" ],
					"patching_rect" : [ 362.0, 347.0, 73.0, 22.0 ],
					"text" : "loadmess 1"
				}

			}
, 			{
				"box" : 				{
					"id" : "obj-12",
					"maxclass" : "newobj",
					"numinlets" : 2,
					"numoutlets" : 1,
					"outlettype" : [ "signal" ],
					"patching_rect" : [ 70.5, 463.5, 29.5, 22.0 ],
					"text" : "*~"
				}

			}
, 			{
				"box" : 				{
					"id" : "obj-5",
					"maxclass" : "newobj",
					"numinlets" : 2,
					"numoutlets" : 1,
					"outlettype" : [ "signal" ],
					"patching_rect" : [ 15.0, 463.5, 29.5, 22.0 ],
					"text" : "*~"
				}

			}
, 			{
				"box" : 				{
					"id" : "obj-87",
					"maxclass" : "newobj",
					"numinlets" : 1,
					"numoutlets" : 1,
					"outlettype" : [ "" ],
					"patching_rect" : [ 227.0, 348.5, 72.0, 22.0 ],
					"text" : "prepend set"
				}

			}
, 			{
				"box" : 				{
					"id" : "obj-84",
					"maxclass" : "newobj",
					"numinlets" : 2,
					"numoutlets" : 2,
					"outlettype" : [ "", "" ],
					"patching_rect" : [ 227.0, 313.5, 118.0, 22.0 ],
					"text" : "route \"Bypass State\""
				}

			}
, 			{
				"box" : 				{
					"id" : "obj-41",
					"maxclass" : "newobj",
					"numinlets" : 0,
					"numoutlets" : 1,
					"outlettype" : [ "" ],
					"patcher" : 					{
						"fileversion" : 1,
						"appversion" : 						{
							"major" : 8,
							"minor" : 1,
							"revision" : 0,
							"architecture" : "x64",
							"modernui" : 1
						}
,
						"classnamespace" : "box",
						"rect" : [ 59.0, 104.0, 640.0, 480.0 ],
						"bglocked" : 0,
						"openinpresentation" : 0,
						"default_fontsize" : 12.0,
						"default_fontface" : 0,
						"default_fontname" : "Arial",
						"gridonopen" : 1,
						"gridsize" : [ 15.0, 15.0 ],
						"gridsnaponopen" : 1,
						"objectsnaponopen" : 1,
						"statusbarvisible" : 2,
						"toolbarvisible" : 1,
						"lefttoolbarpinned" : 0,
						"toptoolbarpinned" : 0,
						"righttoolbarpinned" : 0,
						"bottomtoolbarpinned" : 0,
						"toolbars_unpinned_last_save" : 0,
						"tallnewobj" : 0,
						"boxanimatetime" : 200,
						"enablehscroll" : 1,
						"enablevscroll" : 1,
						"devicewidth" : 0.0,
						"description" : "",
						"digest" : "",
						"tags" : "",
						"style" : "",
						"subpatcher_template" : "",
						"boxes" : [ 							{
								"box" : 								{
									"id" : "obj-37",
									"maxclass" : "newobj",
									"numinlets" : 1,
									"numoutlets" : 1,
									"outlettype" : [ "" ],
									"patching_rect" : [ 50.0, 192.0, 75.0, 22.0 ],
									"text" : "prepend text"
								}

							}
, 							{
								"box" : 								{
									"id" : "obj-36",
									"maxclass" : "newobj",
									"numinlets" : 1,
									"numoutlets" : 1,
									"outlettype" : [ "" ],
									"patching_rect" : [ 50.0, 161.0, 132.0, 22.0 ],
									"text" : "sprintf symout CPU: %i"
								}

							}
, 							{
								"box" : 								{
									"id" : "obj-21",
									"maxclass" : "newobj",
									"numinlets" : 2,
									"numoutlets" : 1,
									"outlettype" : [ "bang" ],
									"patching_rect" : [ 50.0, 100.0, 133.0, 22.0 ],
									"text" : "qmetro 1000 @active 1"
								}

							}
, 							{
								"box" : 								{
									"id" : "obj-20",
									"maxclass" : "newobj",
									"numinlets" : 2,
									"numoutlets" : 2,
									"outlettype" : [ "", "int" ],
									"patching_rect" : [ 50.0, 130.0, 77.0, 22.0 ],
									"text" : "adstatus cpu"
								}

							}
, 							{
								"box" : 								{
									"comment" : "",
									"id" : "obj-40",
									"index" : 1,
									"maxclass" : "outlet",
									"numinlets" : 1,
									"numoutlets" : 0,
									"patching_rect" : [ 50.0, 274.0, 30.0, 30.0 ]
								}

							}
 ],
						"lines" : [ 							{
								"patchline" : 								{
									"destination" : [ "obj-36", 0 ],
									"source" : [ "obj-20", 0 ]
								}

							}
, 							{
								"patchline" : 								{
									"destination" : [ "obj-20", 0 ],
									"source" : [ "obj-21", 0 ]
								}

							}
, 							{
								"patchline" : 								{
									"destination" : [ "obj-37", 0 ],
									"source" : [ "obj-36", 0 ]
								}

							}
, 							{
								"patchline" : 								{
									"destination" : [ "obj-40", 0 ],
									"source" : [ "obj-37", 0 ]
								}

							}
 ]
					}
,
					"patching_rect" : [ 362.0, 253.5, 38.0, 22.0 ],
					"saved_object_attributes" : 					{
						"description" : "",
						"digest" : "",
						"globalpatchername" : "",
						"tags" : ""
					}
,
					"text" : "p cpu"
				}

			}
, 			{
				"box" : 				{
					"activebgcolor" : [ 0.647058823529412, 0.647058823529412, 0.647058823529412, 1.0 ],
					"bgcolor" : [ 0.647058823529412, 0.647058823529412, 0.647058823529412, 0.0 ],
					"fontname" : "IBM Plex Mono",
					"id" : "obj-17",
					"maxclass" : "live.text",
					"numinlets" : 1,
					"numoutlets" : 2,
					"outlettype" : [ "", "" ],
					"parameter_enable" : 1,
					"patching_rect" : [ 406.0, 317.0, 42.0, 19.0 ],
					"presentation" : 1,
					"presentation_rect" : [ 67.0, 60.0, 38.0, 19.0 ],
					"saved_attribute_attributes" : 					{
						"valueof" : 						{
							"parameter_shortname" : "live.text[4]",
							"parameter_enum" : [ "val1", "val2" ],
							"parameter_type" : 2,
							"parameter_longname" : "live.text[5]",
							"parameter_mmax" : 1
						}

					}
,
					"text" : "RECALL",
					"textoffcolor" : [ 0.137254901960784, 0.137254901960784, 0.137254901960784, 1.0 ],
					"varname" : "live.text[5]"
				}

			}
, 			{
				"box" : 				{
					"activebgcolor" : [ 0.647058823529412, 0.647058823529412, 0.647058823529412, 1.0 ],
					"bgcolor" : [ 0.647058823529412, 0.647058823529412, 0.647058823529412, 0.0 ],
					"fontname" : "IBM Plex Mono",
					"id" : "obj-16",
					"maxclass" : "live.text",
					"numinlets" : 1,
					"numoutlets" : 2,
					"outlettype" : [ "", "" ],
					"parameter_enable" : 1,
					"patching_rect" : [ 362.0, 317.0, 42.0, 19.0 ],
					"presentation" : 1,
					"presentation_rect" : [ 30.0, 60.0, 38.0, 19.0 ],
					"saved_attribute_attributes" : 					{
						"valueof" : 						{
							"parameter_shortname" : "live.text[4]",
							"parameter_enum" : [ "val1", "val2" ],
							"parameter_type" : 2,
							"parameter_longname" : "live.text[4]",
							"parameter_mmax" : 1
						}

					}
,
					"text" : "STORE",
					"textoffcolor" : [ 0.137254901960784, 0.137254901960784, 0.137254901960784, 1.0 ],
					"varname" : "live.text[4]"
				}

			}
, 			{
				"box" : 				{
					"id" : "obj-9",
					"maxclass" : "live.meter~",
					"numinlets" : 1,
					"numoutlets" : 2,
					"orientation" : 1,
					"outlettype" : [ "float", "int" ],
					"patching_rect" : [ 149.5, 422.0, 100.0, 5.0 ],
					"presentation" : 1,
					"presentation_rect" : [ 120.0, 80.0, 105.0, 18.0 ]
				}

			}
, 			{
				"box" : 				{
					"id" : "obj-8",
					"maxclass" : "live.meter~",
					"numinlets" : 1,
					"numoutlets" : 2,
					"orientation" : 1,
					"outlettype" : [ "float", "int" ],
					"patching_rect" : [ 149.5, 413.5, 100.0, 5.0 ],
					"presentation" : 1,
					"presentation_rect" : [ 120.0, 60.0, 105.0, 18.0 ]
				}

			}
, 			{
				"box" : 				{
					"id" : "obj-6",
					"maxclass" : "newobj",
					"numinlets" : 2,
					"numoutlets" : 0,
					"patching_rect" : [ 15.0, 703.5, 59.0, 22.0 ],
					"text" : "dac~ 1 2"
				}

			}
, 			{
				"box" : 				{
					"fontname" : "IBM Plex Mono",
					"fontsize" : 12.0,
					"id" : "obj-48",
					"maxclass" : "live.text",
					"mode" : 0,
					"numinlets" : 1,
					"numoutlets" : 2,
					"outlettype" : [ "", "" ],
					"parameter_enable" : 1,
					"patching_rect" : [ 221.0, 238.5, 83.0, 30.0 ],
					"presentation" : 1,
					"presentation_rect" : [ 255.0, 107.5, 105.0, 23.0 ],
					"saved_attribute_attributes" : 					{
						"valueof" : 						{
							"parameter_shortname" : "live.text[1]",
							"parameter_enum" : [ "val1", "val2" ],
							"parameter_type" : 2,
							"parameter_longname" : "live.text[3]",
							"parameter_mmax" : 1
						}

					}
,
					"text" : "open reverb",
					"varname" : "live.text[3]"
				}

			}
, 			{
				"box" : 				{
					"id" : "obj-45",
					"maxclass" : "newobj",
					"numinlets" : 4,
					"numoutlets" : 1,
					"outlettype" : [ "" ],
					"patcher" : 					{
						"fileversion" : 1,
						"appversion" : 						{
							"major" : 8,
							"minor" : 1,
							"revision" : 0,
							"architecture" : "x64",
							"modernui" : 1
						}
,
						"classnamespace" : "box",
						"rect" : [ 59.0, 104.0, 559.0, 228.0 ],
						"bglocked" : 0,
						"openinpresentation" : 0,
						"default_fontsize" : 12.0,
						"default_fontface" : 0,
						"default_fontname" : "Arial",
						"gridonopen" : 1,
						"gridsize" : [ 15.0, 15.0 ],
						"gridsnaponopen" : 1,
						"objectsnaponopen" : 1,
						"statusbarvisible" : 2,
						"toolbarvisible" : 1,
						"lefttoolbarpinned" : 0,
						"toptoolbarpinned" : 0,
						"righttoolbarpinned" : 0,
						"bottomtoolbarpinned" : 0,
						"toolbars_unpinned_last_save" : 0,
						"tallnewobj" : 0,
						"boxanimatetime" : 200,
						"enablehscroll" : 1,
						"enablevscroll" : 1,
						"devicewidth" : 0.0,
						"description" : "",
						"digest" : "",
						"tags" : "",
						"style" : "",
						"subpatcher_template" : "",
						"boxes" : [ 							{
								"box" : 								{
									"id" : "obj-2",
									"maxclass" : "newobj",
									"numinlets" : 1,
									"numoutlets" : 1,
									"outlettype" : [ "bang" ],
									"patching_rect" : [ 309.0, 11.0, 58.0, 22.0 ],
									"text" : "loadbang"
								}

							}
, 							{
								"box" : 								{
									"id" : "obj-30",
									"maxclass" : "newobj",
									"numinlets" : 1,
									"numoutlets" : 1,
									"outlettype" : [ "" ],
									"patching_rect" : [ 98.0, 71.0, 85.0, 22.0 ],
									"text" : "prepend recall"
								}

							}
, 							{
								"box" : 								{
									"id" : "obj-27",
									"maxclass" : "newobj",
									"numinlets" : 1,
									"numoutlets" : 1,
									"outlettype" : [ "" ],
									"patching_rect" : [ 13.0, 71.0, 83.0, 22.0 ],
									"text" : "prepend store"
								}

							}
, 							{
								"box" : 								{
									"id" : "obj-8",
									"maxclass" : "message",
									"numinlets" : 2,
									"numoutlets" : 1,
									"outlettype" : [ "" ],
									"patching_rect" : [ 484.0, 71.0, 63.0, 22.0 ],
									"text" : "bypass $1"
								}

							}
, 							{
								"box" : 								{
									"id" : "obj-6",
									"linecount" : 2,
									"maxclass" : "message",
									"numinlets" : 2,
									"numoutlets" : 1,
									"outlettype" : [ "" ],
									"patching_rect" : [ 309.0, 71.0, 166.0, 35.0 ],
									"text" : "savemode 2, read reverb_settings.json, recall 1"
								}

							}
, 							{
								"box" : 								{
									"id" : "obj-9",
									"linecount" : 3,
									"maxclass" : "message",
									"numinlets" : 2,
									"numoutlets" : 1,
									"outlettype" : [ "" ],
									"patching_rect" : [ 193.0, 71.0, 114.0, 49.0 ],
									"text" : "savemode 2, write reverb_settings.json"
								}

							}
, 							{
								"box" : 								{
									"comment" : "",
									"id" : "obj-38",
									"index" : 1,
									"maxclass" : "inlet",
									"numinlets" : 0,
									"numoutlets" : 1,
									"outlettype" : [ "" ],
									"patching_rect" : [ 13.0, 11.0, 30.0, 30.0 ]
								}

							}
, 							{
								"box" : 								{
									"comment" : "",
									"id" : "obj-39",
									"index" : 2,
									"maxclass" : "inlet",
									"numinlets" : 0,
									"numoutlets" : 1,
									"outlettype" : [ "" ],
									"patching_rect" : [ 98.0, 11.0, 30.0, 30.0 ]
								}

							}
, 							{
								"box" : 								{
									"comment" : "",
									"id" : "obj-40",
									"index" : 3,
									"maxclass" : "inlet",
									"numinlets" : 0,
									"numoutlets" : 1,
									"outlettype" : [ "" ],
									"patching_rect" : [ 193.0, 11.0, 30.0, 30.0 ]
								}

							}
, 							{
								"box" : 								{
									"comment" : "",
									"id" : "obj-42",
									"index" : 4,
									"maxclass" : "inlet",
									"numinlets" : 0,
									"numoutlets" : 1,
									"outlettype" : [ "" ],
									"patching_rect" : [ 484.0, 11.0, 30.0, 30.0 ]
								}

							}
, 							{
								"box" : 								{
									"comment" : "",
									"id" : "obj-43",
									"index" : 1,
									"maxclass" : "outlet",
									"numinlets" : 1,
									"numoutlets" : 0,
									"patching_rect" : [ 13.0, 185.0, 30.0, 30.0 ]
								}

							}
 ],
						"lines" : [ 							{
								"patchline" : 								{
									"destination" : [ "obj-6", 0 ],
									"source" : [ "obj-2", 0 ]
								}

							}
, 							{
								"patchline" : 								{
									"destination" : [ "obj-43", 0 ],
									"source" : [ "obj-27", 0 ]
								}

							}
, 							{
								"patchline" : 								{
									"destination" : [ "obj-43", 0 ],
									"source" : [ "obj-30", 0 ]
								}

							}
, 							{
								"patchline" : 								{
									"destination" : [ "obj-27", 0 ],
									"source" : [ "obj-38", 0 ]
								}

							}
, 							{
								"patchline" : 								{
									"destination" : [ "obj-30", 0 ],
									"source" : [ "obj-39", 0 ]
								}

							}
, 							{
								"patchline" : 								{
									"destination" : [ "obj-9", 0 ],
									"source" : [ "obj-40", 0 ]
								}

							}
, 							{
								"patchline" : 								{
									"destination" : [ "obj-8", 0 ],
									"source" : [ "obj-42", 0 ]
								}

							}
, 							{
								"patchline" : 								{
									"destination" : [ "obj-43", 0 ],
									"source" : [ "obj-6", 0 ]
								}

							}
, 							{
								"patchline" : 								{
									"destination" : [ "obj-43", 0 ],
									"source" : [ "obj-8", 0 ]
								}

							}
, 							{
								"patchline" : 								{
									"destination" : [ "obj-43", 0 ],
									"source" : [ "obj-9", 0 ]
								}

							}
 ]
					}
,
					"patching_rect" : [ 158.0, 224.0, 61.0, 22.0 ],
					"saved_object_attributes" : 					{
						"description" : "",
						"digest" : "",
						"globalpatchername" : "",
						"tags" : ""
					}
,
					"text" : "p controls"
				}

			}
, 			{
				"box" : 				{
					"activebgcolor" : [ 0.647058823529412, 0.647058823529412, 0.647058823529412, 0.0 ],
					"fontname" : "IBM Plex Mono",
					"fontsize" : 12.0,
					"id" : "obj-35",
					"maxclass" : "live.text",
					"numinlets" : 1,
					"numoutlets" : 2,
					"outlettype" : [ "", "" ],
					"parameter_enable" : 1,
					"patching_rect" : [ 362.0, 280.0, 75.0, 28.0 ],
					"presentation" : 1,
					"presentation_rect" : [ 255.0, 135.0, 105.0, 17.5 ],
					"saved_attribute_attributes" : 					{
						"valueof" : 						{
							"parameter_shortname" : "live.text[2]",
							"parameter_enum" : [ "val1", "val2" ],
							"parameter_type" : 2,
							"parameter_longname" : "live.text[2]",
							"parameter_mmax" : 1
						}

					}
,
					"text" : "CPU: 8",
					"varname" : "live.text[2]"
				}

			}
, 			{
				"box" : 				{
					"fontname" : "IBM Plex Mono",
					"fontsize" : 12.0,
					"id" : "obj-32",
					"maxclass" : "live.text",
					"mode" : 0,
					"numinlets" : 1,
					"numoutlets" : 2,
					"outlettype" : [ "", "" ],
					"parameter_enable" : 1,
					"patching_rect" : [ 239.0, 177.5, 65.0, 36.0 ],
					"presentation" : 1,
					"presentation_rect" : [ 30.0, 166.0, 73.0, 22.0 ],
					"saved_attribute_attributes" : 					{
						"valueof" : 						{
							"parameter_shortname" : "live.text[1]",
							"parameter_enum" : [ "val1", "val2" ],
							"parameter_type" : 2,
							"parameter_longname" : "live.text[1]",
							"parameter_mmax" : 1
						}

					}
,
					"text" : "write",
					"varname" : "live.text[1]"
				}

			}
, 			{
				"box" : 				{
					"activebgoncolor" : [ 0.337254901960784, 0.607843137254902, 0.341176470588235, 1.0 ],
					"fontname" : "IBM Plex Mono",
					"id" : "obj-31",
					"maxclass" : "live.tab",
					"num_lines_patching" : 5,
					"num_lines_presentation" : 5,
					"numinlets" : 1,
					"numoutlets" : 3,
					"outlettype" : [ "", "", "float" ],
					"parameter_enable" : 1,
					"patching_rect" : [ 188.5, 107.5, 38.0, 83.0 ],
					"presentation" : 1,
					"presentation_rect" : [ 67.0, 81.0, 38.0, 83.0 ],
					"saved_attribute_attributes" : 					{
						"valueof" : 						{
							"parameter_shortname" : "live.tab",
							"parameter_enum" : [ "1", "2", "3", "4", "5" ],
							"parameter_type" : 2,
							"parameter_unitstyle" : 0,
							"parameter_longname" : "live.tab[1]",
							"parameter_mmax" : 4
						}

					}
,
					"varname" : "live.tab[1]"
				}

			}
, 			{
				"box" : 				{
					"activebgoncolor" : [ 0.996078431372549, 0.192156862745098, 0.192156862745098, 1.0 ],
					"fontname" : "IBM Plex Mono",
					"id" : "obj-26",
					"maxclass" : "live.tab",
					"num_lines_patching" : 5,
					"num_lines_presentation" : 5,
					"numinlets" : 1,
					"numoutlets" : 3,
					"outlettype" : [ "", "", "float" ],
					"parameter_enable" : 1,
					"patching_rect" : [ 148.5, 107.5, 38.0, 83.0 ],
					"presentation" : 1,
					"presentation_rect" : [ 30.0, 81.0, 38.0, 83.0 ],
					"saved_attribute_attributes" : 					{
						"valueof" : 						{
							"parameter_shortname" : "live.tab",
							"parameter_enum" : [ "1", "2", "3", "4", "5" ],
							"parameter_type" : 2,
							"parameter_unitstyle" : 0,
							"parameter_longname" : "live.tab",
							"parameter_mmax" : 4
						}

					}
,
					"varname" : "live.tab"
				}

			}
, 			{
				"box" : 				{
					"id" : "obj-10",
					"maxclass" : "newobj",
					"numinlets" : 1,
					"numoutlets" : 1,
					"outlettype" : [ "" ],
					"patching_rect" : [ 231.0, 107.5, 73.0, 22.0 ],
					"text" : "loadmess 0"
				}

			}
, 			{
				"box" : 				{
					"activebgoncolor" : [ 0.203921568627451, 0.752941176470588, 0.784313725490196, 1.0 ],
					"fontface" : 1,
					"fontname" : "IBM Plex Mono",
					"fontsize" : 12.0,
					"id" : "obj-7",
					"maxclass" : "live.text",
					"numinlets" : 1,
					"numoutlets" : 2,
					"outlettype" : [ "", "" ],
					"parameter_enable" : 1,
					"patching_rect" : [ 231.0, 136.5, 81.0, 30.0 ],
					"presentation" : 1,
					"presentation_rect" : [ 120.0, 158.0, 105.0, 30.0 ],
					"saved_attribute_attributes" : 					{
						"valueof" : 						{
							"parameter_shortname" : "live.text",
							"parameter_enum" : [ "val1", "val2" ],
							"parameter_type" : 2,
							"parameter_longname" : "live.text",
							"parameter_mmax" : 1
						}

					}
,
					"text" : "Bypass",
					"texton" : "Bypass",
					"varname" : "live.text"
				}

			}
, 			{
				"box" : 				{
					"fontname" : "IBM Plex Mono",
					"fontsize" : 20.519733870252349,
					"id" : "obj-11",
					"maxclass" : "comment",
					"numinlets" : 1,
					"numoutlets" : 0,
					"patching_rect" : [ 15.0, 14.4, 136.0, 33.0 ],
					"presentation" : 1,
					"presentation_rect" : [ 137.5, 13.0, 115.0, 33.0 ],
					"text" : "CVerb",
					"textjustification" : 1
				}

			}
, 			{
				"box" : 				{
					"id" : "obj-4",
					"maxclass" : "newobj",
					"numinlets" : 2,
					"numoutlets" : 3,
					"outlettype" : [ "signal", "signal", "" ],
					"patching_rect" : [ 15.0, 373.5, 130.0, 22.0 ],
					"text" : "hirt.convolutionreverb~",
					"varname" : "hirt.convolutionreverb~"
				}

			}
, 			{
				"box" : 				{
					"color" : [ 0.329411764705882, 0.784313725490196, 0.847058823529412, 1.0 ],
					"id" : "obj-3",
					"local" : 1,
					"maxclass" : "ezdac~",
					"numinlets" : 2,
					"numoutlets" : 0,
					"patching_rect" : [ 15.0, 740.5, 45.0, 45.0 ],
					"presentation" : 1,
					"presentation_rect" : [ 255.0, 158.0, 31.0, 31.0 ]
				}

			}
, 			{
				"box" : 				{
					"id" : "obj-1",
					"maxclass" : "newobj",
					"numinlets" : 1,
					"numoutlets" : 2,
					"outlettype" : [ "signal", "signal" ],
					"patching_rect" : [ 15.0, 224.0, 59.0, 22.0 ],
					"text" : "adc~ 1 2"
				}

			}
, 			{
				"box" : 				{
					"angle" : 270.0,
					"background" : 1,
					"bgcolor" : [ 0.2, 0.2, 0.2, 0.0 ],
					"border" : 2,
					"bordercolor" : [ 0.529411764705882, 0.564705882352941, 0.568627450980392, 1.0 ],
					"id" : "obj-2",
					"maxclass" : "panel",
					"mode" : 0,
					"numinlets" : 1,
					"numoutlets" : 0,
					"patching_rect" : [ 558.5, 45.0, 128.0, 128.0 ],
					"presentation" : 1,
					"presentation_rect" : [ 15.0, 212.0, 360.0, 197.0 ],
					"proportion" : 0.5
				}

			}
, 			{
				"box" : 				{
					"angle" : 270.0,
					"background" : 1,
					"bgcolor" : [ 0.2, 0.2, 0.2, 0.0 ],
					"border" : 2,
					"bordercolor" : [ 0.529411764705882, 0.564705882352941, 0.568627450980392, 1.0 ],
					"id" : "obj-46",
					"maxclass" : "panel",
					"mode" : 0,
					"numinlets" : 1,
					"numoutlets" : 0,
					"patching_rect" : [ 420.0, 45.0, 128.0, 128.0 ],
					"presentation" : 1,
					"presentation_rect" : [ 15.0, 13.0, 360.0, 197.0 ],
					"proportion" : 0.5
				}

			}
, 			{
				"box" : 				{
					"id" : "obj-64",
					"maxclass" : "newobj",
					"numinlets" : 1,
					"numoutlets" : 2,
					"outlettype" : [ "bang", "int" ],
					"patching_rect" : [ 990.5, 684.5, 59.0, 22.0 ],
					"text" : "t b 0"
				}

			}
, 			{
				"box" : 				{
					"color" : [ 0.901960784313726, 0.890196078431372, 0.486274509803922, 1.0 ],
					"id" : "obj-82",
					"maxclass" : "newobj",
					"numinlets" : 1,
					"numoutlets" : 0,
					"patching_rect" : [ 868.5, 684.5, 97.0, 22.0 ],
					"text" : "send~ cverb.in.2"
				}

			}
, 			{
				"box" : 				{
					"buffername" : "cverb.offline.wet.5",
					"gridcolor" : [ 0.349019607843137, 0.349019607843137, 0.349019607843137, 0.0 ],
					"id" : "obj-173",
					"maxclass" : "waveform~",
					"numinlets" : 5,
					"numoutlets" : 6,
					"outlettype" : [ "float", "float", "float", "float", "list", "" ],
					"patching_rect" : [ 855.0, 750.0, 256.0, 64.0 ],
					"presentation" : 1,
					"presentation_rect" : [ 120.0, 289.0, 238.25, 94.0 ]
				}

			}
, 			{
				"box" : 				{
					"color" : [ 0.901960784313726, 0.890196078431372, 0.486274509803922, 1.0 ],
					"id" : "obj-81",
					"maxclass" : "newobj",
					"numinlets" : 1,
					"numoutlets" : 0,
					"patching_rect" : [ 746.5, 684.5, 97.0, 22.0 ],
					"text" : "send~ cverb.in.1"
				}

			}
, 			{
				"box" : 				{
					"id" : "obj-58",
					"maxclass" : "newobj",
					"numinlets" : 1,
					"numoutlets" : 3,
					"outlettype" : [ "signal", "signal", "bang" ],
					"patching_rect" : [ 746.5, 638.5, 263.0, 22.0 ],
					"text" : "play~ dum 2"
				}

			}
 ],
		"lines" : [ 			{
				"patchline" : 				{
					"destination" : [ "obj-4", 1 ],
					"source" : [ "obj-1", 1 ]
				}

			}
, 			{
				"patchline" : 				{
					"destination" : [ "obj-4", 0 ],
					"source" : [ "obj-1", 0 ]
				}

			}
, 			{
				"patchline" : 				{
					"destination" : [ "obj-7", 0 ],
					"source" : [ "obj-10", 0 ]
				}

			}
, 			{
				"patchline" : 				{
					"destination" : [ "obj-158", 1 ],
					"order" : 1,
					"source" : [ "obj-113", 0 ]
				}

			}
, 			{
				"patchline" : 				{
					"destination" : [ "obj-168", 0 ],
					"order" : 2,
					"source" : [ "obj-113", 0 ]
				}

			}
, 			{
				"patchline" : 				{
					"destination" : [ "obj-182", 0 ],
					"order" : 0,
					"source" : [ "obj-113", 0 ]
				}

			}
, 			{
				"patchline" : 				{
					"color" : [ 0.986246049404144, 0.007120788097382, 0.027434188872576, 1.0 ],
					"destination" : [ "obj-13", 1 ],
					"source" : [ "obj-12", 0 ]
				}

			}
, 			{
				"patchline" : 				{
					"destination" : [ "obj-127", 0 ],
					"source" : [ "obj-122", 0 ]
				}

			}
, 			{
				"patchline" : 				{
					"destination" : [ "obj-122", 0 ],
					"source" : [ "obj-126", 1 ]
				}

			}
, 			{
				"patchline" : 				{
					"destination" : [ "obj-127", 1 ],
					"source" : [ "obj-126", 2 ]
				}

			}
, 			{
				"patchline" : 				{
					"destination" : [ "obj-60", 0 ],
					"source" : [ "obj-126", 0 ]
				}

			}
, 			{
				"patchline" : 				{
					"destination" : [ "obj-137", 0 ],
					"source" : [ "obj-127", 0 ]
				}

			}
, 			{
				"patchline" : 				{
					"destination" : [ "obj-130", 0 ],
					"source" : [ "obj-128", 0 ]
				}

			}
, 			{
				"patchline" : 				{
					"color" : [ 0.986246049404144, 0.007120788097382, 0.027434188872576, 1.0 ],
					"destination" : [ "obj-25", 1 ],
					"order" : 1,
					"source" : [ "obj-13", 1 ]
				}

			}
, 			{
				"patchline" : 				{
					"color" : [ 0.000110864639282, 0.001760244369507, 0.998218417167664, 1.0 ],
					"destination" : [ "obj-25", 0 ],
					"order" : 1,
					"source" : [ "obj-13", 0 ]
				}

			}
, 			{
				"patchline" : 				{
					"color" : [ 0.986246049404144, 0.007120788097382, 0.027434188872576, 1.0 ],
					"destination" : [ "obj-6", 1 ],
					"order" : 2,
					"source" : [ "obj-13", 1 ]
				}

			}
, 			{
				"patchline" : 				{
					"color" : [ 0.000110864639282, 0.001760244369507, 0.998218417167664, 1.0 ],
					"destination" : [ "obj-6", 0 ],
					"order" : 2,
					"source" : [ "obj-13", 0 ]
				}

			}
, 			{
				"patchline" : 				{
					"color" : [ 0.986246049404144, 0.007120788097382, 0.027434188872576, 1.0 ],
					"destination" : [ "obj-78", 1 ],
					"order" : 0,
					"source" : [ "obj-13", 1 ]
				}

			}
, 			{
				"patchline" : 				{
					"color" : [ 0.000110864639282, 0.001760244369507, 0.998218417167664, 1.0 ],
					"destination" : [ "obj-78", 0 ],
					"order" : 0,
					"source" : [ "obj-13", 0 ]
				}

			}
, 			{
				"patchline" : 				{
					"destination" : [ "obj-31", 0 ],
					"source" : [ "obj-130", 0 ]
				}

			}
, 			{
				"patchline" : 				{
					"destination" : [ "obj-129", 0 ],
					"source" : [ "obj-133", 0 ]
				}

			}
, 			{
				"patchline" : 				{
					"destination" : [ "obj-133", 0 ],
					"source" : [ "obj-137", 0 ]
				}

			}
, 			{
				"patchline" : 				{
					"destination" : [ "obj-160", 0 ],
					"source" : [ "obj-157", 0 ]
				}

			}
, 			{
				"patchline" : 				{
					"destination" : [ "obj-126", 0 ],
					"source" : [ "obj-158", 0 ]
				}

			}
, 			{
				"patchline" : 				{
					"destination" : [ "obj-68", 0 ],
					"source" : [ "obj-159", 0 ]
				}

			}
, 			{
				"patchline" : 				{
					"destination" : [ "obj-158", 0 ],
					"source" : [ "obj-160", 1 ]
				}

			}
, 			{
				"patchline" : 				{
					"destination" : [ "obj-170", 0 ],
					"source" : [ "obj-160", 2 ]
				}

			}
, 			{
				"patchline" : 				{
					"destination" : [ "obj-58", 0 ],
					"order" : 1,
					"source" : [ "obj-160", 0 ]
				}

			}
, 			{
				"patchline" : 				{
					"destination" : [ "obj-62", 0 ],
					"order" : 0,
					"source" : [ "obj-160", 0 ]
				}

			}
, 			{
				"patchline" : 				{
					"destination" : [ "obj-158", 0 ],
					"source" : [ "obj-161", 1 ]
				}

			}
, 			{
				"patchline" : 				{
					"destination" : [ "obj-176", 0 ],
					"source" : [ "obj-161", 2 ]
				}

			}
, 			{
				"patchline" : 				{
					"destination" : [ "obj-47", 0 ],
					"source" : [ "obj-161", 0 ]
				}

			}
, 			{
				"patchline" : 				{
					"destination" : [ "obj-185", 0 ],
					"source" : [ "obj-163", 0 ]
				}

			}
, 			{
				"patchline" : 				{
					"destination" : [ "obj-165", 0 ],
					"source" : [ "obj-164", 0 ]
				}

			}
, 			{
				"patchline" : 				{
					"destination" : [ "obj-50", 0 ],
					"source" : [ "obj-165", 0 ]
				}

			}
, 			{
				"patchline" : 				{
					"destination" : [ "obj-169", 0 ],
					"source" : [ "obj-168", 0 ]
				}

			}
, 			{
				"patchline" : 				{
					"destination" : [ "obj-167", 0 ],
					"source" : [ "obj-169", 0 ]
				}

			}
, 			{
				"patchline" : 				{
					"destination" : [ "obj-169", 0 ],
					"source" : [ "obj-170", 0 ]
				}

			}
, 			{
				"patchline" : 				{
					"destination" : [ "obj-180", 0 ],
					"source" : [ "obj-176", 0 ]
				}

			}
, 			{
				"patchline" : 				{
					"destination" : [ "obj-182", 1 ],
					"source" : [ "obj-180", 0 ]
				}

			}
, 			{
				"patchline" : 				{
					"destination" : [ "obj-185", 1 ],
					"source" : [ "obj-182", 0 ]
				}

			}
, 			{
				"patchline" : 				{
					"destination" : [ "obj-166", 0 ],
					"source" : [ "obj-185", 0 ]
				}

			}
, 			{
				"patchline" : 				{
					"destination" : [ "obj-20", 0 ],
					"source" : [ "obj-19", 0 ]
				}

			}
, 			{
				"patchline" : 				{
					"destination" : [ "obj-169", 0 ],
					"source" : [ "obj-191", 0 ]
				}

			}
, 			{
				"patchline" : 				{
					"destination" : [ "obj-37", 0 ],
					"source" : [ "obj-20", 0 ]
				}

			}
, 			{
				"patchline" : 				{
					"destination" : [ "obj-36", 0 ],
					"source" : [ "obj-23", 0 ]
				}

			}
, 			{
				"patchline" : 				{
					"destination" : [ "obj-45", 0 ],
					"source" : [ "obj-26", 1 ]
				}

			}
, 			{
				"patchline" : 				{
					"destination" : [ "obj-13", 0 ],
					"source" : [ "obj-27", 0 ]
				}

			}
, 			{
				"patchline" : 				{
					"destination" : [ "obj-39", 0 ],
					"source" : [ "obj-30", 0 ]
				}

			}
, 			{
				"patchline" : 				{
					"destination" : [ "obj-45", 1 ],
					"source" : [ "obj-31", 1 ]
				}

			}
, 			{
				"patchline" : 				{
					"destination" : [ "obj-45", 2 ],
					"source" : [ "obj-32", 0 ]
				}

			}
, 			{
				"patchline" : 				{
					"destination" : [ "obj-55", 0 ],
					"source" : [ "obj-36", 0 ]
				}

			}
, 			{
				"patchline" : 				{
					"destination" : [ "obj-30", 0 ],
					"source" : [ "obj-37", 0 ]
				}

			}
, 			{
				"patchline" : 				{
					"destination" : [ "obj-12", 1 ],
					"order" : 0,
					"source" : [ "obj-39", 0 ]
				}

			}
, 			{
				"patchline" : 				{
					"destination" : [ "obj-5", 1 ],
					"order" : 1,
					"source" : [ "obj-39", 0 ]
				}

			}
, 			{
				"patchline" : 				{
					"color" : [ 0.986246049404144, 0.007120788097382, 0.027434188872576, 1.0 ],
					"destination" : [ "obj-12", 0 ],
					"order" : 1,
					"source" : [ "obj-4", 1 ]
				}

			}
, 			{
				"patchline" : 				{
					"color" : [ 0.0, 0.216760993003845, 1.0, 1.0 ],
					"destination" : [ "obj-5", 0 ],
					"order" : 1,
					"source" : [ "obj-4", 0 ]
				}

			}
, 			{
				"patchline" : 				{
					"destination" : [ "obj-8", 0 ],
					"order" : 0,
					"source" : [ "obj-4", 0 ]
				}

			}
, 			{
				"patchline" : 				{
					"destination" : [ "obj-84", 0 ],
					"source" : [ "obj-4", 2 ]
				}

			}
, 			{
				"patchline" : 				{
					"destination" : [ "obj-9", 0 ],
					"order" : 0,
					"source" : [ "obj-4", 1 ]
				}

			}
, 			{
				"patchline" : 				{
					"destination" : [ "obj-35", 0 ],
					"source" : [ "obj-41", 0 ]
				}

			}
, 			{
				"patchline" : 				{
					"destination" : [ "obj-113", 0 ],
					"source" : [ "obj-42", 0 ]
				}

			}
, 			{
				"patchline" : 				{
					"destination" : [ "obj-191", 0 ],
					"source" : [ "obj-42", 1 ]
				}

			}
, 			{
				"patchline" : 				{
					"destination" : [ "obj-4", 1 ],
					"source" : [ "obj-43", 0 ]
				}

			}
, 			{
				"patchline" : 				{
					"destination" : [ "obj-4", 1 ],
					"source" : [ "obj-45", 0 ]
				}

			}
, 			{
				"patchline" : 				{
					"destination" : [ "obj-42", 0 ],
					"source" : [ "obj-47", 0 ]
				}

			}
, 			{
				"patchline" : 				{
					"destination" : [ "obj-43", 0 ],
					"source" : [ "obj-48", 0 ]
				}

			}
, 			{
				"patchline" : 				{
					"color" : [ 0.000110864639282, 0.001760244369507, 0.998218417167664, 1.0 ],
					"destination" : [ "obj-13", 0 ],
					"source" : [ "obj-5", 0 ]
				}

			}
, 			{
				"patchline" : 				{
					"destination" : [ "obj-50", 0 ],
					"source" : [ "obj-52", 0 ]
				}

			}
, 			{
				"patchline" : 				{
					"destination" : [ "obj-52", 0 ],
					"source" : [ "obj-53", 6 ]
				}

			}
, 			{
				"patchline" : 				{
					"destination" : [ "obj-53", 0 ],
					"midpoints" : [ 924.5, 279.0, 864.5, 279.0 ],
					"source" : [ "obj-54", 0 ]
				}

			}
, 			{
				"patchline" : 				{
					"destination" : [ "obj-56", 0 ],
					"source" : [ "obj-55", 2 ]
				}

			}
, 			{
				"patchline" : 				{
					"destination" : [ "obj-57", 0 ],
					"midpoints" : [ 789.5, 183.0, 789.5, 183.0 ],
					"source" : [ "obj-55", 1 ]
				}

			}
, 			{
				"patchline" : 				{
					"destination" : [ "obj-53", 0 ],
					"midpoints" : [ 864.5, 234.0, 864.5, 234.0 ],
					"source" : [ "obj-56", 0 ]
				}

			}
, 			{
				"patchline" : 				{
					"destination" : [ "obj-54", 0 ],
					"source" : [ "obj-56", 1 ]
				}

			}
, 			{
				"patchline" : 				{
					"destination" : [ "obj-57", 1 ],
					"midpoints" : [ 984.5, 234.0, 900.0, 234.0, 900.0, 279.0, 800.0, 279.0 ],
					"source" : [ "obj-56", 2 ]
				}

			}
, 			{
				"patchline" : 				{
					"destination" : [ "obj-161", 0 ],
					"source" : [ "obj-57", 0 ]
				}

			}
, 			{
				"patchline" : 				{
					"destination" : [ "obj-64", 0 ],
					"midpoints" : [ 1000.0, 661.5, 1000.0, 661.5 ],
					"source" : [ "obj-58", 2 ]
				}

			}
, 			{
				"patchline" : 				{
					"destination" : [ "obj-81", 0 ],
					"midpoints" : [ 756.0, 661.5, 756.0, 661.5 ],
					"source" : [ "obj-58", 0 ]
				}

			}
, 			{
				"patchline" : 				{
					"destination" : [ "obj-82", 0 ],
					"midpoints" : [ 878.0, 661.5, 878.0, 661.5 ],
					"source" : [ "obj-58", 1 ]
				}

			}
, 			{
				"patchline" : 				{
					"destination" : [ "obj-58", 0 ],
					"source" : [ "obj-59", 0 ]
				}

			}
, 			{
				"patchline" : 				{
					"destination" : [ "obj-58", 0 ],
					"midpoints" : [ 756.0, 572.5, 756.0, 572.5 ],
					"source" : [ "obj-60", 0 ]
				}

			}
, 			{
				"patchline" : 				{
					"destination" : [ "obj-59", 0 ],
					"midpoints" : [ 816.0, 572.5, 816.0, 572.5 ],
					"source" : [ "obj-60", 2 ]
				}

			}
, 			{
				"patchline" : 				{
					"destination" : [ "obj-62", 0 ],
					"midpoints" : [ 786.0, 624.0, 1080.0, 624.0, 1080.0, 669.0, 1164.5, 669.0 ],
					"source" : [ "obj-60", 1 ]
				}

			}
, 			{
				"patchline" : 				{
					"destination" : [ "obj-63", 0 ],
					"midpoints" : [ 846.0, 580.0, 1104.5, 580.0 ],
					"source" : [ "obj-60", 3 ]
				}

			}
, 			{
				"patchline" : 				{
					"destination" : [ "obj-163", 0 ],
					"source" : [ "obj-62", 0 ]
				}

			}
, 			{
				"patchline" : 				{
					"destination" : [ "obj-173", 0 ],
					"order" : 1,
					"source" : [ "obj-63", 0 ]
				}

			}
, 			{
				"patchline" : 				{
					"destination" : [ "obj-62", 0 ],
					"midpoints" : [ 1104.5, 624.0, 1164.5, 624.0 ],
					"order" : 0,
					"source" : [ "obj-63", 0 ]
				}

			}
, 			{
				"patchline" : 				{
					"destination" : [ "obj-42", 0 ],
					"midpoints" : [ 1000.0, 709.5, 975.0, 709.5, 975.0, 670.5, 732.0, 670.5, 732.0, 400.5, 789.5, 400.5 ],
					"source" : [ "obj-64", 0 ]
				}

			}
, 			{
				"patchline" : 				{
					"destination" : [ "obj-62", 0 ],
					"midpoints" : [ 1040.0, 708.0, 1140.0, 708.0, 1140.0, 669.0, 1164.5, 669.0 ],
					"source" : [ "obj-64", 1 ]
				}

			}
, 			{
				"patchline" : 				{
					"destination" : [ "obj-23", 0 ],
					"source" : [ "obj-68", 1 ]
				}

			}
, 			{
				"patchline" : 				{
					"destination" : [ "obj-23", 0 ],
					"source" : [ "obj-68", 0 ]
				}

			}
, 			{
				"patchline" : 				{
					"destination" : [ "obj-50", 0 ],
					"midpoints" : [ 843.5, 81.0, 885.0, 81.0, 885.0, 195.0, 840.0, 195.0, 840.0, 351.0, 924.0, 351.0, 924.0, 363.0, 927.5, 363.0 ],
					"source" : [ "obj-68", 2 ]
				}

			}
, 			{
				"patchline" : 				{
					"destination" : [ "obj-45", 3 ],
					"source" : [ "obj-7", 0 ]
				}

			}
, 			{
				"patchline" : 				{
					"destination" : [ "obj-4", 1 ],
					"source" : [ "obj-77", 1 ]
				}

			}
, 			{
				"patchline" : 				{
					"destination" : [ "obj-4", 0 ],
					"source" : [ "obj-77", 0 ]
				}

			}
, 			{
				"patchline" : 				{
					"destination" : [ "obj-62", 1 ],
					"source" : [ "obj-83", 0 ]
				}

			}
, 			{
				"patchline" : 				{
					"destination" : [ "obj-87", 0 ],
					"source" : [ "obj-84", 0 ]
				}

			}
, 			{
				"patchline" : 				{
					"destination" : [ "obj-62", 0 ],
					"source" : [ "obj-85", 0 ]
				}

			}
, 			{
				"patchline" : 				{
					"destination" : [ "obj-7", 0 ],
					"source" : [ "obj-87", 0 ]
				}

			}
 ],
		"parameters" : 		{
			"obj-4::obj-1::obj-1::obj-45::obj-70" : [ "hirt.val[4]", "hirt.val", 0 ],
			"obj-4::obj-28" : [ "PATCH/PRESS", "PATCH/PRESS", 0 ],
			"obj-4::obj-1::obj-2::obj-96::obj-70" : [ "hirt.val[12]", "hirt.val", 0 ],
			"obj-4::obj-36::obj-114::obj-65" : [ "Drop B", "live.drop", 0 ],
			"obj-4::obj-31::obj-54::obj-70" : [ "hirt.val[22]", "hirt.val", 0 ],
			"obj-17" : [ "live.text[5]", "live.text[4]", 0 ],
			"obj-7" : [ "live.text", "live.text", 0 ],
			"obj-4::obj-3::obj-63::obj-70" : [ "hirt.val[30]", "hirt.val", 0 ],
			"obj-4::obj-31::obj-22::obj-70" : [ "hirt.val[26]", "hirt.val", 0 ],
			"obj-4::obj-36::obj-131::obj-10" : [ "Category Menu", "Category Menu", 0 ],
			"obj-4::obj-1::obj-2::obj-88::obj-70" : [ "hirt.val[9]", "hirt.val", 0 ],
			"obj-4::obj-11" : [ "Modulation Active", "Active", 0 ],
			"obj-4::obj-1::obj-1::obj-47::obj-70" : [ "hirt.val[2]", "hirt.val", 0 ],
			"obj-4::obj-108::obj-90" : [ "number", "number", 0 ],
			"obj-35" : [ "live.text[2]", "live.text[2]", 0 ],
			"obj-13" : [ "live.gain~", "Master", 0 ],
			"obj-4::obj-24::obj-2::obj-8::obj-70" : [ "hirt.val[19]", "hirt.val", 0 ],
			"obj-4::obj-36::obj-131::obj-11" : [ "IR Menu", "IR Menu", 0 ],
			"obj-4::obj-1::obj-1::obj-44::obj-70" : [ "hirt.val[5]", "hirt.val", 0 ],
			"obj-4::obj-1::obj-1::obj-53" : [ "Direct Mode", "Direct Mode", 0 ],
			"obj-4::obj-1::obj-2::obj-79::obj-70" : [ "hirt.val[14]", "hirt.val", 0 ],
			"obj-4::obj-31::obj-21" : [ "EQ Routing", "Active", 0 ],
			"obj-16" : [ "live.text[4]", "live.text[4]", 0 ],
			"obj-4::obj-1::obj-1::obj-9" : [ "Reverse", "Reverse", 0 ],
			"obj-4::obj-1::obj-1::obj-97::obj-70" : [ "hirt.val", "hirt.val", 0 ],
			"obj-4::obj-3::obj-64::obj-70" : [ "hirt.val[31]", "hirt.val", 0 ],
			"obj-4::obj-31::obj-19::obj-70" : [ "hirt.val[27]", "hirt.val", 0 ],
			"obj-4::obj-1::obj-2::obj-81::obj-70" : [ "hirt.val[11]", "hirt.val", 0 ],
			"obj-159" : [ "live.text[8]", "live.text", 0 ],
			"obj-4::obj-1::obj-1::obj-12::obj-70" : [ "hirt.val[6]", "hirt.val", 0 ],
			"obj-20" : [ "live.text[6]", "live.text", 0 ],
			"obj-26" : [ "live.tab", "live.tab", 0 ],
			"obj-4::obj-31::obj-53::obj-70" : [ "hirt.val[23]", "hirt.val", 0 ],
			"obj-4::obj-1::obj-2::obj-36::obj-70" : [ "hirt.val[8]", "hirt.val", 0 ],
			"obj-4::obj-24::obj-1::obj-29::obj-70" : [ "hirt.val[16]", "hirt.val", 0 ],
			"obj-4::obj-24::obj-2::obj-25" : [ "Widen", "Widen", 0 ],
			"obj-167" : [ "live.text[10]", "live.text[2]", 0 ],
			"obj-4::obj-36::obj-53" : [ "Mode IR", "Mode", 0 ],
			"obj-4::obj-3::obj-65::obj-70" : [ "hirt.val[32]", "hirt.val", 0 ],
			"obj-4::obj-14" : [ "Position Active", "Active", 0 ],
			"obj-4::obj-31::obj-17::obj-70" : [ "hirt.val[28]", "hirt.val", 0 ],
			"obj-4::obj-79" : [ "Offline Tabs", "Offline", 0 ],
			"obj-4::obj-31::obj-56::obj-70" : [ "hirt.val[20]", "hirt.val", 0 ],
			"obj-4::obj-36::obj-114::obj-35" : [ "Drop A", "live.drop", 0 ],
			"obj-4::obj-36::obj-49" : [ "Select IR", "Select", 0 ],
			"obj-48" : [ "live.text[3]", "live.text[1]", 0 ],
			"obj-4::obj-1::obj-2::obj-100::obj-70" : [ "hirt.val[13]", "hirt.val", 0 ],
			"obj-4::obj-31::obj-51::obj-70" : [ "hirt.val[24]", "hirt.val", 0 ],
			"obj-4::obj-10" : [ "Damp Active", "Active", 0 ],
			"obj-4::obj-24::obj-1::obj-28::obj-70" : [ "hirt.val[17]", "hirt.val", 0 ],
			"obj-4::obj-1::obj-2::obj-101::obj-70" : [ "hirt.val[10]", "hirt.val", 0 ],
			"obj-4::obj-3::obj-59::obj-70" : [ "hirt.val[33]", "hirt.val", 0 ],
			"obj-4::obj-1::obj-1::obj-46::obj-70" : [ "hirt.val[3]", "hirt.val", 0 ],
			"obj-31" : [ "live.tab[1]", "live.tab", 0 ],
			"obj-4::obj-5" : [ "Realtime Tabs", "Realtime", 0 ],
			"obj-157" : [ "live.text[7]", "live.text", 0 ],
			"obj-4::obj-24::obj-2::obj-49" : [ "Type", "Type", 0 ],
			"obj-4::obj-31::obj-55::obj-70" : [ "hirt.val[21]", "hirt.val", 0 ],
			"obj-32" : [ "live.text[1]", "live.text[1]", 0 ],
			"obj-4::obj-1::obj-2::obj-99::obj-70" : [ "hirt.val[7]", "hirt.val", 0 ],
			"obj-4::obj-3::obj-62::obj-70" : [ "hirt.val[29]", "hirt.val", 0 ],
			"obj-4::obj-1::obj-2::obj-92::obj-70" : [ "hirt.val[15]", "hirt.val", 0 ],
			"obj-4::obj-31::obj-50::obj-70" : [ "hirt.val[25]", "hirt.val", 0 ],
			"obj-164" : [ "live.text[9]", "live.text", 0 ],
			"obj-4::obj-1::obj-1::obj-49" : [ "Length Mode", "Length Mode", 0 ],
			"obj-4::obj-1::obj-1::obj-48::obj-70" : [ "hirt.val[1]", "hirt.val", 0 ],
			"obj-4::obj-8" : [ "Shape Active", "Active", 0 ],
			"obj-4::obj-24::obj-2::obj-29::obj-70" : [ "hirt.val[18]", "hirt.val", 0 ],
			"parameterbanks" : 			{

			}
,
			"parameter_overrides" : 			{
				"obj-4::obj-1::obj-1::obj-45::obj-70" : 				{
					"parameter_longname" : "hirt.val[4]",
					"parameter_invisible" : 1,
					"parameter_exponent" : 2.0,
					"parameter_modmode" : 0,
					"parameter_type" : 0,
					"parameter_unitstyle" : 2,
					"parameter_initial" : 0.0,
					"parameter_range" : [ 0.0, 1000.0 ]
				}
,
				"obj-4::obj-1::obj-2::obj-96::obj-70" : 				{
					"parameter_longname" : "hirt.val[12]",
					"parameter_invisible" : 1,
					"parameter_modmode" : 0,
					"parameter_type" : 0,
					"parameter_unitstyle" : 1,
					"parameter_initial" : 1.0,
					"parameter_range" : [ 0.05, 2.0 ],
					"parameter_exponent" : 1.0
				}
,
				"obj-4::obj-31::obj-54::obj-70" : 				{
					"parameter_longname" : "hirt.val[22]",
					"parameter_exponent" : 3.0,
					"parameter_invisible" : 0,
					"parameter_modmode" : 0,
					"parameter_type" : 0,
					"parameter_unitstyle" : 10,
					"parameter_initial" : 0.5,
					"parameter_range" : [ 0.05, 18.0 ]
				}
,
				"obj-4::obj-3::obj-63::obj-70" : 				{
					"parameter_longname" : "hirt.val[30]",
					"parameter_invisible" : 0,
					"parameter_modmode" : 0,
					"parameter_type" : 0,
					"parameter_unitstyle" : 5,
					"parameter_initial" : 100.0,
					"parameter_range" : [ 0.0, 100.0 ],
					"parameter_exponent" : 1.0
				}
,
				"obj-4::obj-31::obj-22::obj-70" : 				{
					"parameter_longname" : "hirt.val[26]",
					"parameter_exponent" : 4.0,
					"parameter_invisible" : 0,
					"parameter_modmode" : 0,
					"parameter_type" : 0,
					"parameter_unitstyle" : 3,
					"parameter_initial" : 125.0,
					"parameter_range" : [ 10.0, 18000.0 ]
				}
,
				"obj-4::obj-1::obj-2::obj-88::obj-70" : 				{
					"parameter_longname" : "hirt.val[9]",
					"parameter_invisible" : 1,
					"parameter_modmode" : 0,
					"parameter_type" : 0,
					"parameter_unitstyle" : 1,
					"parameter_initial" : 1.0,
					"parameter_range" : [ 0.05, 2.0 ],
					"parameter_exponent" : 1.0
				}
,
				"obj-4::obj-1::obj-1::obj-47::obj-70" : 				{
					"parameter_longname" : "hirt.val[2]",
					"parameter_invisible" : 1,
					"parameter_modmode" : 0,
					"parameter_type" : 0,
					"parameter_unitstyle" : 5,
					"parameter_initial" : 100.0,
					"parameter_range" : [ 0.0, 100.0 ],
					"parameter_exponent" : 1.0
				}
,
				"obj-4::obj-24::obj-2::obj-8::obj-70" : 				{
					"parameter_longname" : "hirt.val[19]",
					"parameter_invisible" : 0,
					"parameter_modmode" : 0,
					"parameter_type" : 0,
					"parameter_unitstyle" : 5,
					"parameter_initial" : 50.0,
					"parameter_range" : [ 0.0, 100.0 ],
					"parameter_exponent" : 1.0
				}
,
				"obj-4::obj-1::obj-1::obj-44::obj-70" : 				{
					"parameter_longname" : "hirt.val[5]",
					"parameter_invisible" : 1,
					"parameter_exponent" : 2.0,
					"parameter_modmode" : 0,
					"parameter_type" : 0,
					"parameter_unitstyle" : 2,
					"parameter_initial" : 0.0,
					"parameter_range" : [ 0.0, 1000.0 ]
				}
,
				"obj-4::obj-1::obj-2::obj-79::obj-70" : 				{
					"parameter_longname" : "hirt.val[14]",
					"parameter_invisible" : 1,
					"parameter_exponent" : 1.189901,
					"parameter_modmode" : 0,
					"parameter_type" : 0,
					"parameter_unitstyle" : 5,
					"parameter_initial" : 100.0,
					"parameter_range" : [ 20.0, 200.0 ]
				}
,
				"obj-4::obj-1::obj-1::obj-97::obj-70" : 				{
					"parameter_invisible" : 1,
					"parameter_exponent" : 1.01,
					"parameter_modmode" : 0,
					"parameter_type" : 0,
					"parameter_unitstyle" : 5,
					"parameter_initial" : 100.0,
					"parameter_range" : [ 1.0, 200.0 ]
				}
,
				"obj-4::obj-3::obj-64::obj-70" : 				{
					"parameter_longname" : "hirt.val[31]",
					"parameter_invisible" : 0,
					"parameter_modmode" : 0,
					"parameter_type" : 0,
					"parameter_unitstyle" : 4,
					"parameter_units" : " ",
					"parameter_initial" : 0.0,
					"parameter_range" : [ -20.0, 20.0 ],
					"parameter_exponent" : 1.0
				}
,
				"obj-4::obj-31::obj-19::obj-70" : 				{
					"parameter_longname" : "hirt.val[27]",
					"parameter_invisible" : 0,
					"parameter_modmode" : 0,
					"parameter_type" : 0,
					"parameter_unitstyle" : 4,
					"parameter_units" : " ",
					"parameter_initial" : 0.0,
					"parameter_range" : [ -18.0, 18.0 ],
					"parameter_exponent" : 1.0
				}
,
				"obj-4::obj-1::obj-2::obj-81::obj-70" : 				{
					"parameter_longname" : "hirt.val[11]",
					"parameter_invisible" : 1,
					"parameter_exponent" : 1.189901,
					"parameter_modmode" : 0,
					"parameter_type" : 0,
					"parameter_unitstyle" : 5,
					"parameter_initial" : 100.0,
					"parameter_range" : [ 20.0, 200.0 ]
				}
,
				"obj-4::obj-1::obj-1::obj-12::obj-70" : 				{
					"parameter_longname" : "hirt.val[6]",
					"parameter_invisible" : 1,
					"parameter_exponent" : 2.5,
					"parameter_modmode" : 0,
					"parameter_type" : 0,
					"parameter_unitstyle" : 2,
					"parameter_initial" : 15000.0,
					"parameter_range" : [ 100.0, 30000.0 ]
				}
,
				"obj-4::obj-31::obj-53::obj-70" : 				{
					"parameter_longname" : "hirt.val[23]",
					"parameter_exponent" : 4.0,
					"parameter_invisible" : 0,
					"parameter_modmode" : 0,
					"parameter_type" : 0,
					"parameter_unitstyle" : 3,
					"parameter_initial" : 1000.0,
					"parameter_range" : [ 10.0, 18000.0 ]
				}
,
				"obj-4::obj-1::obj-2::obj-36::obj-70" : 				{
					"parameter_longname" : "hirt.val[8]",
					"parameter_invisible" : 1,
					"parameter_exponent" : 1.189901,
					"parameter_modmode" : 0,
					"parameter_type" : 0,
					"parameter_unitstyle" : 5,
					"parameter_initial" : 100.0,
					"parameter_range" : [ 20.0, 200.0 ]
				}
,
				"obj-4::obj-24::obj-1::obj-29::obj-70" : 				{
					"parameter_longname" : "hirt.val[16]",
					"parameter_invisible" : 0,
					"parameter_modmode" : 0,
					"parameter_type" : 0,
					"parameter_unitstyle" : 6,
					"parameter_initial" : 0.0,
					"parameter_range" : [ -50.0, 50.0 ],
					"parameter_exponent" : 1.0
				}
,
				"obj-4::obj-3::obj-65::obj-70" : 				{
					"parameter_longname" : "hirt.val[32]",
					"parameter_invisible" : 0,
					"parameter_modmode" : 0,
					"parameter_type" : 0,
					"parameter_unitstyle" : 5,
					"parameter_initial" : 50.0,
					"parameter_range" : [ 0.0, 100.0 ],
					"parameter_exponent" : 1.0
				}
,
				"obj-4::obj-31::obj-17::obj-70" : 				{
					"parameter_longname" : "hirt.val[28]",
					"parameter_exponent" : 3.0,
					"parameter_invisible" : 0,
					"parameter_modmode" : 0,
					"parameter_type" : 0,
					"parameter_unitstyle" : 10,
					"parameter_initial" : 0.5,
					"parameter_range" : [ 0.05, 18.0 ]
				}
,
				"obj-4::obj-31::obj-56::obj-70" : 				{
					"parameter_longname" : "hirt.val[20]",
					"parameter_exponent" : 4.0,
					"parameter_invisible" : 0,
					"parameter_modmode" : 0,
					"parameter_type" : 0,
					"parameter_unitstyle" : 3,
					"parameter_initial" : 8000.0,
					"parameter_range" : [ 10.0, 18000.0 ]
				}
,
				"obj-4::obj-1::obj-2::obj-100::obj-70" : 				{
					"parameter_longname" : "hirt.val[13]",
					"parameter_invisible" : 1,
					"parameter_exponent" : 4.0,
					"parameter_modmode" : 0,
					"parameter_type" : 0,
					"parameter_unitstyle" : 3,
					"parameter_initial" : 1000.0,
					"parameter_range" : [ 30.0, 18000.0 ]
				}
,
				"obj-4::obj-31::obj-51::obj-70" : 				{
					"parameter_longname" : "hirt.val[24]",
					"parameter_invisible" : 0,
					"parameter_modmode" : 0,
					"parameter_type" : 0,
					"parameter_unitstyle" : 4,
					"parameter_units" : " ",
					"parameter_initial" : 0.0,
					"parameter_range" : [ -18.0, 18.0 ],
					"parameter_exponent" : 1.0
				}
,
				"obj-4::obj-24::obj-1::obj-28::obj-70" : 				{
					"parameter_longname" : "hirt.val[17]",
					"parameter_invisible" : 0,
					"parameter_modmode" : 0,
					"parameter_type" : 0,
					"parameter_unitstyle" : 5,
					"parameter_initial" : 0.0,
					"parameter_range" : [ -100.0, 100.0 ],
					"parameter_exponent" : 1.0
				}
,
				"obj-4::obj-1::obj-2::obj-101::obj-70" : 				{
					"parameter_longname" : "hirt.val[10]",
					"parameter_invisible" : 1,
					"parameter_exponent" : 4.0,
					"parameter_modmode" : 0,
					"parameter_type" : 0,
					"parameter_unitstyle" : 3,
					"parameter_initial" : 8000.0,
					"parameter_range" : [ 30.0, 18000.0 ]
				}
,
				"obj-4::obj-3::obj-59::obj-70" : 				{
					"parameter_longname" : "hirt.val[33]",
					"parameter_exponent" : 2.0,
					"parameter_invisible" : 0,
					"parameter_modmode" : 0,
					"parameter_type" : 0,
					"parameter_unitstyle" : 2,
					"parameter_initial" : 0.0,
					"parameter_range" : [ 0.0, 200.0 ]
				}
,
				"obj-4::obj-1::obj-1::obj-46::obj-70" : 				{
					"parameter_longname" : "hirt.val[3]",
					"parameter_invisible" : 1,
					"parameter_modmode" : 0,
					"parameter_type" : 0,
					"parameter_unitstyle" : 5,
					"parameter_initial" : 100.0,
					"parameter_range" : [ 0.0, 100.0 ],
					"parameter_exponent" : 1.0
				}
,
				"obj-4::obj-31::obj-55::obj-70" : 				{
					"parameter_longname" : "hirt.val[21]",
					"parameter_invisible" : 0,
					"parameter_modmode" : 0,
					"parameter_type" : 0,
					"parameter_unitstyle" : 4,
					"parameter_units" : " ",
					"parameter_initial" : 0.0,
					"parameter_range" : [ -18.0, 18.0 ],
					"parameter_exponent" : 1.0
				}
,
				"obj-4::obj-1::obj-2::obj-99::obj-70" : 				{
					"parameter_longname" : "hirt.val[7]",
					"parameter_invisible" : 1,
					"parameter_exponent" : 4.0,
					"parameter_modmode" : 0,
					"parameter_type" : 0,
					"parameter_unitstyle" : 3,
					"parameter_initial" : 125.0,
					"parameter_range" : [ 30.0, 18000.0 ]
				}
,
				"obj-4::obj-3::obj-62::obj-70" : 				{
					"parameter_longname" : "hirt.val[29]",
					"parameter_invisible" : 0,
					"parameter_modmode" : 0,
					"parameter_type" : 0,
					"parameter_unitstyle" : 5,
					"parameter_initial" : 0.0,
					"parameter_range" : [ 0.0, 100.0 ],
					"parameter_exponent" : 1.0
				}
,
				"obj-4::obj-1::obj-2::obj-92::obj-70" : 				{
					"parameter_longname" : "hirt.val[15]",
					"parameter_invisible" : 1,
					"parameter_modmode" : 0,
					"parameter_type" : 0,
					"parameter_unitstyle" : 1,
					"parameter_initial" : 0.707107,
					"parameter_range" : [ 0.05, 2.0 ],
					"parameter_exponent" : 1.0
				}
,
				"obj-4::obj-31::obj-50::obj-70" : 				{
					"parameter_longname" : "hirt.val[25]",
					"parameter_exponent" : 3.0,
					"parameter_invisible" : 0,
					"parameter_modmode" : 0,
					"parameter_type" : 0,
					"parameter_unitstyle" : 10,
					"parameter_initial" : 0.707107,
					"parameter_range" : [ 0.05, 18.0 ]
				}
,
				"obj-4::obj-1::obj-1::obj-48::obj-70" : 				{
					"parameter_longname" : "hirt.val[1]",
					"parameter_invisible" : 1,
					"parameter_exponent" : 1.58,
					"parameter_modmode" : 0,
					"parameter_type" : 0,
					"parameter_unitstyle" : 5,
					"parameter_initial" : 100.0,
					"parameter_range" : [ 50.0, 200.0 ]
				}
,
				"obj-4::obj-24::obj-2::obj-29::obj-70" : 				{
					"parameter_longname" : "hirt.val[18]",
					"parameter_invisible" : 0,
					"parameter_modmode" : 0,
					"parameter_type" : 0,
					"parameter_unitstyle" : 3,
					"parameter_initial" : 1.0,
					"parameter_range" : [ 0.05, 2.0 ],
					"parameter_exponent" : 1.0
				}

			}

		}
,
		"dependency_cache" : [ 			{
				"name" : "hirt.convolutionreverb~.maxpat",
				"bootpath" : "~/Documents/Max 8/Packages/HISSTools Impulse Response Toolbox (HIRT)/patchers/HIRT_reverb",
				"patcherrelativepath" : "../../../Documents/Max 8/Packages/HISSTools Impulse Response Toolbox (HIRT)/patchers/HIRT_reverb",
				"type" : "JSON",
				"implicit" : 1
			}
, 			{
				"name" : "hirt_tabs_offline.maxpat",
				"bootpath" : "~/Documents/Max 8/Packages/HISSTools Impulse Response Toolbox (HIRT)/patchers/HIRT_reverb/HIRT_reverb_support",
				"patcherrelativepath" : "../../../Documents/Max 8/Packages/HISSTools Impulse Response Toolbox (HIRT)/patchers/HIRT_reverb/HIRT_reverb_support",
				"type" : "JSON",
				"implicit" : 1
			}
, 			{
				"name" : "hirt_tab_shape.maxpat",
				"bootpath" : "~/Documents/Max 8/Packages/HISSTools Impulse Response Toolbox (HIRT)/patchers/HIRT_reverb/HIRT_reverb_support",
				"patcherrelativepath" : "../../../Documents/Max 8/Packages/HISSTools Impulse Response Toolbox (HIRT)/patchers/HIRT_reverb/HIRT_reverb_support",
				"type" : "JSON",
				"implicit" : 1
			}
, 			{
				"name" : "hirt.dial.maxpat",
				"bootpath" : "~/Documents/Max 8/Packages/HISSTools Impulse Response Toolbox (HIRT)/patchers/HIRT_support",
				"patcherrelativepath" : "../../../Documents/Max 8/Packages/HISSTools Impulse Response Toolbox (HIRT)/patchers/HIRT_support",
				"type" : "JSON",
				"implicit" : 1
			}
, 			{
				"name" : "hirt.dial.linear.only.maxpat",
				"bootpath" : "~/Documents/Max 8/Packages/HISSTools Impulse Response Toolbox (HIRT)/patchers/HIRT_support",
				"patcherrelativepath" : "../../../Documents/Max 8/Packages/HISSTools Impulse Response Toolbox (HIRT)/patchers/HIRT_support",
				"type" : "JSON",
				"implicit" : 1
			}
, 			{
				"name" : "hirt_tab_damp.maxpat",
				"bootpath" : "~/Documents/Max 8/Packages/HISSTools Impulse Response Toolbox (HIRT)/patchers/HIRT_reverb/HIRT_reverb_support",
				"patcherrelativepath" : "../../../Documents/Max 8/Packages/HISSTools Impulse Response Toolbox (HIRT)/patchers/HIRT_reverb/HIRT_reverb_support",
				"type" : "JSON",
				"implicit" : 1
			}
, 			{
				"name" : "hirt_interface_damp.js",
				"bootpath" : "~/Documents/Max 8/Packages/HISSTools Impulse Response Toolbox (HIRT)/jsui",
				"patcherrelativepath" : "../../../Documents/Max 8/Packages/HISSTools Impulse Response Toolbox (HIRT)/jsui",
				"type" : "TEXT",
				"implicit" : 1
			}
, 			{
				"name" : "hirt_tabs_realtime.maxpat",
				"bootpath" : "~/Documents/Max 8/Packages/HISSTools Impulse Response Toolbox (HIRT)/patchers/HIRT_reverb/HIRT_reverb_support",
				"patcherrelativepath" : "../../../Documents/Max 8/Packages/HISSTools Impulse Response Toolbox (HIRT)/patchers/HIRT_reverb/HIRT_reverb_support",
				"type" : "JSON",
				"implicit" : 1
			}
, 			{
				"name" : "hirt_tab_position.maxpat",
				"bootpath" : "~/Documents/Max 8/Packages/HISSTools Impulse Response Toolbox (HIRT)/patchers/HIRT_reverb/HIRT_reverb_support",
				"patcherrelativepath" : "../../../Documents/Max 8/Packages/HISSTools Impulse Response Toolbox (HIRT)/patchers/HIRT_reverb/HIRT_reverb_support",
				"type" : "JSON",
				"implicit" : 1
			}
, 			{
				"name" : "hirt_interface_pos.js",
				"bootpath" : "~/Documents/Max 8/Packages/HISSTools Impulse Response Toolbox (HIRT)/jsui",
				"patcherrelativepath" : "../../../Documents/Max 8/Packages/HISSTools Impulse Response Toolbox (HIRT)/jsui",
				"type" : "TEXT",
				"implicit" : 1
			}
, 			{
				"name" : "hirt_tab_modulation.maxpat",
				"bootpath" : "~/Documents/Max 8/Packages/HISSTools Impulse Response Toolbox (HIRT)/patchers/HIRT_reverb/HIRT_reverb_support",
				"patcherrelativepath" : "../../../Documents/Max 8/Packages/HISSTools Impulse Response Toolbox (HIRT)/patchers/HIRT_reverb/HIRT_reverb_support",
				"type" : "JSON",
				"implicit" : 1
			}
, 			{
				"name" : "hirt_interface_mod.js",
				"bootpath" : "~/Documents/Max 8/Packages/HISSTools Impulse Response Toolbox (HIRT)/jsui",
				"patcherrelativepath" : "../../../Documents/Max 8/Packages/HISSTools Impulse Response Toolbox (HIRT)/jsui",
				"type" : "TEXT",
				"implicit" : 1
			}
, 			{
				"name" : "hirt_eq.maxpat",
				"bootpath" : "~/Documents/Max 8/Packages/HISSTools Impulse Response Toolbox (HIRT)/patchers/HIRT_reverb/HIRT_reverb_support",
				"patcherrelativepath" : "../../../Documents/Max 8/Packages/HISSTools Impulse Response Toolbox (HIRT)/patchers/HIRT_reverb/HIRT_reverb_support",
				"type" : "JSON",
				"implicit" : 1
			}
, 			{
				"name" : "hirt_interface_eq.js",
				"bootpath" : "~/Documents/Max 8/Packages/HISSTools Impulse Response Toolbox (HIRT)/jsui",
				"patcherrelativepath" : "../../../Documents/Max 8/Packages/HISSTools Impulse Response Toolbox (HIRT)/jsui",
				"type" : "TEXT",
				"implicit" : 1
			}
, 			{
				"name" : "hirt_ir.maxpat",
				"bootpath" : "~/Documents/Max 8/Packages/HISSTools Impulse Response Toolbox (HIRT)/patchers/HIRT_reverb/HIRT_reverb_support",
				"patcherrelativepath" : "../../../Documents/Max 8/Packages/HISSTools Impulse Response Toolbox (HIRT)/patchers/HIRT_reverb/HIRT_reverb_support",
				"type" : "JSON",
				"implicit" : 1
			}
, 			{
				"name" : "hirt_file_loading.maxpat",
				"bootpath" : "~/Documents/Max 8/Packages/HISSTools Impulse Response Toolbox (HIRT)/patchers/HIRT_support",
				"patcherrelativepath" : "../../../Documents/Max 8/Packages/HISSTools Impulse Response Toolbox (HIRT)/patchers/HIRT_support",
				"type" : "JSON",
				"implicit" : 1
			}
, 			{
				"name" : "hirt_loading_scheme.maxpat",
				"bootpath" : "~/Documents/Max 8/Packages/HISSTools Impulse Response Toolbox (HIRT)/patchers/HIRT_support",
				"patcherrelativepath" : "../../../Documents/Max 8/Packages/HISSTools Impulse Response Toolbox (HIRT)/patchers/HIRT_support",
				"type" : "JSON",
				"implicit" : 1
			}
, 			{
				"name" : "hirt_file_set.maxpat",
				"bootpath" : "~/Documents/Max 8/Packages/HISSTools Impulse Response Toolbox (HIRT)/patchers/HIRT_support",
				"patcherrelativepath" : "../../../Documents/Max 8/Packages/HISSTools Impulse Response Toolbox (HIRT)/patchers/HIRT_support",
				"type" : "JSON",
				"implicit" : 1
			}
, 			{
				"name" : "hirt_file_check.maxpat",
				"bootpath" : "~/Documents/Max 8/Packages/HISSTools Impulse Response Toolbox (HIRT)/patchers/HIRT_support",
				"patcherrelativepath" : "../../../Documents/Max 8/Packages/HISSTools Impulse Response Toolbox (HIRT)/patchers/HIRT_support",
				"type" : "JSON",
				"implicit" : 1
			}
, 			{
				"name" : "hirt_base_name.maxpat",
				"bootpath" : "~/Documents/Max 8/Packages/HISSTools Impulse Response Toolbox (HIRT)/patchers/HIRT_support",
				"patcherrelativepath" : "../../../Documents/Max 8/Packages/HISSTools Impulse Response Toolbox (HIRT)/patchers/HIRT_support",
				"type" : "JSON",
				"implicit" : 1
			}
, 			{
				"name" : "hirt_folder.maxpat",
				"bootpath" : "~/Documents/Max 8/Packages/HISSTools Impulse Response Toolbox (HIRT)/patchers/HIRT_support",
				"patcherrelativepath" : "../../../Documents/Max 8/Packages/HISSTools Impulse Response Toolbox (HIRT)/patchers/HIRT_support",
				"type" : "JSON",
				"implicit" : 1
			}
, 			{
				"name" : "hirt_data_colls.maxpat",
				"bootpath" : "~/Documents/Max 8/Packages/HISSTools Impulse Response Toolbox (HIRT)/patchers/HIRT_support",
				"patcherrelativepath" : "../../../Documents/Max 8/Packages/HISSTools Impulse Response Toolbox (HIRT)/patchers/HIRT_support",
				"type" : "JSON",
				"implicit" : 1
			}
, 			{
				"name" : "hirt_file_ir_display.maxpat",
				"bootpath" : "~/Documents/Max 8/Packages/HISSTools Impulse Response Toolbox (HIRT)/patchers/HIRT_reverb/HIRT_reverb_support",
				"patcherrelativepath" : "../../../Documents/Max 8/Packages/HISSTools Impulse Response Toolbox (HIRT)/patchers/HIRT_reverb/HIRT_reverb_support",
				"type" : "JSON",
				"implicit" : 1
			}
, 			{
				"name" : "hirt_filter_type.maxpat",
				"bootpath" : "~/Documents/Max 8/Packages/HISSTools Impulse Response Toolbox (HIRT)/patchers/HIRT_support",
				"patcherrelativepath" : "../../../Documents/Max 8/Packages/HISSTools Impulse Response Toolbox (HIRT)/patchers/HIRT_support",
				"type" : "JSON",
				"implicit" : 1
			}
, 			{
				"name" : "hirt_file_picker.maxpat",
				"bootpath" : "~/Documents/Max 8/Packages/HISSTools Impulse Response Toolbox (HIRT)/patchers/HIRT_support",
				"patcherrelativepath" : "../../../Documents/Max 8/Packages/HISSTools Impulse Response Toolbox (HIRT)/patchers/HIRT_support",
				"type" : "JSON",
				"implicit" : 1
			}
, 			{
				"name" : "hirt_cr_info_view.maxpat",
				"bootpath" : "~/Documents/Max 8/Packages/HISSTools Impulse Response Toolbox (HIRT)/patchers/HIRT_reverb/HIRT_reverb_support",
				"patcherrelativepath" : "../../../Documents/Max 8/Packages/HISSTools Impulse Response Toolbox (HIRT)/patchers/HIRT_reverb/HIRT_reverb_support",
				"type" : "JSON",
				"implicit" : 1
			}
, 			{
				"name" : "hirt_output.maxpat",
				"bootpath" : "~/Documents/Max 8/Packages/HISSTools Impulse Response Toolbox (HIRT)/patchers/HIRT_reverb/HIRT_reverb_support",
				"patcherrelativepath" : "../../../Documents/Max 8/Packages/HISSTools Impulse Response Toolbox (HIRT)/patchers/HIRT_reverb/HIRT_reverb_support",
				"type" : "JSON",
				"implicit" : 1
			}
, 			{
				"name" : "reverb_settings.json",
				"bootpath" : "~/dev/data_bending/reaper_projects",
				"patcherrelativepath" : ".",
				"type" : "JSON",
				"implicit" : 1
			}
, 			{
				"name" : "hirt_convrvrb_clientlist_alias.txt",
				"bootpath" : "~/Documents/Max 8/Packages/HISSTools Impulse Response Toolbox (HIRT)/patchers/HIRT_reverb/HIRT_reverb_support",
				"patcherrelativepath" : "../../../Documents/Max 8/Packages/HISSTools Impulse Response Toolbox (HIRT)/patchers/HIRT_reverb/HIRT_reverb_support",
				"type" : "TEXT",
				"implicit" : 1
			}
, 			{
				"name" : "HIRT_HISSTools_Logo.png",
				"bootpath" : "~/Documents/Max 8/Packages/HISSTools Impulse Response Toolbox (HIRT)/misc/HIRT_image",
				"patcherrelativepath" : "../../../Documents/Max 8/Packages/HISSTools Impulse Response Toolbox (HIRT)/misc/HIRT_image",
				"type" : "PNG",
				"implicit" : 1
			}
, 			{
				"name" : "hirt.convrvrb.realtime~.maxpat",
				"bootpath" : "~/Documents/Max 8/Packages/HISSTools Impulse Response Toolbox (HIRT)/patchers/HIRT_reverb/HIRT_reverb_support",
				"patcherrelativepath" : "../../../Documents/Max 8/Packages/HISSTools Impulse Response Toolbox (HIRT)/patchers/HIRT_reverb/HIRT_reverb_support",
				"type" : "JSON",
				"implicit" : 1
			}
, 			{
				"name" : "hirt.convolvestereo~.maxpat",
				"bootpath" : "~/Documents/Max 8/Packages/HISSTools Impulse Response Toolbox (HIRT)/patchers/HIRT_support",
				"patcherrelativepath" : "../../../Documents/Max 8/Packages/HISSTools Impulse Response Toolbox (HIRT)/patchers/HIRT_support",
				"type" : "JSON",
				"implicit" : 1
			}
, 			{
				"name" : "hirt_convrvrb_rt_part1.gendsp",
				"bootpath" : "~/Documents/Max 8/Packages/HISSTools Impulse Response Toolbox (HIRT)/code",
				"patcherrelativepath" : "../../../Documents/Max 8/Packages/HISSTools Impulse Response Toolbox (HIRT)/code",
				"type" : "gDSP",
				"implicit" : 1
			}
, 			{
				"name" : "hirt_convolution_rt_library.genexpr",
				"bootpath" : "~/Documents/Max 8/Packages/HISSTools Impulse Response Toolbox (HIRT)/code",
				"patcherrelativepath" : "../../../Documents/Max 8/Packages/HISSTools Impulse Response Toolbox (HIRT)/code",
				"type" : "GenX",
				"implicit" : 1
			}
, 			{
				"name" : "hirt_eq_library.genexpr",
				"bootpath" : "~/Documents/Max 8/Packages/HISSTools Impulse Response Toolbox (HIRT)/code",
				"patcherrelativepath" : "../../../Documents/Max 8/Packages/HISSTools Impulse Response Toolbox (HIRT)/code",
				"type" : "GenX",
				"implicit" : 1
			}
, 			{
				"name" : "hirt_convrvrb_rt_part3.gendsp",
				"bootpath" : "~/Documents/Max 8/Packages/HISSTools Impulse Response Toolbox (HIRT)/code",
				"patcherrelativepath" : "../../../Documents/Max 8/Packages/HISSTools Impulse Response Toolbox (HIRT)/code",
				"type" : "gDSP",
				"implicit" : 1
			}
, 			{
				"name" : "hirt_convolution_rt_library.genexpr",
				"bootpath" : "~/Documents/Max 8/Packages/HISSTools Impulse Response Toolbox (HIRT)/code",
				"patcherrelativepath" : "../../../Documents/Max 8/Packages/HISSTools Impulse Response Toolbox (HIRT)/code",
				"type" : "GenX",
				"implicit" : 1
			}
, 			{
				"name" : "hirt_convrvrb_rt_part5.gendsp",
				"bootpath" : "~/Documents/Max 8/Packages/HISSTools Impulse Response Toolbox (HIRT)/code",
				"patcherrelativepath" : "../../../Documents/Max 8/Packages/HISSTools Impulse Response Toolbox (HIRT)/code",
				"type" : "gDSP",
				"implicit" : 1
			}
, 			{
				"name" : "hirt_convolution_rt_library.genexpr",
				"bootpath" : "~/Documents/Max 8/Packages/HISSTools Impulse Response Toolbox (HIRT)/code",
				"patcherrelativepath" : "../../../Documents/Max 8/Packages/HISSTools Impulse Response Toolbox (HIRT)/code",
				"type" : "GenX",
				"implicit" : 1
			}
, 			{
				"name" : "hirt_gain_params.maxpat",
				"bootpath" : "~/Documents/Max 8/Packages/HISSTools Impulse Response Toolbox (HIRT)/patchers/HIRT_reverb/HIRT_reverb_support",
				"patcherrelativepath" : "../../../Documents/Max 8/Packages/HISSTools Impulse Response Toolbox (HIRT)/patchers/HIRT_reverb/HIRT_reverb_support",
				"type" : "JSON",
				"implicit" : 1
			}
, 			{
				"name" : "hirt.svfcoeff.maxpat",
				"bootpath" : "~/Documents/Max 8/Packages/HISSTools Impulse Response Toolbox (HIRT)/patchers/HIRT_support",
				"patcherrelativepath" : "../../../Documents/Max 8/Packages/HISSTools Impulse Response Toolbox (HIRT)/patchers/HIRT_support",
				"type" : "JSON",
				"implicit" : 1
			}
, 			{
				"name" : "hirt_zoom_factor.js",
				"bootpath" : "~/Documents/Max 8/Packages/HISSTools Impulse Response Toolbox (HIRT)/javascript",
				"patcherrelativepath" : "../../../Documents/Max 8/Packages/HISSTools Impulse Response Toolbox (HIRT)/javascript",
				"type" : "TEXT",
				"implicit" : 1
			}
, 			{
				"name" : "hirt.damping.cascade.maxpat",
				"bootpath" : "~/Documents/Max 8/Packages/HISSTools Impulse Response Toolbox (HIRT)/patchers/HIRT_support",
				"patcherrelativepath" : "../../../Documents/Max 8/Packages/HISSTools Impulse Response Toolbox (HIRT)/patchers/HIRT_support",
				"type" : "JSON",
				"implicit" : 1
			}
, 			{
				"name" : "hirt.buffer.filter.maxpat",
				"bootpath" : "~/Documents/Max 8/Packages/HISSTools Impulse Response Toolbox (HIRT)/patchers/HIRT_support",
				"patcherrelativepath" : "../../../Documents/Max 8/Packages/HISSTools Impulse Response Toolbox (HIRT)/patchers/HIRT_support",
				"type" : "JSON",
				"implicit" : 1
			}
, 			{
				"name" : "hirt_partition_late.maxpat",
				"bootpath" : "~/Documents/Max 8/Packages/HISSTools Impulse Response Toolbox (HIRT)/patchers/HIRT_reverb/HIRT_reverb_support",
				"patcherrelativepath" : "../../../Documents/Max 8/Packages/HISSTools Impulse Response Toolbox (HIRT)/patchers/HIRT_reverb/HIRT_reverb_support",
				"type" : "JSON",
				"implicit" : 1
			}
, 			{
				"name" : "hirt_partition_fix_length.maxpat",
				"bootpath" : "~/Documents/Max 8/Packages/HISSTools Impulse Response Toolbox (HIRT)/patchers/HIRT_reverb/HIRT_reverb_support",
				"patcherrelativepath" : "../../../Documents/Max 8/Packages/HISSTools Impulse Response Toolbox (HIRT)/patchers/HIRT_reverb/HIRT_reverb_support",
				"type" : "JSON",
				"implicit" : 1
			}
, 			{
				"name" : "hirt_nan_fix.maxpat",
				"bootpath" : "~/Documents/Max 8/Packages/HISSTools Impulse Response Toolbox (HIRT)/patchers/HIRT_support",
				"patcherrelativepath" : "../../../Documents/Max 8/Packages/HISSTools Impulse Response Toolbox (HIRT)/patchers/HIRT_support",
				"type" : "JSON",
				"implicit" : 1
			}
, 			{
				"name" : "hirt_partition_early.maxpat",
				"bootpath" : "~/Documents/Max 8/Packages/HISSTools Impulse Response Toolbox (HIRT)/patchers/HIRT_reverb/HIRT_reverb_support",
				"patcherrelativepath" : "../../../Documents/Max 8/Packages/HISSTools Impulse Response Toolbox (HIRT)/patchers/HIRT_reverb/HIRT_reverb_support",
				"type" : "JSON",
				"implicit" : 1
			}
, 			{
				"name" : "hirt_partition_copy_buffers.maxpat",
				"bootpath" : "~/Documents/Max 8/Packages/HISSTools Impulse Response Toolbox (HIRT)/patchers/HIRT_reverb/HIRT_reverb_support",
				"patcherrelativepath" : "../../../Documents/Max 8/Packages/HISSTools Impulse Response Toolbox (HIRT)/patchers/HIRT_reverb/HIRT_reverb_support",
				"type" : "JSON",
				"implicit" : 1
			}
, 			{
				"name" : "hirt_gain_and_display.maxpat",
				"bootpath" : "~/Documents/Max 8/Packages/HISSTools Impulse Response Toolbox (HIRT)/patchers/HIRT_reverb/HIRT_reverb_support",
				"patcherrelativepath" : "../../../Documents/Max 8/Packages/HISSTools Impulse Response Toolbox (HIRT)/patchers/HIRT_reverb/HIRT_reverb_support",
				"type" : "JSON",
				"implicit" : 1
			}
, 			{
				"name" : "hirt.size.resample.maxpat",
				"bootpath" : "~/Documents/Max 8/Packages/HISSTools Impulse Response Toolbox (HIRT)/patchers/HIRT_support",
				"patcherrelativepath" : "../../../Documents/Max 8/Packages/HISSTools Impulse Response Toolbox (HIRT)/patchers/HIRT_support",
				"type" : "JSON",
				"implicit" : 1
			}
, 			{
				"name" : "hirt_size_resample_feed.maxpat",
				"bootpath" : "~/Documents/Max 8/Packages/HISSTools Impulse Response Toolbox (HIRT)/patchers/HIRT_reverb/HIRT_reverb_support",
				"patcherrelativepath" : "../../../Documents/Max 8/Packages/HISSTools Impulse Response Toolbox (HIRT)/patchers/HIRT_reverb/HIRT_reverb_support",
				"type" : "JSON",
				"implicit" : 1
			}
, 			{
				"name" : "spectrumdraw~.mxo",
				"type" : "iLaX"
			}
, 			{
				"name" : "iraverage~.mxo",
				"type" : "iLaX"
			}
, 			{
				"name" : "irdisplay~.mxo",
				"type" : "iLaX"
			}
, 			{
				"name" : "irtrimnorm~.mxo",
				"type" : "iLaX"
			}
, 			{
				"name" : "multiconvolve~.mxo",
				"type" : "iLaX"
			}
, 			{
				"name" : "morphfilter~.mxo",
				"type" : "iLaX"
			}
, 			{
				"name" : "irstats~.mxo",
				"type" : "iLaX"
			}
, 			{
				"name" : "irmix~.mxo",
				"type" : "iLaX"
			}
, 			{
				"name" : "ircropfade~.mxo",
				"type" : "iLaX"
			}
, 			{
				"name" : "bufreverse~.mxo",
				"type" : "iLaX"
			}
, 			{
				"name" : "bufresample~.mxo",
				"type" : "iLaX"
			}
, 			{
				"name" : "onecount.mxo",
				"type" : "iLaX"
			}
 ],
		"autosave" : 0
	}

}
