{
	"patcher" : 	{
		"fileversion" : 1,
		"appversion" : 		{
			"major" : 8,
			"minor" : 1,
			"revision" : 3,
			"architecture" : "x64",
			"modernui" : 1
		}
,
		"classnamespace" : "box",
		"rect" : [ 34.0, 79.0, 974.0, 787.0 ],
		"bglocked" : 0,
		"openinpresentation" : 0,
		"default_fontsize" : 12.0,
		"default_fontface" : 0,
		"default_fontname" : "Arial",
		"gridonopen" : 2,
		"gridsize" : [ 15.0, 15.0 ],
		"gridsnaponopen" : 2,
		"objectsnaponopen" : 1,
		"statusbarvisible" : 2,
		"toolbarvisible" : 1,
		"lefttoolbarpinned" : 0,
		"toptoolbarpinned" : 0,
		"righttoolbarpinned" : 0,
		"bottomtoolbarpinned" : 0,
		"toolbars_unpinned_last_save" : 0,
		"tallnewobj" : 0,
		"boxanimatetime" : 200,
		"enablehscroll" : 1,
		"enablevscroll" : 1,
		"devicewidth" : 0.0,
		"description" : "",
		"digest" : "",
		"tags" : "",
		"style" : "",
		"subpatcher_template" : "Default Max 7",
		"boxes" : [ 			{
				"box" : 				{
					"id" : "obj-20",
					"maxclass" : "message",
					"numinlets" : 2,
					"numoutlets" : 1,
					"outlettype" : [ "" ],
					"patching_rect" : [ 630.0, 240.0, 32.0, 22.0 ],
					"text" : "path"
				}

			}
, 			{
				"box" : 				{
					"id" : "obj-97",
					"maxclass" : "message",
					"numinlets" : 2,
					"numoutlets" : 1,
					"outlettype" : [ "" ],
					"patching_rect" : [ 810.0, 765.0, 41.0, 22.0 ],
					"text" : "set $1"
				}

			}
, 			{
				"box" : 				{
					"fontname" : "IBM Plex Mono",
					"fontsize" : 10.0,
					"id" : "obj-95",
					"maxclass" : "comment",
					"numinlets" : 1,
					"numoutlets" : 0,
					"patching_rect" : [ 810.0, 825.0, 323.0, 19.0 ],
					"presentation" : 1,
					"presentation_rect" : [ 33.5, 362.0, 323.0, 19.0 ],
					"text" : "X86Desc.a_corrected.wav"
				}

			}
, 			{
				"box" : 				{
					"fontname" : "IBM Plex Mono",
					"fontsize" : 12.0,
					"id" : "obj-93",
					"maxclass" : "live.text",
					"mode" : 0,
					"numinlets" : 1,
					"numoutlets" : 2,
					"outlettype" : [ "", "" ],
					"parameter_enable" : 1,
					"patching_rect" : [ 489.0, 224.0, 65.0, 36.0 ],
					"presentation" : 1,
					"presentation_rect" : [ 32.0, 282.0, 73.0, 71.0 ],
					"saved_attribute_attributes" : 					{
						"valueof" : 						{
							"parameter_enum" : [ "val1", "val2" ],
							"parameter_type" : 2,
							"parameter_longname" : "live.text[2]",
							"parameter_initial_enable" : 1,
							"parameter_mmax" : 1,
							"parameter_initial" : [ 0.0 ],
							"parameter_shortname" : "live.text[1]"
						}

					}
,
					"text" : "batch",
					"varname" : "live.text[2]"
				}

			}
, 			{
				"box" : 				{
					"id" : "obj-86",
					"maxclass" : "newobj",
					"numinlets" : 1,
					"numoutlets" : 2,
					"outlettype" : [ "bang", "" ],
					"patching_rect" : [ 1032.5, 694.0, 31.0, 22.0 ],
					"text" : "t b s"
				}

			}
, 			{
				"box" : 				{
					"id" : "obj-71",
					"linecount" : 2,
					"maxclass" : "newobj",
					"numinlets" : 2,
					"numoutlets" : 2,
					"outlettype" : [ "", "" ],
					"patching_rect" : [ 1032.5, 642.5, 110.5, 35.0 ],
					"text" : "combine verb_ s @triggers 1"
				}

			}
, 			{
				"box" : 				{
					"id" : "obj-61",
					"maxclass" : "newobj",
					"numinlets" : 1,
					"numoutlets" : 9,
					"outlettype" : [ "float", "list", "float", "float", "float", "float", "float", "", "int" ],
					"patching_rect" : [ 1050.5, 604.0, 103.0, 22.0 ],
					"text" : "info~ container"
				}

			}
, 			{
				"box" : 				{
					"id" : "obj-56",
					"maxclass" : "newobj",
					"numinlets" : 1,
					"numoutlets" : 2,
					"outlettype" : [ "bang", "int" ],
					"patching_rect" : [ 652.0, 780.0, 53.0, 22.0 ],
					"text" : "t b i"
				}

			}
, 			{
				"box" : 				{
					"id" : "obj-47",
					"maxclass" : "newobj",
					"numinlets" : 2,
					"numoutlets" : 1,
					"outlettype" : [ "int" ],
					"patching_rect" : [ 686.0, 825.0, 46.0, 22.0 ],
					"text" : "+ 2000"
				}

			}
, 			{
				"box" : 				{
					"id" : "obj-44",
					"maxclass" : "button",
					"numinlets" : 1,
					"numoutlets" : 1,
					"outlettype" : [ "bang" ],
					"parameter_enable" : 0,
					"patching_rect" : [ 615.0, 720.0, 24.0, 24.0 ]
				}

			}
, 			{
				"box" : 				{
					"id" : "obj-39",
					"maxclass" : "message",
					"numinlets" : 2,
					"numoutlets" : 1,
					"outlettype" : [ "" ],
					"patching_rect" : [ 600.0, 675.0, 35.0, 22.0 ],
					"text" : "clear"
				}

			}
, 			{
				"box" : 				{
					"id" : "obj-34",
					"linecount" : 3,
					"maxclass" : "message",
					"numinlets" : 2,
					"numoutlets" : 1,
					"outlettype" : [ "" ],
					"patching_rect" : [ 489.0, 450.0, 51.0, 49.0 ],
					"text" : "max 5, reset, bang"
				}

			}
, 			{
				"box" : 				{
					"id" : "obj-29",
					"maxclass" : "newobj",
					"numinlets" : 2,
					"numoutlets" : 1,
					"outlettype" : [ "int" ],
					"patching_rect" : [ 489.0, 542.0, 29.5, 22.0 ],
					"text" : "+ 1"
				}

			}
, 			{
				"box" : 				{
					"id" : "obj-28",
					"maxclass" : "newobj",
					"numinlets" : 1,
					"numoutlets" : 2,
					"outlettype" : [ "", "" ],
					"patching_rect" : [ 489.0, 512.0, 58.0, 22.0 ],
					"text" : "onecount"
				}

			}
, 			{
				"box" : 				{
					"id" : "obj-24",
					"maxclass" : "newobj",
					"numinlets" : 1,
					"numoutlets" : 1,
					"outlettype" : [ "" ],
					"patching_rect" : [ 489.0, 675.0, 95.0, 22.0 ],
					"text" : "prepend replace"
				}

			}
, 			{
				"box" : 				{
					"id" : "obj-72",
					"maxclass" : "newobj",
					"numinlets" : 1,
					"numoutlets" : 2,
					"outlettype" : [ "float", "bang" ],
					"patching_rect" : [ 489.0, 720.0, 119.0, 22.0 ],
					"text" : "buffer~ container 1 2"
				}

			}
, 			{
				"box" : 				{
					"id" : "obj-69",
					"maxclass" : "newobj",
					"numinlets" : 2,
					"numoutlets" : 2,
					"outlettype" : [ "", "" ],
					"patching_rect" : [ 489.0, 630.0, 47.0, 22.0 ],
					"text" : "zl nth 2"
				}

			}
, 			{
				"box" : 				{
					"id" : "obj-66",
					"maxclass" : "newobj",
					"numinlets" : 1,
					"numoutlets" : 2,
					"outlettype" : [ "bang", "dump" ],
					"patching_rect" : [ 489.0, 400.0, 81.0, 22.0 ],
					"text" : "t b dump"
				}

			}
, 			{
				"box" : 				{
					"id" : "obj-65",
					"maxclass" : "newobj",
					"numinlets" : 1,
					"numoutlets" : 4,
					"outlettype" : [ "", "", "", "" ],
					"patching_rect" : [ 489.0, 585.0, 81.0, 22.0 ],
					"saved_object_attributes" : 					{
						"embed" : 0,
						"precision" : 6
					}
,
					"text" : "coll input_coll"
				}

			}
, 			{
				"box" : 				{
					"id" : "obj-55",
					"maxclass" : "newobj",
					"numinlets" : 1,
					"numoutlets" : 2,
					"outlettype" : [ "bang", "path" ],
					"patching_rect" : [ 489.0, 270.0, 115.0, 22.0 ],
					"text" : "t b path"
				}

			}
, 			{
				"box" : 				{
					"id" : "obj-37",
					"maxclass" : "message",
					"numinlets" : 2,
					"numoutlets" : 1,
					"outlettype" : [ "" ],
					"patching_rect" : [ 585.0, 362.25, 95.0, 22.0 ],
					"text" : "types WAVE, $1"
				}

			}
, 			{
				"box" : 				{
					"id" : "obj-35",
					"maxclass" : "newobj",
					"numinlets" : 1,
					"numoutlets" : 2,
					"outlettype" : [ "", "int" ],
					"patching_rect" : [ 585.0, 400.0, 39.0, 22.0 ],
					"text" : "folder"
				}

			}
, 			{
				"box" : 				{
					"id" : "obj-19",
					"maxclass" : "newobj",
					"numinlets" : 1,
					"numoutlets" : 2,
					"outlettype" : [ "", "" ],
					"patching_rect" : [ 585.0, 310.0, 67.0, 22.0 ],
					"save" : [ "#N", "thispatcher", ";", "#Q", "end", ";" ],
					"text" : "thispatcher"
				}

			}
, 			{
				"box" : 				{
					"id" : "obj-17",
					"maxclass" : "newobj",
					"numinlets" : 1,
					"numoutlets" : 2,
					"outlettype" : [ "", "bang" ],
					"patching_rect" : [ 551.0, 512.0, 97.0, 22.0 ],
					"saved_object_attributes" : 					{
						"embed" : 0
					}
,
					"text" : "polybuffer~ input"
				}

			}
, 			{
				"box" : 				{
					"id" : "obj-12",
					"maxclass" : "newobj",
					"numinlets" : 2,
					"numoutlets" : 0,
					"patching_rect" : [ 15.25, 604.0, 55.0, 22.0 ],
					"text" : "dac~ 1 2"
				}

			}
, 			{
				"box" : 				{
					"id" : "obj-15",
					"linecount" : 2,
					"maxclass" : "message",
					"numinlets" : 2,
					"numoutlets" : 1,
					"outlettype" : [ "" ],
					"patching_rect" : [ 1044.5, 739.0, 120.0, 35.0 ],
					"text" : "samptype float32, writewave $1"
				}

			}
, 			{
				"box" : 				{
					"id" : "obj-6",
					"maxclass" : "message",
					"numinlets" : 2,
					"numoutlets" : 1,
					"outlettype" : [ "" ],
					"patching_rect" : [ 686.0, 855.0, 57.0, 22.0 ],
					"text" : "size $1 2"
				}

			}
, 			{
				"box" : 				{
					"id" : "obj-1",
					"maxclass" : "newobj",
					"numinlets" : 1,
					"numoutlets" : 9,
					"outlettype" : [ "float", "list", "float", "float", "float", "float", "float", "", "int" ],
					"patching_rect" : [ 589.0, 752.0, 103.0, 22.0 ],
					"text" : "info~ container"
				}

			}
, 			{
				"box" : 				{
					"id" : "obj-50",
					"maxclass" : "newobj",
					"numinlets" : 1,
					"numoutlets" : 1,
					"outlettype" : [ "" ],
					"patching_rect" : [ 810.0, 304.0, 89.0, 22.0 ],
					"text" : "loadmess set 0"
				}

			}
, 			{
				"box" : 				{
					"id" : "obj-49",
					"maxclass" : "newobj",
					"numinlets" : 1,
					"numoutlets" : 1,
					"outlettype" : [ "" ],
					"patching_rect" : [ 1124.0, 525.0, 72.0, 22.0 ],
					"text" : "prepend set"
				}

			}
, 			{
				"box" : 				{
					"activebgcolor" : [ 0.647058823529412, 0.647058823529412, 0.647058823529412, 1.0 ],
					"activebgoncolor" : [ 0.498039215686275, 0.996078431372549, 0.419607843137255, 1.0 ],
					"fontface" : 1,
					"fontname" : "IBM Plex Mono",
					"fontsize" : 12.0,
					"id" : "obj-38",
					"maxclass" : "live.text",
					"numinlets" : 1,
					"numoutlets" : 2,
					"outlettype" : [ "", "" ],
					"parameter_enable" : 1,
					"patching_rect" : [ 810.0, 349.0, 81.0, 30.0 ],
					"presentation" : 1,
					"presentation_rect" : [ 28.0, 240.0, 81.0, 30.0 ],
					"saved_attribute_attributes" : 					{
						"valueof" : 						{
							"parameter_enum" : [ "val1", "val2" ],
							"parameter_type" : 2,
							"parameter_longname" : "live.text[10]",
							"parameter_mmax" : 1,
							"parameter_shortname" : "live.text"
						}

					}
,
					"text" : "process",
					"texton" : "processing...",
					"varname" : "live.text[7]"
				}

			}
, 			{
				"box" : 				{
					"id" : "obj-33",
					"maxclass" : "newobj",
					"numinlets" : 1,
					"numoutlets" : 2,
					"outlettype" : [ "int", "int" ],
					"patching_rect" : [ 810.0, 392.5, 32.0, 22.0 ],
					"text" : "t 1 1"
				}

			}
, 			{
				"box" : 				{
					"buffername" : "container",
					"gridcolor" : [ 0.349019607843137, 0.349019607843137, 0.349019607843137, 0.0 ],
					"id" : "obj-23",
					"maxclass" : "waveform~",
					"numinlets" : 5,
					"numoutlets" : 6,
					"outlettype" : [ "float", "float", "float", "float", "list", "" ],
					"patching_rect" : [ 15.0, 660.0, 256.0, 64.0 ],
					"presentation" : 1,
					"presentation_rect" : [ 120.0, 278.0, 240.0, 30.0 ]
				}

			}
, 			{
				"box" : 				{
					"id" : "obj-18",
					"maxclass" : "newobj",
					"numinlets" : 1,
					"numoutlets" : 2,
					"outlettype" : [ "float", "bang" ],
					"patching_rect" : [ 686.0, 900.0, 76.0, 22.0 ],
					"text" : "buffer~ out 1"
				}

			}
, 			{
				"box" : 				{
					"ghostbar" : 100,
					"id" : "obj-166",
					"maxclass" : "multislider",
					"numinlets" : 1,
					"numoutlets" : 2,
					"orientation" : 0,
					"outlettype" : [ "", "" ],
					"parameter_enable" : 0,
					"patching_rect" : [ 810.0, 694.0, 135.0, 30.0 ],
					"presentation" : 1,
					"presentation_rect" : [ 28.0, 383.0, 330.25, 8.0 ],
					"setminmax" : [ 0.0, 1.0 ],
					"slidercolor" : [ 0.705882352941177, 0.486274509803922, 0.901960784313726, 1.0 ]
				}

			}
, 			{
				"box" : 				{
					"id" : "obj-163",
					"maxclass" : "newobj",
					"numinlets" : 2,
					"numoutlets" : 1,
					"outlettype" : [ "float" ],
					"patching_rect" : [ 810.0, 649.0, 81.0, 22.0 ],
					"text" : "snapshot~ 50"
				}

			}
, 			{
				"box" : 				{
					"id" : "obj-130",
					"maxclass" : "newobj",
					"numinlets" : 2,
					"numoutlets" : 2,
					"outlettype" : [ "", "" ],
					"patching_rect" : [ 188.5, 60.0, 71.0, 22.0 ],
					"text" : "route config"
				}

			}
, 			{
				"box" : 				{
					"color" : [ 0.756862745098039, 0.517647058823529, 0.517647058823529, 1.0 ],
					"id" : "obj-128",
					"maxclass" : "newobj",
					"numinlets" : 0,
					"numoutlets" : 1,
					"outlettype" : [ "" ],
					"patching_rect" : [ 188.5, 25.400000000000006, 90.0, 22.0 ],
					"text" : "r cverb.settings"
				}

			}
, 			{
				"box" : 				{
					"color" : [ 0.901960784313726, 0.890196078431372, 0.486274509803922, 1.0 ],
					"id" : "obj-83",
					"maxclass" : "newobj",
					"numinlets" : 1,
					"numoutlets" : 1,
					"outlettype" : [ "signal" ],
					"patching_rect" : [ 932.0, 531.0, 117.0, 22.0 ],
					"text" : "receive~ cverb.out.2"
				}

			}
, 			{
				"box" : 				{
					"color" : [ 0.901960784313726, 0.890196078431372, 0.486274509803922, 1.0 ],
					"id" : "obj-85",
					"maxclass" : "newobj",
					"numinlets" : 1,
					"numoutlets" : 1,
					"outlettype" : [ "signal" ],
					"patching_rect" : [ 810.0, 531.0, 117.0, 22.0 ],
					"text" : "receive~ cverb.out.1"
				}

			}
, 			{
				"box" : 				{
					"color" : [ 0.901960784313726, 0.890196078431372, 0.486274509803922, 1.0 ],
					"id" : "obj-78",
					"maxclass" : "newobj",
					"numinlets" : 2,
					"numoutlets" : 0,
					"patcher" : 					{
						"fileversion" : 1,
						"appversion" : 						{
							"major" : 8,
							"minor" : 1,
							"revision" : 3,
							"architecture" : "x64",
							"modernui" : 1
						}
,
						"classnamespace" : "box",
						"rect" : [ 59.0, 104.0, 640.0, 480.0 ],
						"bglocked" : 0,
						"openinpresentation" : 0,
						"default_fontsize" : 12.0,
						"default_fontface" : 0,
						"default_fontname" : "Arial",
						"gridonopen" : 1,
						"gridsize" : [ 15.0, 15.0 ],
						"gridsnaponopen" : 1,
						"objectsnaponopen" : 1,
						"statusbarvisible" : 2,
						"toolbarvisible" : 1,
						"lefttoolbarpinned" : 0,
						"toptoolbarpinned" : 0,
						"righttoolbarpinned" : 0,
						"bottomtoolbarpinned" : 0,
						"toolbars_unpinned_last_save" : 0,
						"tallnewobj" : 0,
						"boxanimatetime" : 200,
						"enablehscroll" : 1,
						"enablevscroll" : 1,
						"devicewidth" : 0.0,
						"description" : "",
						"digest" : "",
						"tags" : "",
						"style" : "",
						"subpatcher_template" : "",
						"boxes" : [ 							{
								"box" : 								{
									"comment" : "",
									"id" : "obj-2",
									"index" : 2,
									"maxclass" : "inlet",
									"numinlets" : 0,
									"numoutlets" : 1,
									"outlettype" : [ "signal" ],
									"patching_rect" : [ 170.0, 57.0, 30.0, 30.0 ]
								}

							}
, 							{
								"box" : 								{
									"comment" : "",
									"id" : "obj-1",
									"index" : 1,
									"maxclass" : "inlet",
									"numinlets" : 0,
									"numoutlets" : 1,
									"outlettype" : [ "signal" ],
									"patching_rect" : [ 50.0, 57.0, 30.0, 30.0 ]
								}

							}
, 							{
								"box" : 								{
									"id" : "obj-74",
									"maxclass" : "newobj",
									"numinlets" : 1,
									"numoutlets" : 0,
									"patching_rect" : [ 170.0, 100.0, 104.0, 22.0 ],
									"text" : "send~ cverb.out.2"
								}

							}
, 							{
								"box" : 								{
									"id" : "obj-73",
									"maxclass" : "newobj",
									"numinlets" : 1,
									"numoutlets" : 0,
									"patching_rect" : [ 50.0, 100.0, 104.0, 22.0 ],
									"text" : "send~ cverb.out.1"
								}

							}
 ],
						"lines" : [ 							{
								"patchline" : 								{
									"destination" : [ "obj-73", 0 ],
									"source" : [ "obj-1", 0 ]
								}

							}
, 							{
								"patchline" : 								{
									"destination" : [ "obj-74", 0 ],
									"source" : [ "obj-2", 0 ]
								}

							}
 ]
					}
,
					"patching_rect" : [ 188.5, 538.5, 98.0, 22.0 ],
					"saved_object_attributes" : 					{
						"description" : "",
						"digest" : "",
						"globalpatchername" : "",
						"tags" : ""
					}
,
					"text" : "p internal_output"
				}

			}
, 			{
				"box" : 				{
					"color" : [ 0.901960784313726, 0.890196078431372, 0.486274509803922, 1.0 ],
					"id" : "obj-77",
					"maxclass" : "newobj",
					"numinlets" : 0,
					"numoutlets" : 2,
					"outlettype" : [ "signal", "signal" ],
					"patcher" : 					{
						"fileversion" : 1,
						"appversion" : 						{
							"major" : 8,
							"minor" : 1,
							"revision" : 3,
							"architecture" : "x64",
							"modernui" : 1
						}
,
						"classnamespace" : "box",
						"rect" : [ 59.0, 81.0, 640.0, 480.0 ],
						"bglocked" : 0,
						"openinpresentation" : 0,
						"default_fontsize" : 12.0,
						"default_fontface" : 0,
						"default_fontname" : "Arial",
						"gridonopen" : 1,
						"gridsize" : [ 15.0, 15.0 ],
						"gridsnaponopen" : 1,
						"objectsnaponopen" : 1,
						"statusbarvisible" : 2,
						"toolbarvisible" : 1,
						"lefttoolbarpinned" : 0,
						"toptoolbarpinned" : 0,
						"righttoolbarpinned" : 0,
						"bottomtoolbarpinned" : 0,
						"toolbars_unpinned_last_save" : 0,
						"tallnewobj" : 0,
						"boxanimatetime" : 200,
						"enablehscroll" : 1,
						"enablevscroll" : 1,
						"devicewidth" : 0.0,
						"description" : "",
						"digest" : "",
						"tags" : "",
						"style" : "",
						"subpatcher_template" : "",
						"boxes" : [ 							{
								"box" : 								{
									"id" : "obj-74",
									"maxclass" : "newobj",
									"numinlets" : 1,
									"numoutlets" : 1,
									"outlettype" : [ "signal" ],
									"patching_rect" : [ 170.0, 100.0, 110.0, 22.0 ],
									"text" : "receive~ cverb.in.2"
								}

							}
, 							{
								"box" : 								{
									"id" : "obj-73",
									"maxclass" : "newobj",
									"numinlets" : 1,
									"numoutlets" : 1,
									"outlettype" : [ "signal" ],
									"patching_rect" : [ 50.0, 100.0, 110.0, 22.0 ],
									"text" : "receive~ cverb.in.1"
								}

							}
, 							{
								"box" : 								{
									"comment" : "",
									"id" : "obj-75",
									"index" : 1,
									"maxclass" : "outlet",
									"numinlets" : 1,
									"numoutlets" : 0,
									"patching_rect" : [ 50.0, 182.0, 30.0, 30.0 ]
								}

							}
, 							{
								"box" : 								{
									"comment" : "",
									"id" : "obj-76",
									"index" : 2,
									"maxclass" : "outlet",
									"numinlets" : 1,
									"numoutlets" : 0,
									"patching_rect" : [ 170.0, 182.0, 30.0, 30.0 ]
								}

							}
 ],
						"lines" : [ 							{
								"patchline" : 								{
									"destination" : [ "obj-75", 0 ],
									"source" : [ "obj-73", 0 ]
								}

							}
, 							{
								"patchline" : 								{
									"destination" : [ "obj-76", 0 ],
									"source" : [ "obj-74", 0 ]
								}

							}
 ]
					}
,
					"patching_rect" : [ 15.0, 300.0, 130.0, 22.0 ],
					"saved_object_attributes" : 					{
						"description" : "",
						"digest" : "",
						"globalpatchername" : "",
						"tags" : ""
					}
,
					"text" : "p internal_input"
				}

			}
, 			{
				"box" : 				{
					"id" : "obj-62",
					"maxclass" : "newobj",
					"numinlets" : 4,
					"numoutlets" : 1,
					"outlettype" : [ "signal" ],
					"patching_rect" : [ 810.0, 604.0, 80.0, 22.0 ],
					"text" : "record~ out 2"
				}

			}
, 			{
				"box" : 				{
					"fontname" : "IBM Plex Mono",
					"fontsize" : 20.519733870252349,
					"id" : "obj-14",
					"linecount" : 2,
					"maxclass" : "comment",
					"numinlets" : 1,
					"numoutlets" : 0,
					"patching_rect" : [ 555.0, 48.0, 135.0, 60.0 ],
					"presentation" : 1,
					"presentation_linecount" : 2,
					"presentation_rect" : [ 120.0, 210.0, 175.5, 60.0 ],
					"text" : "Offline Processing",
					"textjustification" : 1
				}

			}
, 			{
				"box" : 				{
					"id" : "obj-43",
					"maxclass" : "newobj",
					"numinlets" : 1,
					"numoutlets" : 1,
					"outlettype" : [ "open" ],
					"patching_rect" : [ 221.0, 300.0, 42.0, 22.0 ],
					"text" : "t open"
				}

			}
, 			{
				"box" : 				{
					"display_range" : [ -70.0, 12.0 ],
					"fontname" : "IBM Plex Mono",
					"id" : "obj-13",
					"lastchannelcount" : 0,
					"maxclass" : "live.gain~",
					"numinlets" : 2,
					"numoutlets" : 5,
					"orientation" : 1,
					"outlettype" : [ "signal", "signal", "", "float", "list" ],
					"parameter_enable" : 1,
					"patching_rect" : [ 15.0, 538.5, 164.0, 49.0 ],
					"presentation" : 1,
					"presentation_rect" : [ 120.0, 100.0, 127.0, 49.0 ],
					"saved_attribute_attributes" : 					{
						"valueof" : 						{
							"parameter_type" : 0,
							"parameter_unitstyle" : 4,
							"parameter_mmin" : -70.0,
							"parameter_longname" : "live.gain~",
							"parameter_mmax" : 12.0,
							"parameter_shortname" : "Master"
						}

					}
,
					"varname" : "live.gain~"
				}

			}
, 			{
				"box" : 				{
					"id" : "obj-87",
					"maxclass" : "newobj",
					"numinlets" : 1,
					"numoutlets" : 1,
					"outlettype" : [ "" ],
					"patching_rect" : [ 126.0, 436.5, 72.0, 22.0 ],
					"text" : "prepend set"
				}

			}
, 			{
				"box" : 				{
					"id" : "obj-84",
					"maxclass" : "newobj",
					"numinlets" : 2,
					"numoutlets" : 2,
					"outlettype" : [ "", "" ],
					"patching_rect" : [ 126.0, 405.0, 118.0, 22.0 ],
					"text" : "route \"Bypass State\""
				}

			}
, 			{
				"box" : 				{
					"fontname" : "IBM Plex Mono",
					"fontsize" : 12.0,
					"id" : "obj-48",
					"maxclass" : "live.text",
					"mode" : 0,
					"numinlets" : 1,
					"numoutlets" : 2,
					"outlettype" : [ "", "" ],
					"parameter_enable" : 1,
					"patching_rect" : [ 221.0, 255.0, 94.0, 30.0 ],
					"presentation" : 1,
					"presentation_rect" : [ 249.0, 158.0, 111.0, 30.0 ],
					"saved_attribute_attributes" : 					{
						"valueof" : 						{
							"parameter_enum" : [ "val1", "val2" ],
							"parameter_type" : 2,
							"parameter_longname" : "live.text[3]",
							"parameter_mmax" : 1,
							"parameter_shortname" : "live.text[1]"
						}

					}
,
					"text" : "open reverb",
					"varname" : "live.text[3]"
				}

			}
, 			{
				"box" : 				{
					"id" : "obj-45",
					"maxclass" : "newobj",
					"numinlets" : 4,
					"numoutlets" : 1,
					"outlettype" : [ "" ],
					"patcher" : 					{
						"fileversion" : 1,
						"appversion" : 						{
							"major" : 8,
							"minor" : 1,
							"revision" : 3,
							"architecture" : "x64",
							"modernui" : 1
						}
,
						"classnamespace" : "box",
						"rect" : [ 59.0, 104.0, 559.0, 228.0 ],
						"bglocked" : 0,
						"openinpresentation" : 0,
						"default_fontsize" : 12.0,
						"default_fontface" : 0,
						"default_fontname" : "Arial",
						"gridonopen" : 1,
						"gridsize" : [ 15.0, 15.0 ],
						"gridsnaponopen" : 1,
						"objectsnaponopen" : 1,
						"statusbarvisible" : 2,
						"toolbarvisible" : 1,
						"lefttoolbarpinned" : 0,
						"toptoolbarpinned" : 0,
						"righttoolbarpinned" : 0,
						"bottomtoolbarpinned" : 0,
						"toolbars_unpinned_last_save" : 0,
						"tallnewobj" : 0,
						"boxanimatetime" : 200,
						"enablehscroll" : 1,
						"enablevscroll" : 1,
						"devicewidth" : 0.0,
						"description" : "",
						"digest" : "",
						"tags" : "",
						"style" : "",
						"subpatcher_template" : "",
						"boxes" : [ 							{
								"box" : 								{
									"id" : "obj-2",
									"maxclass" : "newobj",
									"numinlets" : 1,
									"numoutlets" : 1,
									"outlettype" : [ "bang" ],
									"patching_rect" : [ 309.0, 11.0, 58.0, 22.0 ],
									"text" : "loadbang"
								}

							}
, 							{
								"box" : 								{
									"id" : "obj-30",
									"maxclass" : "newobj",
									"numinlets" : 1,
									"numoutlets" : 1,
									"outlettype" : [ "" ],
									"patching_rect" : [ 98.0, 71.0, 85.0, 22.0 ],
									"text" : "prepend recall"
								}

							}
, 							{
								"box" : 								{
									"id" : "obj-27",
									"maxclass" : "newobj",
									"numinlets" : 1,
									"numoutlets" : 1,
									"outlettype" : [ "" ],
									"patching_rect" : [ 13.0, 71.0, 83.0, 22.0 ],
									"text" : "prepend store"
								}

							}
, 							{
								"box" : 								{
									"id" : "obj-8",
									"maxclass" : "message",
									"numinlets" : 2,
									"numoutlets" : 1,
									"outlettype" : [ "" ],
									"patching_rect" : [ 484.0, 71.0, 63.0, 22.0 ],
									"text" : "bypass $1"
								}

							}
, 							{
								"box" : 								{
									"id" : "obj-6",
									"linecount" : 2,
									"maxclass" : "message",
									"numinlets" : 2,
									"numoutlets" : 1,
									"outlettype" : [ "" ],
									"patching_rect" : [ 309.0, 71.0, 166.0, 36.0 ],
									"text" : "savemode 2, read reverb_settings.json, recall 1"
								}

							}
, 							{
								"box" : 								{
									"id" : "obj-9",
									"linecount" : 3,
									"maxclass" : "message",
									"numinlets" : 2,
									"numoutlets" : 1,
									"outlettype" : [ "" ],
									"patching_rect" : [ 193.0, 71.0, 114.0, 50.0 ],
									"text" : "savemode 2, write reverb_settings.json"
								}

							}
, 							{
								"box" : 								{
									"comment" : "",
									"id" : "obj-38",
									"index" : 1,
									"maxclass" : "inlet",
									"numinlets" : 0,
									"numoutlets" : 1,
									"outlettype" : [ "" ],
									"patching_rect" : [ 13.0, 11.0, 30.0, 30.0 ]
								}

							}
, 							{
								"box" : 								{
									"comment" : "",
									"id" : "obj-39",
									"index" : 2,
									"maxclass" : "inlet",
									"numinlets" : 0,
									"numoutlets" : 1,
									"outlettype" : [ "" ],
									"patching_rect" : [ 98.0, 11.0, 30.0, 30.0 ]
								}

							}
, 							{
								"box" : 								{
									"comment" : "",
									"id" : "obj-40",
									"index" : 3,
									"maxclass" : "inlet",
									"numinlets" : 0,
									"numoutlets" : 1,
									"outlettype" : [ "" ],
									"patching_rect" : [ 193.0, 11.0, 30.0, 30.0 ]
								}

							}
, 							{
								"box" : 								{
									"comment" : "",
									"id" : "obj-42",
									"index" : 4,
									"maxclass" : "inlet",
									"numinlets" : 0,
									"numoutlets" : 1,
									"outlettype" : [ "" ],
									"patching_rect" : [ 484.0, 11.0, 30.0, 30.0 ]
								}

							}
, 							{
								"box" : 								{
									"comment" : "",
									"id" : "obj-43",
									"index" : 1,
									"maxclass" : "outlet",
									"numinlets" : 1,
									"numoutlets" : 0,
									"patching_rect" : [ 13.0, 185.0, 30.0, 30.0 ]
								}

							}
 ],
						"lines" : [ 							{
								"patchline" : 								{
									"destination" : [ "obj-6", 0 ],
									"source" : [ "obj-2", 0 ]
								}

							}
, 							{
								"patchline" : 								{
									"destination" : [ "obj-43", 0 ],
									"source" : [ "obj-27", 0 ]
								}

							}
, 							{
								"patchline" : 								{
									"destination" : [ "obj-43", 0 ],
									"source" : [ "obj-30", 0 ]
								}

							}
, 							{
								"patchline" : 								{
									"destination" : [ "obj-27", 0 ],
									"source" : [ "obj-38", 0 ]
								}

							}
, 							{
								"patchline" : 								{
									"destination" : [ "obj-30", 0 ],
									"source" : [ "obj-39", 0 ]
								}

							}
, 							{
								"patchline" : 								{
									"destination" : [ "obj-9", 0 ],
									"source" : [ "obj-40", 0 ]
								}

							}
, 							{
								"patchline" : 								{
									"destination" : [ "obj-8", 0 ],
									"source" : [ "obj-42", 0 ]
								}

							}
, 							{
								"patchline" : 								{
									"destination" : [ "obj-43", 0 ],
									"source" : [ "obj-6", 0 ]
								}

							}
, 							{
								"patchline" : 								{
									"destination" : [ "obj-43", 0 ],
									"source" : [ "obj-8", 0 ]
								}

							}
, 							{
								"patchline" : 								{
									"destination" : [ "obj-43", 0 ],
									"source" : [ "obj-9", 0 ]
								}

							}
 ]
					}
,
					"patching_rect" : [ 158.0, 224.0, 139.0, 22.0 ],
					"saved_object_attributes" : 					{
						"description" : "",
						"digest" : "",
						"globalpatchername" : "",
						"tags" : ""
					}
,
					"text" : "p controls"
				}

			}
, 			{
				"box" : 				{
					"fontname" : "IBM Plex Mono",
					"fontsize" : 12.0,
					"id" : "obj-32",
					"maxclass" : "live.text",
					"mode" : 0,
					"numinlets" : 1,
					"numoutlets" : 2,
					"outlettype" : [ "", "" ],
					"parameter_enable" : 1,
					"patching_rect" : [ 240.0, 131.0, 65.0, 36.0 ],
					"presentation" : 1,
					"presentation_rect" : [ 30.0, 166.0, 73.0, 22.0 ],
					"saved_attribute_attributes" : 					{
						"valueof" : 						{
							"parameter_enum" : [ "val1", "val2" ],
							"parameter_type" : 2,
							"parameter_longname" : "live.text[1]",
							"parameter_mmax" : 1,
							"parameter_shortname" : "live.text[1]"
						}

					}
,
					"text" : "write",
					"varname" : "live.text[1]"
				}

			}
, 			{
				"box" : 				{
					"activebgoncolor" : [ 0.337254901960784, 0.607843137254902, 0.341176470588235, 1.0 ],
					"fontname" : "IBM Plex Mono",
					"id" : "obj-31",
					"maxclass" : "live.tab",
					"num_lines_patching" : 5,
					"num_lines_presentation" : 5,
					"numinlets" : 1,
					"numoutlets" : 3,
					"outlettype" : [ "", "", "float" ],
					"parameter_enable" : 1,
					"patching_rect" : [ 188.5, 107.5, 38.0, 83.0 ],
					"presentation" : 1,
					"presentation_rect" : [ 67.0, 81.0, 38.0, 83.0 ],
					"saved_attribute_attributes" : 					{
						"valueof" : 						{
							"parameter_enum" : [ "1", "2", "3", "4", "5" ],
							"parameter_type" : 2,
							"parameter_unitstyle" : 0,
							"parameter_longname" : "live.tab[1]",
							"parameter_mmax" : 4,
							"parameter_shortname" : "live.tab"
						}

					}
,
					"varname" : "live.tab[1]"
				}

			}
, 			{
				"box" : 				{
					"activebgoncolor" : [ 0.996078431372549, 0.192156862745098, 0.192156862745098, 1.0 ],
					"fontname" : "IBM Plex Mono",
					"id" : "obj-26",
					"maxclass" : "live.tab",
					"num_lines_patching" : 5,
					"num_lines_presentation" : 5,
					"numinlets" : 1,
					"numoutlets" : 3,
					"outlettype" : [ "", "", "float" ],
					"parameter_enable" : 1,
					"patching_rect" : [ 148.5, 107.5, 38.0, 83.0 ],
					"presentation" : 1,
					"presentation_rect" : [ 30.0, 81.0, 38.0, 83.0 ],
					"saved_attribute_attributes" : 					{
						"valueof" : 						{
							"parameter_enum" : [ "1", "2", "3", "4", "5" ],
							"parameter_type" : 2,
							"parameter_unitstyle" : 0,
							"parameter_longname" : "live.tab",
							"parameter_mmax" : 4,
							"parameter_shortname" : "live.tab"
						}

					}
,
					"varname" : "live.tab"
				}

			}
, 			{
				"box" : 				{
					"id" : "obj-10",
					"maxclass" : "newobj",
					"numinlets" : 1,
					"numoutlets" : 1,
					"outlettype" : [ "" ],
					"patching_rect" : [ 315.0, 98.0, 73.0, 22.0 ],
					"text" : "loadmess 0"
				}

			}
, 			{
				"box" : 				{
					"activebgoncolor" : [ 0.203921568627451, 0.752941176470588, 0.784313725490196, 1.0 ],
					"fontface" : 1,
					"fontname" : "IBM Plex Mono",
					"fontsize" : 12.0,
					"id" : "obj-7",
					"maxclass" : "live.text",
					"numinlets" : 1,
					"numoutlets" : 2,
					"outlettype" : [ "", "" ],
					"parameter_enable" : 1,
					"patching_rect" : [ 315.0, 134.0, 81.0, 30.0 ],
					"presentation" : 1,
					"presentation_rect" : [ 120.0, 158.0, 105.0, 30.0 ],
					"saved_attribute_attributes" : 					{
						"valueof" : 						{
							"parameter_enum" : [ "val1", "val2" ],
							"parameter_type" : 2,
							"parameter_longname" : "live.text",
							"parameter_mmax" : 1,
							"parameter_shortname" : "live.text"
						}

					}
,
					"text" : "Bypass",
					"texton" : "Bypass",
					"varname" : "live.text"
				}

			}
, 			{
				"box" : 				{
					"fontname" : "IBM Plex Mono",
					"fontsize" : 20.519733870252349,
					"id" : "obj-11",
					"maxclass" : "comment",
					"numinlets" : 1,
					"numoutlets" : 0,
					"patching_rect" : [ 15.0, 14.4, 136.0, 33.0 ],
					"presentation" : 1,
					"presentation_rect" : [ 137.5, 25.0, 115.0, 33.0 ],
					"text" : "CVerb",
					"textjustification" : 1
				}

			}
, 			{
				"box" : 				{
					"id" : "obj-4",
					"maxclass" : "newobj",
					"numinlets" : 2,
					"numoutlets" : 3,
					"outlettype" : [ "signal", "signal", "" ],
					"patching_rect" : [ 15.0, 373.5, 130.0, 22.0 ],
					"text" : "hirt.convolutionreverb~",
					"varname" : "hirt.convolutionreverb~"
				}

			}
, 			{
				"box" : 				{
					"id" : "obj-64",
					"maxclass" : "newobj",
					"numinlets" : 1,
					"numoutlets" : 3,
					"outlettype" : [ "bang", "int", "int" ],
					"patching_rect" : [ 1050.5, 487.0, 92.5, 22.0 ],
					"text" : "t b 0 0"
				}

			}
, 			{
				"box" : 				{
					"color" : [ 0.901960784313726, 0.890196078431372, 0.486274509803922, 1.0 ],
					"id" : "obj-82",
					"maxclass" : "newobj",
					"numinlets" : 1,
					"numoutlets" : 0,
					"patching_rect" : [ 932.0, 487.0, 97.0, 22.0 ],
					"text" : "send~ cverb.in.2"
				}

			}
, 			{
				"box" : 				{
					"buffername" : "out",
					"gridcolor" : [ 0.349019607843137, 0.349019607843137, 0.349019607843137, 0.0 ],
					"id" : "obj-173",
					"maxclass" : "waveform~",
					"numinlets" : 5,
					"numoutlets" : 6,
					"outlettype" : [ "float", "float", "float", "float", "list", "" ],
					"patching_rect" : [ 15.0, 731.0, 256.0, 64.0 ],
					"presentation" : 1,
					"presentation_rect" : [ 120.0, 323.0, 240.0, 30.0 ]
				}

			}
, 			{
				"box" : 				{
					"color" : [ 0.901960784313726, 0.890196078431372, 0.486274509803922, 1.0 ],
					"id" : "obj-81",
					"maxclass" : "newobj",
					"numinlets" : 1,
					"numoutlets" : 0,
					"patching_rect" : [ 810.0, 487.0, 97.0, 22.0 ],
					"text" : "send~ cverb.in.1"
				}

			}
, 			{
				"box" : 				{
					"id" : "obj-58",
					"maxclass" : "newobj",
					"numinlets" : 1,
					"numoutlets" : 3,
					"outlettype" : [ "signal", "signal", "bang" ],
					"patching_rect" : [ 810.0, 441.0, 259.5, 22.0 ],
					"text" : "play~ container 2"
				}

			}
, 			{
				"box" : 				{
					"angle" : 270.0,
					"background" : 1,
					"bgcolor" : [ 0.2, 0.2, 0.2, 0.0 ],
					"border" : 2,
					"bordercolor" : [ 0.529411764705882, 0.564705882352941, 0.568627450980392, 1.0 ],
					"id" : "obj-2",
					"maxclass" : "panel",
					"mode" : 0,
					"numinlets" : 1,
					"numoutlets" : 0,
					"patching_rect" : [ 558.5, 45.0, 128.0, 128.0 ],
					"presentation" : 1,
					"presentation_rect" : [ 15.0, 15.0, 360.0, 394.0 ],
					"proportion" : 0.5
				}

			}
 ],
		"lines" : [ 			{
				"patchline" : 				{
					"destination" : [ "obj-56", 0 ],
					"source" : [ "obj-1", 6 ]
				}

			}
, 			{
				"patchline" : 				{
					"destination" : [ "obj-97", 0 ],
					"source" : [ "obj-1", 7 ]
				}

			}
, 			{
				"patchline" : 				{
					"destination" : [ "obj-7", 0 ],
					"source" : [ "obj-10", 0 ]
				}

			}
, 			{
				"patchline" : 				{
					"destination" : [ "obj-130", 0 ],
					"source" : [ "obj-128", 0 ]
				}

			}
, 			{
				"patchline" : 				{
					"destination" : [ "obj-12", 1 ],
					"source" : [ "obj-13", 1 ]
				}

			}
, 			{
				"patchline" : 				{
					"destination" : [ "obj-12", 0 ],
					"source" : [ "obj-13", 0 ]
				}

			}
, 			{
				"patchline" : 				{
					"destination" : [ "obj-31", 0 ],
					"source" : [ "obj-130", 0 ]
				}

			}
, 			{
				"patchline" : 				{
					"destination" : [ "obj-18", 0 ],
					"midpoints" : [ 1054.0, 885.0, 695.5, 885.0 ],
					"source" : [ "obj-15", 0 ]
				}

			}
, 			{
				"patchline" : 				{
					"destination" : [ "obj-166", 0 ],
					"source" : [ "obj-163", 0 ]
				}

			}
, 			{
				"patchline" : 				{
					"destination" : [ "obj-65", 0 ],
					"midpoints" : [ 560.5, 570.0, 498.5, 570.0 ],
					"source" : [ "obj-17", 0 ]
				}

			}
, 			{
				"patchline" : 				{
					"destination" : [ "obj-37", 0 ],
					"midpoints" : [ 642.5, 347.25, 594.5, 347.25 ],
					"source" : [ "obj-19", 1 ]
				}

			}
, 			{
				"patchline" : 				{
					"destination" : [ "obj-19", 0 ],
					"source" : [ "obj-20", 0 ]
				}

			}
, 			{
				"patchline" : 				{
					"destination" : [ "obj-72", 0 ],
					"source" : [ "obj-24", 0 ]
				}

			}
, 			{
				"patchline" : 				{
					"destination" : [ "obj-45", 0 ],
					"midpoints" : [ 167.5, 192.0, 167.5, 192.0 ],
					"source" : [ "obj-26", 1 ]
				}

			}
, 			{
				"patchline" : 				{
					"destination" : [ "obj-29", 0 ],
					"source" : [ "obj-28", 0 ]
				}

			}
, 			{
				"patchline" : 				{
					"destination" : [ "obj-65", 0 ],
					"source" : [ "obj-29", 0 ]
				}

			}
, 			{
				"patchline" : 				{
					"destination" : [ "obj-45", 1 ],
					"midpoints" : [ 207.5, 192.0, 207.5, 192.0 ],
					"source" : [ "obj-31", 1 ]
				}

			}
, 			{
				"patchline" : 				{
					"destination" : [ "obj-45", 2 ],
					"midpoints" : [ 249.5, 219.0, 247.5, 219.0 ],
					"source" : [ "obj-32", 0 ]
				}

			}
, 			{
				"patchline" : 				{
					"destination" : [ "obj-58", 0 ],
					"midpoints" : [ 819.5, 415.0, 819.5, 415.0 ],
					"source" : [ "obj-33", 0 ]
				}

			}
, 			{
				"patchline" : 				{
					"destination" : [ "obj-62", 0 ],
					"midpoints" : [ 832.5, 427.0, 795.0, 427.0, 795.0, 571.0, 819.5, 571.0 ],
					"source" : [ "obj-33", 1 ]
				}

			}
, 			{
				"patchline" : 				{
					"destination" : [ "obj-28", 0 ],
					"source" : [ "obj-34", 0 ]
				}

			}
, 			{
				"patchline" : 				{
					"destination" : [ "obj-17", 0 ],
					"midpoints" : [ 594.5, 435.0, 560.5, 435.0 ],
					"source" : [ "obj-35", 0 ]
				}

			}
, 			{
				"patchline" : 				{
					"destination" : [ "obj-35", 0 ],
					"source" : [ "obj-37", 0 ]
				}

			}
, 			{
				"patchline" : 				{
					"destination" : [ "obj-33", 0 ],
					"source" : [ "obj-38", 0 ]
				}

			}
, 			{
				"patchline" : 				{
					"destination" : [ "obj-72", 0 ],
					"source" : [ "obj-39", 0 ]
				}

			}
, 			{
				"patchline" : 				{
					"destination" : [ "obj-13", 1 ],
					"midpoints" : [ 80.0, 525.0, 169.5, 525.0 ],
					"order" : 1,
					"source" : [ "obj-4", 1 ]
				}

			}
, 			{
				"patchline" : 				{
					"destination" : [ "obj-13", 0 ],
					"midpoints" : [ 24.5, 396.0, 24.5, 396.0 ],
					"order" : 1,
					"source" : [ "obj-4", 0 ]
				}

			}
, 			{
				"patchline" : 				{
					"destination" : [ "obj-78", 1 ],
					"midpoints" : [ 80.0, 525.0, 277.0, 525.0 ],
					"order" : 0,
					"source" : [ "obj-4", 1 ]
				}

			}
, 			{
				"patchline" : 				{
					"destination" : [ "obj-78", 0 ],
					"midpoints" : [ 24.5, 525.0, 198.0, 525.0 ],
					"order" : 0,
					"source" : [ "obj-4", 0 ]
				}

			}
, 			{
				"patchline" : 				{
					"destination" : [ "obj-84", 0 ],
					"source" : [ "obj-4", 2 ]
				}

			}
, 			{
				"patchline" : 				{
					"destination" : [ "obj-4", 1 ],
					"midpoints" : [ 230.5, 360.0, 135.5, 360.0 ],
					"source" : [ "obj-43", 0 ]
				}

			}
, 			{
				"patchline" : 				{
					"destination" : [ "obj-1", 0 ],
					"source" : [ "obj-44", 0 ]
				}

			}
, 			{
				"patchline" : 				{
					"destination" : [ "obj-4", 1 ],
					"midpoints" : [ 167.5, 360.0, 135.5, 360.0 ],
					"source" : [ "obj-45", 0 ]
				}

			}
, 			{
				"patchline" : 				{
					"destination" : [ "obj-6", 0 ],
					"source" : [ "obj-47", 0 ]
				}

			}
, 			{
				"patchline" : 				{
					"destination" : [ "obj-43", 0 ],
					"source" : [ "obj-48", 0 ]
				}

			}
, 			{
				"patchline" : 				{
					"destination" : [ "obj-38", 0 ],
					"midpoints" : [ 1133.5, 563.0, 1202.5, 563.0, 1202.5, 338.0, 819.5, 338.0 ],
					"source" : [ "obj-49", 0 ]
				}

			}
, 			{
				"patchline" : 				{
					"destination" : [ "obj-38", 0 ],
					"source" : [ "obj-50", 0 ]
				}

			}
, 			{
				"patchline" : 				{
					"destination" : [ "obj-19", 0 ],
					"source" : [ "obj-55", 1 ]
				}

			}
, 			{
				"patchline" : 				{
					"destination" : [ "obj-66", 0 ],
					"source" : [ "obj-55", 0 ]
				}

			}
, 			{
				"patchline" : 				{
					"destination" : [ "obj-38", 0 ],
					"midpoints" : [ 661.5, 804.0, 795.0, 804.0, 795.0, 345.0, 819.5, 345.0 ],
					"source" : [ "obj-56", 0 ]
				}

			}
, 			{
				"patchline" : 				{
					"destination" : [ "obj-47", 0 ],
					"source" : [ "obj-56", 1 ]
				}

			}
, 			{
				"patchline" : 				{
					"destination" : [ "obj-64", 0 ],
					"source" : [ "obj-58", 2 ]
				}

			}
, 			{
				"patchline" : 				{
					"destination" : [ "obj-81", 0 ],
					"midpoints" : [ 819.5, 464.0, 819.5, 464.0 ],
					"source" : [ "obj-58", 0 ]
				}

			}
, 			{
				"patchline" : 				{
					"destination" : [ "obj-82", 0 ],
					"midpoints" : [ 939.75, 464.0, 941.5, 464.0 ],
					"source" : [ "obj-58", 1 ]
				}

			}
, 			{
				"patchline" : 				{
					"destination" : [ "obj-18", 0 ],
					"source" : [ "obj-6", 0 ]
				}

			}
, 			{
				"patchline" : 				{
					"destination" : [ "obj-71", 1 ],
					"source" : [ "obj-61", 7 ]
				}

			}
, 			{
				"patchline" : 				{
					"destination" : [ "obj-163", 0 ],
					"source" : [ "obj-62", 0 ]
				}

			}
, 			{
				"patchline" : 				{
					"destination" : [ "obj-49", 0 ],
					"source" : [ "obj-64", 2 ]
				}

			}
, 			{
				"patchline" : 				{
					"destination" : [ "obj-61", 0 ],
					"source" : [ "obj-64", 0 ]
				}

			}
, 			{
				"patchline" : 				{
					"destination" : [ "obj-62", 0 ],
					"midpoints" : [ 1096.75, 588.0, 819.5, 588.0 ],
					"source" : [ "obj-64", 1 ]
				}

			}
, 			{
				"patchline" : 				{
					"destination" : [ "obj-69", 0 ],
					"source" : [ "obj-65", 0 ]
				}

			}
, 			{
				"patchline" : 				{
					"destination" : [ "obj-17", 0 ],
					"source" : [ "obj-66", 1 ]
				}

			}
, 			{
				"patchline" : 				{
					"destination" : [ "obj-34", 0 ],
					"source" : [ "obj-66", 0 ]
				}

			}
, 			{
				"patchline" : 				{
					"destination" : [ "obj-24", 0 ],
					"source" : [ "obj-69", 0 ]
				}

			}
, 			{
				"patchline" : 				{
					"destination" : [ "obj-45", 3 ],
					"midpoints" : [ 324.5, 193.5, 287.5, 193.5 ],
					"source" : [ "obj-7", 0 ]
				}

			}
, 			{
				"patchline" : 				{
					"destination" : [ "obj-86", 0 ],
					"source" : [ "obj-71", 0 ]
				}

			}
, 			{
				"patchline" : 				{
					"destination" : [ "obj-1", 0 ],
					"source" : [ "obj-72", 1 ]
				}

			}
, 			{
				"patchline" : 				{
					"destination" : [ "obj-4", 1 ],
					"source" : [ "obj-77", 1 ]
				}

			}
, 			{
				"patchline" : 				{
					"destination" : [ "obj-4", 0 ],
					"source" : [ "obj-77", 0 ]
				}

			}
, 			{
				"patchline" : 				{
					"destination" : [ "obj-62", 1 ],
					"midpoints" : [ 941.5, 570.0, 839.833333333333371, 570.0 ],
					"source" : [ "obj-83", 0 ]
				}

			}
, 			{
				"patchline" : 				{
					"destination" : [ "obj-87", 0 ],
					"source" : [ "obj-84", 0 ]
				}

			}
, 			{
				"patchline" : 				{
					"destination" : [ "obj-62", 0 ],
					"midpoints" : [ 819.5, 555.0, 819.5, 555.0 ],
					"source" : [ "obj-85", 0 ]
				}

			}
, 			{
				"patchline" : 				{
					"destination" : [ "obj-15", 0 ],
					"source" : [ "obj-86", 1 ]
				}

			}
, 			{
				"patchline" : 				{
					"destination" : [ "obj-28", 0 ],
					"midpoints" : [ 1042.0, 740.0, 770.25, 740.0, 770.25, 501.0, 498.5, 501.0 ],
					"source" : [ "obj-86", 0 ]
				}

			}
, 			{
				"patchline" : 				{
					"destination" : [ "obj-7", 0 ],
					"midpoints" : [ 135.5, 468.5, 404.0, 468.5, 404.0, 123.0, 324.5, 123.0 ],
					"source" : [ "obj-87", 0 ]
				}

			}
, 			{
				"patchline" : 				{
					"destination" : [ "obj-55", 0 ],
					"source" : [ "obj-93", 0 ]
				}

			}
, 			{
				"patchline" : 				{
					"destination" : [ "obj-95", 0 ],
					"source" : [ "obj-97", 0 ]
				}

			}
 ],
		"parameters" : 		{
			"obj-4::obj-1::obj-1::obj-45::obj-70" : [ "hirt.val[4]", "hirt.val", 0 ],
			"obj-4::obj-3::obj-59::obj-70" : [ "hirt.val[33]", "hirt.val", 0 ],
			"obj-4::obj-1::obj-2::obj-96::obj-70" : [ "hirt.val[12]", "hirt.val", 0 ],
			"obj-4::obj-5" : [ "Realtime Tabs", "Realtime", 0 ],
			"obj-4::obj-31::obj-56::obj-70" : [ "hirt.val[20]", "hirt.val", 0 ],
			"obj-4::obj-10" : [ "Damp Active", "Active", 0 ],
			"obj-4::obj-3::obj-62::obj-70" : [ "hirt.val[29]", "hirt.val", 0 ],
			"obj-4::obj-1::obj-2::obj-88::obj-70" : [ "hirt.val[9]", "hirt.val", 0 ],
			"obj-4::obj-31::obj-50::obj-70" : [ "hirt.val[25]", "hirt.val", 0 ],
			"obj-4::obj-1::obj-1::obj-47::obj-70" : [ "hirt.val[2]", "hirt.val", 0 ],
			"obj-4::obj-24::obj-1::obj-28::obj-70" : [ "hirt.val[17]", "hirt.val", 0 ],
			"obj-4::obj-36::obj-131::obj-10" : [ "Category Menu", "Category Menu", 0 ],
			"obj-4::obj-1::obj-1::obj-44::obj-70" : [ "hirt.val[5]", "hirt.val", 0 ],
			"obj-4::obj-36::obj-53" : [ "Mode IR", "Mode", 0 ],
			"obj-4::obj-31::obj-55::obj-70" : [ "hirt.val[21]", "hirt.val", 0 ],
			"obj-4::obj-1::obj-2::obj-79::obj-70" : [ "hirt.val[14]", "hirt.val", 0 ],
			"obj-4::obj-108::obj-90" : [ "number", "number", 0 ],
			"obj-4::obj-79" : [ "Offline Tabs", "Offline", 0 ],
			"obj-4::obj-8" : [ "Shape Active", "Active", 0 ],
			"obj-38" : [ "live.text[10]", "live.text", 0 ],
			"obj-4::obj-36::obj-114::obj-35" : [ "Drop A", "live.drop", 3 ],
			"obj-4::obj-36::obj-131::obj-11" : [ "IR Menu", "IR Menu", 0 ],
			"obj-4::obj-3::obj-63::obj-70" : [ "hirt.val[30]", "hirt.val", 0 ],
			"obj-4::obj-31::obj-22::obj-70" : [ "hirt.val[26]", "hirt.val", 0 ],
			"obj-4::obj-28" : [ "PATCH/PRESS", "PATCH/PRESS", 0 ],
			"obj-7" : [ "live.text", "live.text", 0 ],
			"obj-4::obj-24::obj-2::obj-29::obj-70" : [ "hirt.val[18]", "hirt.val", 0 ],
			"obj-48" : [ "live.text[3]", "live.text[1]", 0 ],
			"obj-4::obj-1::obj-2::obj-81::obj-70" : [ "hirt.val[11]", "hirt.val", 0 ],
			"obj-4::obj-1::obj-1::obj-12::obj-70" : [ "hirt.val[6]", "hirt.val", 0 ],
			"obj-4::obj-1::obj-1::obj-9" : [ "Reverse", "Reverse", 0 ],
			"obj-13" : [ "live.gain~", "Master", 0 ],
			"obj-4::obj-31::obj-54::obj-70" : [ "hirt.val[22]", "hirt.val", 0 ],
			"obj-4::obj-11" : [ "Modulation Active", "Active", 0 ],
			"obj-4::obj-1::obj-2::obj-36::obj-70" : [ "hirt.val[8]", "hirt.val", 0 ],
			"obj-4::obj-24::obj-1::obj-29::obj-70" : [ "hirt.val[16]", "hirt.val", 0 ],
			"obj-4::obj-3::obj-64::obj-70" : [ "hirt.val[31]", "hirt.val", 0 ],
			"obj-4::obj-31::obj-19::obj-70" : [ "hirt.val[27]", "hirt.val", 0 ],
			"obj-4::obj-24::obj-2::obj-8::obj-70" : [ "hirt.val[19]", "hirt.val", 0 ],
			"obj-4::obj-1::obj-1::obj-49" : [ "Length Mode", "Length Mode", 0 ],
			"obj-4::obj-1::obj-2::obj-100::obj-70" : [ "hirt.val[13]", "hirt.val", 0 ],
			"obj-4::obj-1::obj-1::obj-97::obj-70" : [ "hirt.val", "hirt.val", 0 ],
			"obj-4::obj-24::obj-2::obj-49" : [ "Type", "Type", 0 ],
			"obj-4::obj-31::obj-53::obj-70" : [ "hirt.val[23]", "hirt.val", 0 ],
			"obj-4::obj-24::obj-2::obj-25" : [ "Widen", "Widen", 0 ],
			"obj-4::obj-36::obj-114::obj-65" : [ "Drop B", "live.drop", 3 ],
			"obj-26" : [ "live.tab", "live.tab", 0 ],
			"obj-4::obj-1::obj-2::obj-101::obj-70" : [ "hirt.val[10]", "hirt.val", 0 ],
			"obj-4::obj-1::obj-1::obj-46::obj-70" : [ "hirt.val[3]", "hirt.val", 0 ],
			"obj-4::obj-3::obj-65::obj-70" : [ "hirt.val[32]", "hirt.val", 0 ],
			"obj-4::obj-31::obj-17::obj-70" : [ "hirt.val[28]", "hirt.val", 0 ],
			"obj-4::obj-36::obj-49" : [ "Select IR", "Select", 0 ],
			"obj-4::obj-1::obj-2::obj-99::obj-70" : [ "hirt.val[7]", "hirt.val", 0 ],
			"obj-4::obj-14" : [ "Position Active", "Active", 0 ],
			"obj-4::obj-1::obj-2::obj-92::obj-70" : [ "hirt.val[15]", "hirt.val", 0 ],
			"obj-4::obj-1::obj-1::obj-53" : [ "Direct Mode", "Direct Mode", 0 ],
			"obj-4::obj-31::obj-51::obj-70" : [ "hirt.val[24]", "hirt.val", 0 ],
			"obj-4::obj-1::obj-1::obj-48::obj-70" : [ "hirt.val[1]", "hirt.val", 0 ],
			"obj-93" : [ "live.text[2]", "live.text[1]", 0 ],
			"obj-31" : [ "live.tab[1]", "live.tab", 0 ],
			"obj-32" : [ "live.text[1]", "live.text[1]", 0 ],
			"obj-4::obj-31::obj-21" : [ "EQ Routing", "Active", 0 ],
			"parameterbanks" : 			{

			}
,
			"parameter_overrides" : 			{
				"obj-4::obj-1::obj-1::obj-45::obj-70" : 				{
					"parameter_longname" : "hirt.val[4]",
					"parameter_invisible" : 1,
					"parameter_exponent" : 2.0,
					"parameter_modmode" : 0,
					"parameter_type" : 0,
					"parameter_unitstyle" : 2,
					"parameter_initial" : 0.0,
					"parameter_range" : [ 0.0, 1000.0 ]
				}
,
				"obj-4::obj-3::obj-59::obj-70" : 				{
					"parameter_longname" : "hirt.val[33]",
					"parameter_exponent" : 2.0,
					"parameter_invisible" : 0,
					"parameter_modmode" : 0,
					"parameter_type" : 0,
					"parameter_unitstyle" : 2,
					"parameter_initial" : 0.0,
					"parameter_range" : [ 0.0, 200.0 ]
				}
,
				"obj-4::obj-1::obj-2::obj-96::obj-70" : 				{
					"parameter_longname" : "hirt.val[12]",
					"parameter_invisible" : 1,
					"parameter_modmode" : 0,
					"parameter_type" : 0,
					"parameter_unitstyle" : 1,
					"parameter_initial" : 1.0,
					"parameter_range" : [ 0.05, 2.0 ],
					"parameter_exponent" : 1.0
				}
,
				"obj-4::obj-31::obj-56::obj-70" : 				{
					"parameter_longname" : "hirt.val[20]",
					"parameter_exponent" : 4.0,
					"parameter_invisible" : 0,
					"parameter_modmode" : 0,
					"parameter_type" : 0,
					"parameter_unitstyle" : 3,
					"parameter_initial" : 8000.0,
					"parameter_range" : [ 10.0, 18000.0 ]
				}
,
				"obj-4::obj-3::obj-62::obj-70" : 				{
					"parameter_longname" : "hirt.val[29]",
					"parameter_invisible" : 0,
					"parameter_modmode" : 0,
					"parameter_type" : 0,
					"parameter_unitstyle" : 5,
					"parameter_initial" : 0.0,
					"parameter_range" : [ 0.0, 100.0 ],
					"parameter_exponent" : 1.0
				}
,
				"obj-4::obj-1::obj-2::obj-88::obj-70" : 				{
					"parameter_longname" : "hirt.val[9]",
					"parameter_invisible" : 1,
					"parameter_modmode" : 0,
					"parameter_type" : 0,
					"parameter_unitstyle" : 1,
					"parameter_initial" : 1.0,
					"parameter_range" : [ 0.05, 2.0 ],
					"parameter_exponent" : 1.0
				}
,
				"obj-4::obj-31::obj-50::obj-70" : 				{
					"parameter_longname" : "hirt.val[25]",
					"parameter_exponent" : 3.0,
					"parameter_invisible" : 0,
					"parameter_modmode" : 0,
					"parameter_type" : 0,
					"parameter_unitstyle" : 10,
					"parameter_initial" : 0.707107,
					"parameter_range" : [ 0.05, 18.0 ]
				}
,
				"obj-4::obj-1::obj-1::obj-47::obj-70" : 				{
					"parameter_longname" : "hirt.val[2]",
					"parameter_invisible" : 1,
					"parameter_modmode" : 0,
					"parameter_type" : 0,
					"parameter_unitstyle" : 5,
					"parameter_initial" : 100.0,
					"parameter_range" : [ 0.0, 100.0 ],
					"parameter_exponent" : 1.0
				}
,
				"obj-4::obj-24::obj-1::obj-28::obj-70" : 				{
					"parameter_longname" : "hirt.val[17]",
					"parameter_invisible" : 0,
					"parameter_modmode" : 0,
					"parameter_type" : 0,
					"parameter_unitstyle" : 5,
					"parameter_initial" : 0.0,
					"parameter_range" : [ -100.0, 100.0 ],
					"parameter_exponent" : 1.0
				}
,
				"obj-4::obj-1::obj-1::obj-44::obj-70" : 				{
					"parameter_longname" : "hirt.val[5]",
					"parameter_invisible" : 1,
					"parameter_exponent" : 2.0,
					"parameter_modmode" : 0,
					"parameter_type" : 0,
					"parameter_unitstyle" : 2,
					"parameter_initial" : 0.0,
					"parameter_range" : [ 0.0, 1000.0 ]
				}
,
				"obj-4::obj-31::obj-55::obj-70" : 				{
					"parameter_longname" : "hirt.val[21]",
					"parameter_invisible" : 0,
					"parameter_modmode" : 0,
					"parameter_type" : 0,
					"parameter_unitstyle" : 4,
					"parameter_units" : " ",
					"parameter_initial" : 0.0,
					"parameter_range" : [ -18.0, 18.0 ],
					"parameter_exponent" : 1.0
				}
,
				"obj-4::obj-1::obj-2::obj-79::obj-70" : 				{
					"parameter_longname" : "hirt.val[14]",
					"parameter_invisible" : 1,
					"parameter_exponent" : 1.189901,
					"parameter_modmode" : 0,
					"parameter_type" : 0,
					"parameter_unitstyle" : 5,
					"parameter_initial" : 100.0,
					"parameter_range" : [ 20.0, 200.0 ]
				}
,
				"obj-4::obj-3::obj-63::obj-70" : 				{
					"parameter_longname" : "hirt.val[30]",
					"parameter_invisible" : 0,
					"parameter_modmode" : 0,
					"parameter_type" : 0,
					"parameter_unitstyle" : 5,
					"parameter_initial" : 100.0,
					"parameter_range" : [ 0.0, 100.0 ],
					"parameter_exponent" : 1.0
				}
,
				"obj-4::obj-31::obj-22::obj-70" : 				{
					"parameter_longname" : "hirt.val[26]",
					"parameter_exponent" : 4.0,
					"parameter_invisible" : 0,
					"parameter_modmode" : 0,
					"parameter_type" : 0,
					"parameter_unitstyle" : 3,
					"parameter_initial" : 125.0,
					"parameter_range" : [ 10.0, 18000.0 ]
				}
,
				"obj-4::obj-24::obj-2::obj-29::obj-70" : 				{
					"parameter_longname" : "hirt.val[18]",
					"parameter_invisible" : 0,
					"parameter_modmode" : 0,
					"parameter_type" : 0,
					"parameter_unitstyle" : 3,
					"parameter_initial" : 1.0,
					"parameter_range" : [ 0.05, 2.0 ],
					"parameter_exponent" : 1.0
				}
,
				"obj-4::obj-1::obj-2::obj-81::obj-70" : 				{
					"parameter_longname" : "hirt.val[11]",
					"parameter_invisible" : 1,
					"parameter_exponent" : 1.189901,
					"parameter_modmode" : 0,
					"parameter_type" : 0,
					"parameter_unitstyle" : 5,
					"parameter_initial" : 100.0,
					"parameter_range" : [ 20.0, 200.0 ]
				}
,
				"obj-4::obj-1::obj-1::obj-12::obj-70" : 				{
					"parameter_longname" : "hirt.val[6]",
					"parameter_invisible" : 1,
					"parameter_exponent" : 2.5,
					"parameter_modmode" : 0,
					"parameter_type" : 0,
					"parameter_unitstyle" : 2,
					"parameter_initial" : 15000.0,
					"parameter_range" : [ 100.0, 30000.0 ]
				}
,
				"obj-4::obj-31::obj-54::obj-70" : 				{
					"parameter_longname" : "hirt.val[22]",
					"parameter_exponent" : 3.0,
					"parameter_invisible" : 0,
					"parameter_modmode" : 0,
					"parameter_type" : 0,
					"parameter_unitstyle" : 10,
					"parameter_initial" : 0.5,
					"parameter_range" : [ 0.05, 18.0 ]
				}
,
				"obj-4::obj-1::obj-2::obj-36::obj-70" : 				{
					"parameter_longname" : "hirt.val[8]",
					"parameter_invisible" : 1,
					"parameter_exponent" : 1.189901,
					"parameter_modmode" : 0,
					"parameter_type" : 0,
					"parameter_unitstyle" : 5,
					"parameter_initial" : 100.0,
					"parameter_range" : [ 20.0, 200.0 ]
				}
,
				"obj-4::obj-24::obj-1::obj-29::obj-70" : 				{
					"parameter_longname" : "hirt.val[16]",
					"parameter_invisible" : 0,
					"parameter_modmode" : 0,
					"parameter_type" : 0,
					"parameter_unitstyle" : 6,
					"parameter_initial" : 0.0,
					"parameter_range" : [ -50.0, 50.0 ],
					"parameter_exponent" : 1.0
				}
,
				"obj-4::obj-3::obj-64::obj-70" : 				{
					"parameter_longname" : "hirt.val[31]",
					"parameter_invisible" : 0,
					"parameter_modmode" : 0,
					"parameter_type" : 0,
					"parameter_unitstyle" : 4,
					"parameter_units" : " ",
					"parameter_initial" : 0.0,
					"parameter_range" : [ -20.0, 20.0 ],
					"parameter_exponent" : 1.0
				}
,
				"obj-4::obj-31::obj-19::obj-70" : 				{
					"parameter_longname" : "hirt.val[27]",
					"parameter_invisible" : 0,
					"parameter_modmode" : 0,
					"parameter_type" : 0,
					"parameter_unitstyle" : 4,
					"parameter_units" : " ",
					"parameter_initial" : 0.0,
					"parameter_range" : [ -18.0, 18.0 ],
					"parameter_exponent" : 1.0
				}
,
				"obj-4::obj-24::obj-2::obj-8::obj-70" : 				{
					"parameter_longname" : "hirt.val[19]",
					"parameter_invisible" : 0,
					"parameter_modmode" : 0,
					"parameter_type" : 0,
					"parameter_unitstyle" : 5,
					"parameter_initial" : 50.0,
					"parameter_range" : [ 0.0, 100.0 ],
					"parameter_exponent" : 1.0
				}
,
				"obj-4::obj-1::obj-2::obj-100::obj-70" : 				{
					"parameter_longname" : "hirt.val[13]",
					"parameter_invisible" : 1,
					"parameter_exponent" : 4.0,
					"parameter_modmode" : 0,
					"parameter_type" : 0,
					"parameter_unitstyle" : 3,
					"parameter_initial" : 1000.0,
					"parameter_range" : [ 30.0, 18000.0 ]
				}
,
				"obj-4::obj-1::obj-1::obj-97::obj-70" : 				{
					"parameter_invisible" : 1,
					"parameter_exponent" : 1.01,
					"parameter_modmode" : 0,
					"parameter_type" : 0,
					"parameter_unitstyle" : 5,
					"parameter_initial" : 100.0,
					"parameter_range" : [ 1.0, 200.0 ]
				}
,
				"obj-4::obj-31::obj-53::obj-70" : 				{
					"parameter_longname" : "hirt.val[23]",
					"parameter_exponent" : 4.0,
					"parameter_invisible" : 0,
					"parameter_modmode" : 0,
					"parameter_type" : 0,
					"parameter_unitstyle" : 3,
					"parameter_initial" : 1000.0,
					"parameter_range" : [ 10.0, 18000.0 ]
				}
,
				"obj-4::obj-1::obj-2::obj-101::obj-70" : 				{
					"parameter_longname" : "hirt.val[10]",
					"parameter_invisible" : 1,
					"parameter_exponent" : 4.0,
					"parameter_modmode" : 0,
					"parameter_type" : 0,
					"parameter_unitstyle" : 3,
					"parameter_initial" : 8000.0,
					"parameter_range" : [ 30.0, 18000.0 ]
				}
,
				"obj-4::obj-1::obj-1::obj-46::obj-70" : 				{
					"parameter_longname" : "hirt.val[3]",
					"parameter_invisible" : 1,
					"parameter_modmode" : 0,
					"parameter_type" : 0,
					"parameter_unitstyle" : 5,
					"parameter_initial" : 100.0,
					"parameter_range" : [ 0.0, 100.0 ],
					"parameter_exponent" : 1.0
				}
,
				"obj-4::obj-3::obj-65::obj-70" : 				{
					"parameter_longname" : "hirt.val[32]",
					"parameter_invisible" : 0,
					"parameter_modmode" : 0,
					"parameter_type" : 0,
					"parameter_unitstyle" : 5,
					"parameter_initial" : 50.0,
					"parameter_range" : [ 0.0, 100.0 ],
					"parameter_exponent" : 1.0
				}
,
				"obj-4::obj-31::obj-17::obj-70" : 				{
					"parameter_longname" : "hirt.val[28]",
					"parameter_exponent" : 3.0,
					"parameter_invisible" : 0,
					"parameter_modmode" : 0,
					"parameter_type" : 0,
					"parameter_unitstyle" : 10,
					"parameter_initial" : 0.5,
					"parameter_range" : [ 0.05, 18.0 ]
				}
,
				"obj-4::obj-1::obj-2::obj-99::obj-70" : 				{
					"parameter_longname" : "hirt.val[7]",
					"parameter_invisible" : 1,
					"parameter_exponent" : 4.0,
					"parameter_modmode" : 0,
					"parameter_type" : 0,
					"parameter_unitstyle" : 3,
					"parameter_initial" : 125.0,
					"parameter_range" : [ 30.0, 18000.0 ]
				}
,
				"obj-4::obj-1::obj-2::obj-92::obj-70" : 				{
					"parameter_longname" : "hirt.val[15]",
					"parameter_invisible" : 1,
					"parameter_modmode" : 0,
					"parameter_type" : 0,
					"parameter_unitstyle" : 1,
					"parameter_initial" : 0.707107,
					"parameter_range" : [ 0.05, 2.0 ],
					"parameter_exponent" : 1.0
				}
,
				"obj-4::obj-31::obj-51::obj-70" : 				{
					"parameter_longname" : "hirt.val[24]",
					"parameter_invisible" : 0,
					"parameter_modmode" : 0,
					"parameter_type" : 0,
					"parameter_unitstyle" : 4,
					"parameter_units" : " ",
					"parameter_initial" : 0.0,
					"parameter_range" : [ -18.0, 18.0 ],
					"parameter_exponent" : 1.0
				}
,
				"obj-4::obj-1::obj-1::obj-48::obj-70" : 				{
					"parameter_longname" : "hirt.val[1]",
					"parameter_invisible" : 1,
					"parameter_exponent" : 1.58,
					"parameter_modmode" : 0,
					"parameter_type" : 0,
					"parameter_unitstyle" : 5,
					"parameter_initial" : 100.0,
					"parameter_range" : [ 50.0, 200.0 ]
				}

			}

		}
,
		"dependency_cache" : [ 			{
				"name" : "hirt.convolutionreverb~.maxpat",
				"bootpath" : "~/Documents/Max 8/Packages/HISSTools Impulse Response Toolbox (HIRT)/patchers/HIRT_reverb",
				"patcherrelativepath" : "../../../../../../Documents/Max 8/Packages/HISSTools Impulse Response Toolbox (HIRT)/patchers/HIRT_reverb",
				"type" : "JSON",
				"implicit" : 1
			}
, 			{
				"name" : "hirt_tabs_offline.maxpat",
				"bootpath" : "~/Documents/Max 8/Packages/HISSTools Impulse Response Toolbox (HIRT)/patchers/HIRT_reverb/HIRT_reverb_support",
				"patcherrelativepath" : "../../../../../../Documents/Max 8/Packages/HISSTools Impulse Response Toolbox (HIRT)/patchers/HIRT_reverb/HIRT_reverb_support",
				"type" : "JSON",
				"implicit" : 1
			}
, 			{
				"name" : "hirt_tab_shape.maxpat",
				"bootpath" : "~/Documents/Max 8/Packages/HISSTools Impulse Response Toolbox (HIRT)/patchers/HIRT_reverb/HIRT_reverb_support",
				"patcherrelativepath" : "../../../../../../Documents/Max 8/Packages/HISSTools Impulse Response Toolbox (HIRT)/patchers/HIRT_reverb/HIRT_reverb_support",
				"type" : "JSON",
				"implicit" : 1
			}
, 			{
				"name" : "hirt.dial.maxpat",
				"bootpath" : "~/Documents/Max 8/Packages/HISSTools Impulse Response Toolbox (HIRT)/patchers/HIRT_support",
				"patcherrelativepath" : "../../../../../../Documents/Max 8/Packages/HISSTools Impulse Response Toolbox (HIRT)/patchers/HIRT_support",
				"type" : "JSON",
				"implicit" : 1
			}
, 			{
				"name" : "hirt.dial.linear.only.maxpat",
				"bootpath" : "~/Documents/Max 8/Packages/HISSTools Impulse Response Toolbox (HIRT)/patchers/HIRT_support",
				"patcherrelativepath" : "../../../../../../Documents/Max 8/Packages/HISSTools Impulse Response Toolbox (HIRT)/patchers/HIRT_support",
				"type" : "JSON",
				"implicit" : 1
			}
, 			{
				"name" : "hirt_tab_damp.maxpat",
				"bootpath" : "~/Documents/Max 8/Packages/HISSTools Impulse Response Toolbox (HIRT)/patchers/HIRT_reverb/HIRT_reverb_support",
				"patcherrelativepath" : "../../../../../../Documents/Max 8/Packages/HISSTools Impulse Response Toolbox (HIRT)/patchers/HIRT_reverb/HIRT_reverb_support",
				"type" : "JSON",
				"implicit" : 1
			}
, 			{
				"name" : "hirt_interface_damp.js",
				"bootpath" : "~/Documents/Max 8/Packages/HISSTools Impulse Response Toolbox (HIRT)/jsui",
				"patcherrelativepath" : "../../../../../../Documents/Max 8/Packages/HISSTools Impulse Response Toolbox (HIRT)/jsui",
				"type" : "TEXT",
				"implicit" : 1
			}
, 			{
				"name" : "hirt_tabs_realtime.maxpat",
				"bootpath" : "~/Documents/Max 8/Packages/HISSTools Impulse Response Toolbox (HIRT)/patchers/HIRT_reverb/HIRT_reverb_support",
				"patcherrelativepath" : "../../../../../../Documents/Max 8/Packages/HISSTools Impulse Response Toolbox (HIRT)/patchers/HIRT_reverb/HIRT_reverb_support",
				"type" : "JSON",
				"implicit" : 1
			}
, 			{
				"name" : "hirt_tab_position.maxpat",
				"bootpath" : "~/Documents/Max 8/Packages/HISSTools Impulse Response Toolbox (HIRT)/patchers/HIRT_reverb/HIRT_reverb_support",
				"patcherrelativepath" : "../../../../../../Documents/Max 8/Packages/HISSTools Impulse Response Toolbox (HIRT)/patchers/HIRT_reverb/HIRT_reverb_support",
				"type" : "JSON",
				"implicit" : 1
			}
, 			{
				"name" : "hirt_interface_pos.js",
				"bootpath" : "~/Documents/Max 8/Packages/HISSTools Impulse Response Toolbox (HIRT)/jsui",
				"patcherrelativepath" : "../../../../../../Documents/Max 8/Packages/HISSTools Impulse Response Toolbox (HIRT)/jsui",
				"type" : "TEXT",
				"implicit" : 1
			}
, 			{
				"name" : "hirt_tab_modulation.maxpat",
				"bootpath" : "~/Documents/Max 8/Packages/HISSTools Impulse Response Toolbox (HIRT)/patchers/HIRT_reverb/HIRT_reverb_support",
				"patcherrelativepath" : "../../../../../../Documents/Max 8/Packages/HISSTools Impulse Response Toolbox (HIRT)/patchers/HIRT_reverb/HIRT_reverb_support",
				"type" : "JSON",
				"implicit" : 1
			}
, 			{
				"name" : "hirt_interface_mod.js",
				"bootpath" : "~/Documents/Max 8/Packages/HISSTools Impulse Response Toolbox (HIRT)/jsui",
				"patcherrelativepath" : "../../../../../../Documents/Max 8/Packages/HISSTools Impulse Response Toolbox (HIRT)/jsui",
				"type" : "TEXT",
				"implicit" : 1
			}
, 			{
				"name" : "hirt_eq.maxpat",
				"bootpath" : "~/Documents/Max 8/Packages/HISSTools Impulse Response Toolbox (HIRT)/patchers/HIRT_reverb/HIRT_reverb_support",
				"patcherrelativepath" : "../../../../../../Documents/Max 8/Packages/HISSTools Impulse Response Toolbox (HIRT)/patchers/HIRT_reverb/HIRT_reverb_support",
				"type" : "JSON",
				"implicit" : 1
			}
, 			{
				"name" : "hirt_interface_eq.js",
				"bootpath" : "~/Documents/Max 8/Packages/HISSTools Impulse Response Toolbox (HIRT)/jsui",
				"patcherrelativepath" : "../../../../../../Documents/Max 8/Packages/HISSTools Impulse Response Toolbox (HIRT)/jsui",
				"type" : "TEXT",
				"implicit" : 1
			}
, 			{
				"name" : "hirt_ir.maxpat",
				"bootpath" : "~/Documents/Max 8/Packages/HISSTools Impulse Response Toolbox (HIRT)/patchers/HIRT_reverb/HIRT_reverb_support",
				"patcherrelativepath" : "../../../../../../Documents/Max 8/Packages/HISSTools Impulse Response Toolbox (HIRT)/patchers/HIRT_reverb/HIRT_reverb_support",
				"type" : "JSON",
				"implicit" : 1
			}
, 			{
				"name" : "hirt_file_loading.maxpat",
				"bootpath" : "~/Documents/Max 8/Packages/HISSTools Impulse Response Toolbox (HIRT)/patchers/HIRT_support",
				"patcherrelativepath" : "../../../../../../Documents/Max 8/Packages/HISSTools Impulse Response Toolbox (HIRT)/patchers/HIRT_support",
				"type" : "JSON",
				"implicit" : 1
			}
, 			{
				"name" : "hirt_loading_scheme.maxpat",
				"bootpath" : "~/Documents/Max 8/Packages/HISSTools Impulse Response Toolbox (HIRT)/patchers/HIRT_support",
				"patcherrelativepath" : "../../../../../../Documents/Max 8/Packages/HISSTools Impulse Response Toolbox (HIRT)/patchers/HIRT_support",
				"type" : "JSON",
				"implicit" : 1
			}
, 			{
				"name" : "hirt_file_set.maxpat",
				"bootpath" : "~/Documents/Max 8/Packages/HISSTools Impulse Response Toolbox (HIRT)/patchers/HIRT_support",
				"patcherrelativepath" : "../../../../../../Documents/Max 8/Packages/HISSTools Impulse Response Toolbox (HIRT)/patchers/HIRT_support",
				"type" : "JSON",
				"implicit" : 1
			}
, 			{
				"name" : "hirt_file_check.maxpat",
				"bootpath" : "~/Documents/Max 8/Packages/HISSTools Impulse Response Toolbox (HIRT)/patchers/HIRT_support",
				"patcherrelativepath" : "../../../../../../Documents/Max 8/Packages/HISSTools Impulse Response Toolbox (HIRT)/patchers/HIRT_support",
				"type" : "JSON",
				"implicit" : 1
			}
, 			{
				"name" : "hirt_base_name.maxpat",
				"bootpath" : "~/Documents/Max 8/Packages/HISSTools Impulse Response Toolbox (HIRT)/patchers/HIRT_support",
				"patcherrelativepath" : "../../../../../../Documents/Max 8/Packages/HISSTools Impulse Response Toolbox (HIRT)/patchers/HIRT_support",
				"type" : "JSON",
				"implicit" : 1
			}
, 			{
				"name" : "hirt_folder.maxpat",
				"bootpath" : "~/Documents/Max 8/Packages/HISSTools Impulse Response Toolbox (HIRT)/patchers/HIRT_support",
				"patcherrelativepath" : "../../../../../../Documents/Max 8/Packages/HISSTools Impulse Response Toolbox (HIRT)/patchers/HIRT_support",
				"type" : "JSON",
				"implicit" : 1
			}
, 			{
				"name" : "hirt_data_colls.maxpat",
				"bootpath" : "~/Documents/Max 8/Packages/HISSTools Impulse Response Toolbox (HIRT)/patchers/HIRT_support",
				"patcherrelativepath" : "../../../../../../Documents/Max 8/Packages/HISSTools Impulse Response Toolbox (HIRT)/patchers/HIRT_support",
				"type" : "JSON",
				"implicit" : 1
			}
, 			{
				"name" : "hirt_file_ir_display.maxpat",
				"bootpath" : "~/Documents/Max 8/Packages/HISSTools Impulse Response Toolbox (HIRT)/patchers/HIRT_reverb/HIRT_reverb_support",
				"patcherrelativepath" : "../../../../../../Documents/Max 8/Packages/HISSTools Impulse Response Toolbox (HIRT)/patchers/HIRT_reverb/HIRT_reverb_support",
				"type" : "JSON",
				"implicit" : 1
			}
, 			{
				"name" : "hirt_filter_type.maxpat",
				"bootpath" : "~/Documents/Max 8/Packages/HISSTools Impulse Response Toolbox (HIRT)/patchers/HIRT_support",
				"patcherrelativepath" : "../../../../../../Documents/Max 8/Packages/HISSTools Impulse Response Toolbox (HIRT)/patchers/HIRT_support",
				"type" : "JSON",
				"implicit" : 1
			}
, 			{
				"name" : "hirt_file_picker.maxpat",
				"bootpath" : "~/Documents/Max 8/Packages/HISSTools Impulse Response Toolbox (HIRT)/patchers/HIRT_support",
				"patcherrelativepath" : "../../../../../../Documents/Max 8/Packages/HISSTools Impulse Response Toolbox (HIRT)/patchers/HIRT_support",
				"type" : "JSON",
				"implicit" : 1
			}
, 			{
				"name" : "hirt_cr_info_view.maxpat",
				"bootpath" : "~/Documents/Max 8/Packages/HISSTools Impulse Response Toolbox (HIRT)/patchers/HIRT_reverb/HIRT_reverb_support",
				"patcherrelativepath" : "../../../../../../Documents/Max 8/Packages/HISSTools Impulse Response Toolbox (HIRT)/patchers/HIRT_reverb/HIRT_reverb_support",
				"type" : "JSON",
				"implicit" : 1
			}
, 			{
				"name" : "hirt_output.maxpat",
				"bootpath" : "~/Documents/Max 8/Packages/HISSTools Impulse Response Toolbox (HIRT)/patchers/HIRT_reverb/HIRT_reverb_support",
				"patcherrelativepath" : "../../../../../../Documents/Max 8/Packages/HISSTools Impulse Response Toolbox (HIRT)/patchers/HIRT_reverb/HIRT_reverb_support",
				"type" : "JSON",
				"implicit" : 1
			}
, 			{
				"name" : "reverb_settings.json",
				"bootpath" : "~/Cloud/Projects/DataBending/renders/mixing/loudnorm_bounces",
				"patcherrelativepath" : ".",
				"type" : "JSON",
				"implicit" : 1
			}
, 			{
				"name" : "hirt_convrvrb_clientlist_alias.txt",
				"bootpath" : "~/Documents/Max 8/Packages/HISSTools Impulse Response Toolbox (HIRT)/patchers/HIRT_reverb/HIRT_reverb_support",
				"patcherrelativepath" : "../../../../../../Documents/Max 8/Packages/HISSTools Impulse Response Toolbox (HIRT)/patchers/HIRT_reverb/HIRT_reverb_support",
				"type" : "TEXT",
				"implicit" : 1
			}
, 			{
				"name" : "HIRT_HISSTools_Logo.png",
				"bootpath" : "~/Documents/Max 8/Packages/HISSTools Impulse Response Toolbox (HIRT)/misc/HIRT_image",
				"patcherrelativepath" : "../../../../../../Documents/Max 8/Packages/HISSTools Impulse Response Toolbox (HIRT)/misc/HIRT_image",
				"type" : "PNG",
				"implicit" : 1
			}
, 			{
				"name" : "hirt.convrvrb.realtime~.maxpat",
				"bootpath" : "~/Documents/Max 8/Packages/HISSTools Impulse Response Toolbox (HIRT)/patchers/HIRT_reverb/HIRT_reverb_support",
				"patcherrelativepath" : "../../../../../../Documents/Max 8/Packages/HISSTools Impulse Response Toolbox (HIRT)/patchers/HIRT_reverb/HIRT_reverb_support",
				"type" : "JSON",
				"implicit" : 1
			}
, 			{
				"name" : "hirt.convolvestereo~.maxpat",
				"bootpath" : "~/Documents/Max 8/Packages/HISSTools Impulse Response Toolbox (HIRT)/patchers/HIRT_support",
				"patcherrelativepath" : "../../../../../../Documents/Max 8/Packages/HISSTools Impulse Response Toolbox (HIRT)/patchers/HIRT_support",
				"type" : "JSON",
				"implicit" : 1
			}
, 			{
				"name" : "hirt_convrvrb_rt_part1.gendsp",
				"bootpath" : "~/Documents/Max 8/Packages/HISSTools Impulse Response Toolbox (HIRT)/code",
				"patcherrelativepath" : "../../../../../../Documents/Max 8/Packages/HISSTools Impulse Response Toolbox (HIRT)/code",
				"type" : "gDSP",
				"implicit" : 1
			}
, 			{
				"name" : "hirt_convolution_rt_library.genexpr",
				"bootpath" : "~/Documents/Max 8/Packages/HISSTools Impulse Response Toolbox (HIRT)/code",
				"patcherrelativepath" : "../../../../../../Documents/Max 8/Packages/HISSTools Impulse Response Toolbox (HIRT)/code",
				"type" : "GenX",
				"implicit" : 1
			}
, 			{
				"name" : "hirt_eq_library.genexpr",
				"bootpath" : "~/Documents/Max 8/Packages/HISSTools Impulse Response Toolbox (HIRT)/code",
				"patcherrelativepath" : "../../../../../../Documents/Max 8/Packages/HISSTools Impulse Response Toolbox (HIRT)/code",
				"type" : "GenX",
				"implicit" : 1
			}
, 			{
				"name" : "hirt_convrvrb_rt_part3.gendsp",
				"bootpath" : "~/Documents/Max 8/Packages/HISSTools Impulse Response Toolbox (HIRT)/code",
				"patcherrelativepath" : "../../../../../../Documents/Max 8/Packages/HISSTools Impulse Response Toolbox (HIRT)/code",
				"type" : "gDSP",
				"implicit" : 1
			}
, 			{
				"name" : "hirt_convolution_rt_library.genexpr",
				"bootpath" : "~/Documents/Max 8/Packages/HISSTools Impulse Response Toolbox (HIRT)/code",
				"patcherrelativepath" : "../../../../../../Documents/Max 8/Packages/HISSTools Impulse Response Toolbox (HIRT)/code",
				"type" : "GenX",
				"implicit" : 1
			}
, 			{
				"name" : "hirt_convrvrb_rt_part5.gendsp",
				"bootpath" : "~/Documents/Max 8/Packages/HISSTools Impulse Response Toolbox (HIRT)/code",
				"patcherrelativepath" : "../../../../../../Documents/Max 8/Packages/HISSTools Impulse Response Toolbox (HIRT)/code",
				"type" : "gDSP",
				"implicit" : 1
			}
, 			{
				"name" : "hirt_convolution_rt_library.genexpr",
				"bootpath" : "~/Documents/Max 8/Packages/HISSTools Impulse Response Toolbox (HIRT)/code",
				"patcherrelativepath" : "../../../../../../Documents/Max 8/Packages/HISSTools Impulse Response Toolbox (HIRT)/code",
				"type" : "GenX",
				"implicit" : 1
			}
, 			{
				"name" : "hirt_gain_params.maxpat",
				"bootpath" : "~/Documents/Max 8/Packages/HISSTools Impulse Response Toolbox (HIRT)/patchers/HIRT_reverb/HIRT_reverb_support",
				"patcherrelativepath" : "../../../../../../Documents/Max 8/Packages/HISSTools Impulse Response Toolbox (HIRT)/patchers/HIRT_reverb/HIRT_reverb_support",
				"type" : "JSON",
				"implicit" : 1
			}
, 			{
				"name" : "hirt.svfcoeff.maxpat",
				"bootpath" : "~/Documents/Max 8/Packages/HISSTools Impulse Response Toolbox (HIRT)/patchers/HIRT_support",
				"patcherrelativepath" : "../../../../../../Documents/Max 8/Packages/HISSTools Impulse Response Toolbox (HIRT)/patchers/HIRT_support",
				"type" : "JSON",
				"implicit" : 1
			}
, 			{
				"name" : "hirt_zoom_factor.js",
				"bootpath" : "~/Documents/Max 8/Packages/HISSTools Impulse Response Toolbox (HIRT)/javascript",
				"patcherrelativepath" : "../../../../../../Documents/Max 8/Packages/HISSTools Impulse Response Toolbox (HIRT)/javascript",
				"type" : "TEXT",
				"implicit" : 1
			}
, 			{
				"name" : "hirt.damping.cascade.maxpat",
				"bootpath" : "~/Documents/Max 8/Packages/HISSTools Impulse Response Toolbox (HIRT)/patchers/HIRT_support",
				"patcherrelativepath" : "../../../../../../Documents/Max 8/Packages/HISSTools Impulse Response Toolbox (HIRT)/patchers/HIRT_support",
				"type" : "JSON",
				"implicit" : 1
			}
, 			{
				"name" : "hirt.buffer.filter.maxpat",
				"bootpath" : "~/Documents/Max 8/Packages/HISSTools Impulse Response Toolbox (HIRT)/patchers/HIRT_support",
				"patcherrelativepath" : "../../../../../../Documents/Max 8/Packages/HISSTools Impulse Response Toolbox (HIRT)/patchers/HIRT_support",
				"type" : "JSON",
				"implicit" : 1
			}
, 			{
				"name" : "hirt_partition_late.maxpat",
				"bootpath" : "~/Documents/Max 8/Packages/HISSTools Impulse Response Toolbox (HIRT)/patchers/HIRT_reverb/HIRT_reverb_support",
				"patcherrelativepath" : "../../../../../../Documents/Max 8/Packages/HISSTools Impulse Response Toolbox (HIRT)/patchers/HIRT_reverb/HIRT_reverb_support",
				"type" : "JSON",
				"implicit" : 1
			}
, 			{
				"name" : "hirt_partition_fix_length.maxpat",
				"bootpath" : "~/Documents/Max 8/Packages/HISSTools Impulse Response Toolbox (HIRT)/patchers/HIRT_reverb/HIRT_reverb_support",
				"patcherrelativepath" : "../../../../../../Documents/Max 8/Packages/HISSTools Impulse Response Toolbox (HIRT)/patchers/HIRT_reverb/HIRT_reverb_support",
				"type" : "JSON",
				"implicit" : 1
			}
, 			{
				"name" : "hirt_nan_fix.maxpat",
				"bootpath" : "~/Documents/Max 8/Packages/HISSTools Impulse Response Toolbox (HIRT)/patchers/HIRT_support",
				"patcherrelativepath" : "../../../../../../Documents/Max 8/Packages/HISSTools Impulse Response Toolbox (HIRT)/patchers/HIRT_support",
				"type" : "JSON",
				"implicit" : 1
			}
, 			{
				"name" : "hirt_partition_early.maxpat",
				"bootpath" : "~/Documents/Max 8/Packages/HISSTools Impulse Response Toolbox (HIRT)/patchers/HIRT_reverb/HIRT_reverb_support",
				"patcherrelativepath" : "../../../../../../Documents/Max 8/Packages/HISSTools Impulse Response Toolbox (HIRT)/patchers/HIRT_reverb/HIRT_reverb_support",
				"type" : "JSON",
				"implicit" : 1
			}
, 			{
				"name" : "hirt_partition_copy_buffers.maxpat",
				"bootpath" : "~/Documents/Max 8/Packages/HISSTools Impulse Response Toolbox (HIRT)/patchers/HIRT_reverb/HIRT_reverb_support",
				"patcherrelativepath" : "../../../../../../Documents/Max 8/Packages/HISSTools Impulse Response Toolbox (HIRT)/patchers/HIRT_reverb/HIRT_reverb_support",
				"type" : "JSON",
				"implicit" : 1
			}
, 			{
				"name" : "hirt_gain_and_display.maxpat",
				"bootpath" : "~/Documents/Max 8/Packages/HISSTools Impulse Response Toolbox (HIRT)/patchers/HIRT_reverb/HIRT_reverb_support",
				"patcherrelativepath" : "../../../../../../Documents/Max 8/Packages/HISSTools Impulse Response Toolbox (HIRT)/patchers/HIRT_reverb/HIRT_reverb_support",
				"type" : "JSON",
				"implicit" : 1
			}
, 			{
				"name" : "hirt.size.resample.maxpat",
				"bootpath" : "~/Documents/Max 8/Packages/HISSTools Impulse Response Toolbox (HIRT)/patchers/HIRT_support",
				"patcherrelativepath" : "../../../../../../Documents/Max 8/Packages/HISSTools Impulse Response Toolbox (HIRT)/patchers/HIRT_support",
				"type" : "JSON",
				"implicit" : 1
			}
, 			{
				"name" : "hirt_size_resample_feed.maxpat",
				"bootpath" : "~/Documents/Max 8/Packages/HISSTools Impulse Response Toolbox (HIRT)/patchers/HIRT_reverb/HIRT_reverb_support",
				"patcherrelativepath" : "../../../../../../Documents/Max 8/Packages/HISSTools Impulse Response Toolbox (HIRT)/patchers/HIRT_reverb/HIRT_reverb_support",
				"type" : "JSON",
				"implicit" : 1
			}
, 			{
				"name" : "spectrumdraw~.mxo",
				"type" : "iLaX"
			}
, 			{
				"name" : "iraverage~.mxo",
				"type" : "iLaX"
			}
, 			{
				"name" : "irdisplay~.mxo",
				"type" : "iLaX"
			}
, 			{
				"name" : "irtrimnorm~.mxo",
				"type" : "iLaX"
			}
, 			{
				"name" : "multiconvolve~.mxo",
				"type" : "iLaX"
			}
, 			{
				"name" : "morphfilter~.mxo",
				"type" : "iLaX"
			}
, 			{
				"name" : "irstats~.mxo",
				"type" : "iLaX"
			}
, 			{
				"name" : "irmix~.mxo",
				"type" : "iLaX"
			}
, 			{
				"name" : "ircropfade~.mxo",
				"type" : "iLaX"
			}
, 			{
				"name" : "bufreverse~.mxo",
				"type" : "iLaX"
			}
, 			{
				"name" : "bufresample~.mxo",
				"type" : "iLaX"
			}
, 			{
				"name" : "onecount.mxo",
				"type" : "iLaX"
			}
 ],
		"autosave" : 0
	}

}
