{
	"patcher" : 	{
		"fileversion" : 1,
		"appversion" : 		{
			"major" : 8,
			"minor" : 0,
			"revision" : 6,
			"architecture" : "x64",
			"modernui" : 1
		}
,
		"classnamespace" : "box",
		"rect" : [ 554.0, 79.0, 58.0, 50.0 ],
		"bglocked" : 0,
		"openinpresentation" : 1,
		"default_fontsize" : 12.0,
		"default_fontface" : 0,
		"default_fontname" : "Arial",
		"gridonopen" : 1,
		"gridsize" : [ 15.0, 15.0 ],
		"gridsnaponopen" : 1,
		"objectsnaponopen" : 1,
		"statusbarvisible" : 2,
		"toolbarvisible" : 1,
		"lefttoolbarpinned" : 0,
		"toptoolbarpinned" : 0,
		"righttoolbarpinned" : 0,
		"bottomtoolbarpinned" : 0,
		"toolbars_unpinned_last_save" : 0,
		"tallnewobj" : 0,
		"boxanimatetime" : 200,
		"enablehscroll" : 1,
		"enablevscroll" : 1,
		"devicewidth" : 0.0,
		"description" : "",
		"digest" : "",
		"tags" : "",
		"style" : "",
		"subpatcher_template" : "",
		"boxes" : [ 			{
				"box" : 				{
					"id" : "obj-31",
					"maxclass" : "newobj",
					"numinlets" : 2,
					"numoutlets" : 2,
					"outlettype" : [ "", "" ],
					"patching_rect" : [ 116.0, 336.0, 55.0, 22.0 ],
					"text" : "zl slice 1"
				}

			}
, 			{
				"box" : 				{
					"id" : "obj-29",
					"maxclass" : "newobj",
					"numinlets" : 2,
					"numoutlets" : 2,
					"outlettype" : [ "", "" ],
					"patching_rect" : [ 116.0, 302.0, 37.0, 22.0 ],
					"text" : "zl rev"
				}

			}
, 			{
				"box" : 				{
					"id" : "obj-28",
					"maxclass" : "newobj",
					"numinlets" : 2,
					"numoutlets" : 1,
					"outlettype" : [ "" ],
					"patching_rect" : [ 116.0, 430.0, 87.5, 22.0 ],
					"text" : "join"
				}

			}
, 			{
				"box" : 				{
					"id" : "obj-26",
					"maxclass" : "newobj",
					"numinlets" : 1,
					"numoutlets" : 2,
					"outlettype" : [ "dump", "" ],
					"patching_rect" : [ 116.0, 156.0, 176.0, 22.0 ],
					"text" : "t dump l"
				}

			}
, 			{
				"box" : 				{
					"id" : "obj-25",
					"maxclass" : "newobj",
					"numinlets" : 2,
					"numoutlets" : 2,
					"outlettype" : [ "", "" ],
					"patching_rect" : [ 185.0, 385.0, 138.0, 22.0 ],
					"text" : "combine s s @triggers 1"
				}

			}
, 			{
				"box" : 				{
					"id" : "obj-23",
					"maxclass" : "newobj",
					"numinlets" : 1,
					"numoutlets" : 1,
					"outlettype" : [ "" ],
					"patching_rect" : [ 116.0, 464.0, 72.0, 22.0 ],
					"text" : "prepend set"
				}

			}
, 			{
				"box" : 				{
					"id" : "obj-20",
					"maxclass" : "newobj",
					"numinlets" : 2,
					"numoutlets" : 2,
					"outlettype" : [ "", "" ],
					"patching_rect" : [ 195.0, 227.0, 77.0, 22.0 ],
					"text" : "route symbol"
				}

			}
, 			{
				"box" : 				{
					"id" : "obj-17",
					"maxclass" : "newobj",
					"numinlets" : 2,
					"numoutlets" : 1,
					"outlettype" : [ "" ],
					"patching_rect" : [ 116.0, 266.0, 29.5, 22.0 ],
					"text" : "join"
				}

			}
, 			{
				"box" : 				{
					"id" : "obj-16",
					"maxclass" : "newobj",
					"numinlets" : 2,
					"numoutlets" : 2,
					"outlettype" : [ "", "" ],
					"patching_rect" : [ 116.0, 227.0, 77.0, 22.0 ],
					"text" : "route symbol"
				}

			}
, 			{
				"box" : 				{
					"coll_data" : 					{
						"count" : 6,
						"data" : [ 							{
								"key" : "audio",
								"value" : [ "DataAudioUnique/" ]
							}
, 							{
								"key" : "fluid_analysis",
								"value" : [ "analysis_data/" ]
							}
, 							{
								"key" : "essentia_analysis",
								"value" : [ "essentia_analysis/" ]
							}
, 							{
								"key" : "audio_raw",
								"value" : [ "DataAudio/" ]
							}
, 							{
								"key" : "audio_long",
								"value" : [ "DataAudioUniqueLong/" ]
							}
, 							{
								"key" : "simple_analysis_unique",
								"value" : [ "essentia_analysis/simple_extractor/" ]
							}
 ]
					}
,
					"id" : "obj-10",
					"maxclass" : "newobj",
					"numinlets" : 1,
					"numoutlets" : 4,
					"outlettype" : [ "", "", "", "" ],
					"patching_rect" : [ 116.0, 190.0, 121.0, 22.0 ],
					"saved_object_attributes" : 					{
						"embed" : 1
					}
,
					"text" : "coll paths @embed 1"
				}

			}
, 			{
				"box" : 				{
					"id" : "obj-42",
					"maxclass" : "newobj",
					"numinlets" : 1,
					"numoutlets" : 5,
					"outlettype" : [ "", "", "", "", "" ],
					"patching_rect" : [ 55.0, 125.0, 141.0, 22.0 ],
					"text" : "regexp .*(data_bending/)"
				}

			}
, 			{
				"box" : 				{
					"id" : "obj-11",
					"maxclass" : "newobj",
					"numinlets" : 2,
					"numoutlets" : 4,
					"outlettype" : [ "dictionary", "", "", "" ],
					"patching_rect" : [ 116.0, 496.0, 77.0, 22.0 ],
					"saved_object_attributes" : 					{
						"embed" : 0,
						"parameter_enable" : 0,
						"parameter_mappable" : 0
					}
,
					"text" : "dict db.paths"
				}

			}
, 			{
				"box" : 				{
					"id" : "obj-8",
					"maxclass" : "newobj",
					"numinlets" : 1,
					"numoutlets" : 1,
					"outlettype" : [ "bang" ],
					"patching_rect" : [ 7.0, 14.0, 58.0, 22.0 ],
					"text" : "loadbang"
				}

			}
, 			{
				"box" : 				{
					"id" : "obj-4",
					"maxclass" : "newobj",
					"numinlets" : 1,
					"numoutlets" : 1,
					"outlettype" : [ "path" ],
					"patching_rect" : [ 7.0, 54.0, 39.0, 22.0 ],
					"text" : "t path"
				}

			}
, 			{
				"box" : 				{
					"id" : "obj-1",
					"maxclass" : "newobj",
					"numinlets" : 1,
					"numoutlets" : 2,
					"outlettype" : [ "", "" ],
					"patching_rect" : [ 7.0, 89.0, 67.0, 22.0 ],
					"save" : [ "#N", "thispatcher", ";", "#Q", "end", ";" ],
					"text" : "thispatcher"
				}

			}
 ],
		"lines" : [ 			{
				"patchline" : 				{
					"destination" : [ "obj-42", 0 ],
					"source" : [ "obj-1", 1 ]
				}

			}
, 			{
				"patchline" : 				{
					"destination" : [ "obj-16", 0 ],
					"source" : [ "obj-10", 0 ]
				}

			}
, 			{
				"patchline" : 				{
					"destination" : [ "obj-20", 0 ],
					"source" : [ "obj-10", 1 ]
				}

			}
, 			{
				"patchline" : 				{
					"destination" : [ "obj-17", 0 ],
					"source" : [ "obj-16", 0 ]
				}

			}
, 			{
				"patchline" : 				{
					"destination" : [ "obj-29", 0 ],
					"source" : [ "obj-17", 0 ]
				}

			}
, 			{
				"patchline" : 				{
					"destination" : [ "obj-17", 1 ],
					"source" : [ "obj-20", 0 ]
				}

			}
, 			{
				"patchline" : 				{
					"destination" : [ "obj-11", 0 ],
					"source" : [ "obj-23", 0 ]
				}

			}
, 			{
				"patchline" : 				{
					"destination" : [ "obj-28", 1 ],
					"source" : [ "obj-25", 0 ]
				}

			}
, 			{
				"patchline" : 				{
					"destination" : [ "obj-10", 0 ],
					"source" : [ "obj-26", 0 ]
				}

			}
, 			{
				"patchline" : 				{
					"destination" : [ "obj-25", 0 ],
					"midpoints" : [ 282.5, 372.0, 194.5, 372.0 ],
					"source" : [ "obj-26", 1 ]
				}

			}
, 			{
				"patchline" : 				{
					"destination" : [ "obj-23", 0 ],
					"source" : [ "obj-28", 0 ]
				}

			}
, 			{
				"patchline" : 				{
					"destination" : [ "obj-31", 0 ],
					"source" : [ "obj-29", 0 ]
				}

			}
, 			{
				"patchline" : 				{
					"destination" : [ "obj-25", 1 ],
					"midpoints" : [ 161.5, 372.0, 313.5, 372.0 ],
					"source" : [ "obj-31", 1 ]
				}

			}
, 			{
				"patchline" : 				{
					"destination" : [ "obj-28", 0 ],
					"midpoints" : [ 125.5, 360.0, 125.5, 360.0 ],
					"source" : [ "obj-31", 0 ]
				}

			}
, 			{
				"patchline" : 				{
					"destination" : [ "obj-1", 0 ],
					"source" : [ "obj-4", 0 ]
				}

			}
, 			{
				"patchline" : 				{
					"destination" : [ "obj-26", 0 ],
					"source" : [ "obj-42", 2 ]
				}

			}
, 			{
				"patchline" : 				{
					"destination" : [ "obj-4", 0 ],
					"source" : [ "obj-8", 0 ]
				}

			}
 ],
		"dependency_cache" : [  ],
		"autosave" : 0
	}

}
